<svg id="Layer_1" enable-background="new 0 0 512 512" height="512" viewBox="0 0 512 512" width="512" xmlns="http://www.w3.org/2000/svg"><g><path d="m512 121.219v282.68c0 11.07-9 20.07-20.07 20.07h-194.31c-6.94 16.39-23.2 27.4-41.35 27.4-3.32 0-6.58-.37-9.73-1.07-14.07-3.14-25.96-12.94-31.63-26.33h-194.84c-11.07 0-20.07-9-20.07-20.07v-282.68c0-11.06 9-20.07 20.07-20.07h471.86c11.07 0 20.07 9.01 20.07 20.07z" fill="#52deff"/><path d="m278.15 423.969h19.47c-6.94 16.39-23.2 27.4-41.35 27.4-3.32 0-6.58-.37-9.73-1.07 14.06-3.15 25.94-12.94 31.61-26.33z" fill="#55baff"/><path d="m512 121.219v282.68c0 11.07-9 20.07-20.07 20.07h-19.47c11.08 0 20.07-8.98 20.07-20.07v-282.68c0-11.08-8.99-20.07-20.07-20.07h19.47c11.07 0 20.07 9.01 20.07 20.07z" fill="#55baff"/><g><path d="m476.88 81.689v298.03c0 2.18-.95 4.26-2.61 5.68-1.37 1.18-3.11 1.82-4.89 1.82-.37 0-.74-.03-1.11-.08l-63.67-9.54c-49.21-7.36-98.42-4.22-146.29 9.34-.63.18-1.28.27-1.93.28-.73.01-1.45-.09-2.16-.28-47.86-13.56-97.08-16.7-146.28-9.34l-63.67 9.54c-2.16.32-4.36-.31-6.01-1.74-1.65-1.42-2.61-3.5-2.61-5.68v-298.03c0-3.71 2.72-6.86 6.38-7.41l62.83-9.52c15.6-2.36 31.19-3.71 46.75-4.04 20.46-.45 40.85.85 61.09 3.89 14.58 2.19 29.08 5.28 43.46 9.27l.11.03.11-.03c49.55-13.75 100.45-16.81 151.29-9.12l62.83 9.52c3.67.55 6.38 3.7 6.38 7.41z" fill="#eef6ff"/><path d="m476.88 81.689v298.03c0 2.18-.95 4.26-2.61 5.68-1.37 1.18-3.11 1.82-4.89 1.82-.37 0-.74-.03-1.11-.08l-21.39-3.2-42.28-6.34c-49.21-7.36-98.42-4.22-146.29 9.34-.63.18-1.28.27-1.93.28v-313.34c49.55-13.75 100.45-16.81 151.29-9.12l32.85 4.98 29.98 4.54c3.67.55 6.38 3.7 6.38 7.41z" fill="#dae6ef"/><path d="m476.88 81.689v298.03c0 2.18-.95 4.26-2.61 5.68-1.37 1.18-3.11 1.82-4.89 1.82-.37 0-.74-.03-1.11-.08l-21.39-3.2v-306.76c0-3.71-2.71-6.88-6.38-7.43l.02-.01 29.98 4.54c3.67.55 6.38 3.7 6.38 7.41z" fill="#c5d3dd"/><g fill="#555760"><path d="m85.09 137.176c.374 0 .752-.028 1.133-.085l38.1-5.769c11.434-1.731 23.096-2.508 34.656-2.313.043 0 .086.001.13.001 4.082 0 7.427-3.274 7.496-7.373.07-4.142-3.23-7.556-7.372-7.626-12.383-.205-24.896.624-37.156 2.48l-38.1 5.769c-4.095.62-6.912 4.443-6.292 8.538.562 3.715 3.759 6.378 7.405 6.378z"/><path d="m85.09 183.981c.374 0 .752-.028 1.133-.085l38.1-5.769c11.434-1.732 23.086-2.515 34.656-2.313.043 0 .086.001.13.001 4.082 0 7.427-3.274 7.496-7.373.07-4.142-3.23-7.556-7.372-7.626-12.394-.211-24.897.624-37.156 2.48l-38.1 5.769c-4.095.62-6.912 4.443-6.292 8.538.562 3.715 3.759 6.378 7.405 6.378z"/><path d="m215.686 215.689c-30.448-8.447-61.727-10.331-92.969-5.601l-38.1 5.769c-4.095.62-6.912 4.443-6.292 8.538.563 3.715 3.76 6.378 7.405 6.378.374 0 .752-.028 1.133-.085l38.1-5.769c29.14-4.413 58.314-2.654 86.713 5.224 3.99 1.106 8.124-1.231 9.232-5.222 1.107-3.991-1.231-8.125-5.222-9.232z"/><path d="m85.731 277.578c.374 0 .752-.028 1.133-.085l38.1-5.769c23.807-3.604 47.854-3.063 71.475 1.608 4.062.802 8.01-1.839 8.813-5.902.804-4.063-1.839-8.009-5.902-8.813-25.323-5.009-51.105-5.59-76.631-1.725l-38.1 5.769c-4.095.62-6.912 4.443-6.292 8.538.561 3.716 3.759 6.379 7.404 6.379z"/><path d="m215.366 309.299c-30.448-8.447-61.727-10.33-92.97-5.601l-38.1 5.769c-4.095.62-6.912 4.443-6.292 8.538.563 3.715 3.76 6.378 7.405 6.378.374 0 .752-.028 1.133-.085l38.1-5.769c29.139-4.413 58.313-2.654 86.714 5.224 3.991 1.107 8.124-1.231 9.232-5.222 1.107-3.991-1.231-8.124-5.222-9.232z"/><path d="m428.398 121.976-38.1-5.769c-31.242-4.73-62.521-2.846-92.97 5.601-3.991 1.107-6.329 5.241-5.223 9.232 1.107 3.991 5.237 6.33 9.232 5.222 28.401-7.878 57.576-9.636 86.714-5.224l38.1 5.769c.381.058.759.085 1.133.085 3.646 0 6.844-2.664 7.405-6.378.621-4.095-2.196-7.918-6.291-8.538z"/><path d="m299.33 183.336c.663 0 1.338-.089 2.009-.275 28.398-7.879 57.574-9.637 86.714-5.225l11.032 1.67c4.091.617 7.917-2.197 8.538-6.293.62-4.095-2.197-7.918-6.292-8.538l-11.032-1.67c-31.242-4.73-62.521-2.846-92.97 5.602-3.991 1.107-6.329 5.241-5.222 9.232.921 3.321 3.937 5.497 7.223 5.497z"/><path d="m390.299 256.796c-31.242-4.73-62.521-2.845-92.97 5.602-3.991 1.107-6.329 5.241-5.222 9.232.921 3.321 3.937 5.497 7.223 5.497.663 0 1.338-.089 2.009-.275 28.398-7.878 57.574-9.636 86.714-5.225l11.032 1.67c4.091.619 7.917-2.197 8.538-6.293.62-4.095-2.197-7.918-6.292-8.538z"/><path d="m300.697 229.86c28.399-7.879 57.576-9.635 86.714-5.224l38.1 5.769c.381.058.759.085 1.133.085 3.646 0 6.844-2.664 7.405-6.378.62-4.095-2.197-7.918-6.292-8.538l-38.1-5.769c-31.241-4.73-62.521-2.847-92.97 5.601-3.991 1.107-6.329 5.241-5.222 9.232s5.236 6.33 9.232 5.222z"/><path d="m428.077 309.184-38.1-5.769c-31.242-4.731-62.522-2.846-92.969 5.601-3.991 1.107-6.329 5.241-5.222 9.232 1.106 3.991 5.237 6.329 9.231 5.222 28.397-7.879 57.573-9.636 86.713-5.224l38.1 5.769c.381.058.759.085 1.133.085 3.646 0 6.844-2.664 7.405-6.378.621-4.095-2.196-7.918-6.291-8.538z"/></g></g><path d="m212.7 64.609v118.29c0 2.99-1.79 5.7-4.54 6.89-.95.41-1.96.61-2.96.61-1.88 0-3.74-.71-5.16-2.06l-8.05-7.64-9.53-9.04-19.08 13.23c-2.29 1.58-5.28 1.77-7.75.48-2.48-1.3-4.02-3.86-4.02-6.65v-118c13.5-.3 26.97.17 40.38 1.4 6.92.62 13.82 1.46 20.71 2.49z" fill="#ff455c"/><path d="m212.7 64.609v118.29c0 2.99-1.79 5.7-4.54 6.89-.95.41-1.96.61-2.96.61-1.88 0-3.74-.71-5.16-2.06l-8.05-7.64v-118.58c6.92.62 13.82 1.46 20.71 2.49z" fill="#e51c5f"/></g></svg>