<svg id="Layer_1" enable-background="new 0 0 512 512" height="512" viewBox="0 0 512 512" width="512" xmlns="http://www.w3.org/2000/svg"><g><path d="m321.101 370.18-19.32 28.99 2.56 23.17c-1.62 4.26-3.22 8.33-4.8 12.2-18.36 45.13-36.51 72.92-37.27 74.08-.25.39-.54.75-.86 1.08-.01.01-.01.01-.02.02-1.4 1.44-3.34 2.28-5.39 2.28-2.52 0-4.88-1.27-6.27-3.38-.76-1.16-18.91-28.95-37.27-74.08-1.58-3.87-3.18-7.94-4.8-12.2v-.01l2.5-23.37-19.33-29.06c-8.87-33.56-15.52-72.52-15.52-113.9s6.65-80.34 15.52-113.9l19.39-29.27-2.56-23.17c1.62-4.26 3.22-8.33 4.8-12.2 18.36-45.13 36.51-72.92 37.27-74.08 1.39-2.11 3.75-3.38 6.27-3.38 2.05 0 3.99.84 5.39 2.28.01.01.01.01.02.02.32.33.61.69.86 1.08.76 1.16 18.91 28.95 37.27 74.08 1.58 3.87 3.18 7.94 4.8 12.2l-2.55 23.17 19.31 28.99c8.9 33.62 15.59 72.69 15.59 114.18s-6.69 80.56-15.59 114.18z" fill="#f7904b"/><path d="m299.721 256c0 24.15-19.57 43.72-43.72 43.72-4.16 0-8.19-.58-12-1.67-18.31-5.21-31.72-22.06-31.72-42.05s13.41-36.84 31.72-42.05c3.81-1.09 7.84-1.67 12-1.67 24.15 0 43.72 19.57 43.72 43.72z" fill="#46637f"/><path d="m299.721 256c0 24.15-19.57 43.72-43.72 43.72-4.16 0-8.19-.58-12-1.67 18.31-5.21 31.72-22.06 31.72-42.05s-13.41-36.84-31.72-42.05c3.81-1.09 7.84-1.67 12-1.67 24.15 0 43.72 19.57 43.72 43.72z" fill="#234063"/><g fill="#ffff4d"><g><path d="m267.547 332.74h-22.964c-4.142 0-7.5 3.357-7.5 7.5s3.358 7.5 7.5 7.5h22.964c4.142 0 7.5-3.357 7.5-7.5s-3.358-7.5-7.5-7.5z"/><path d="m244.584 179.26h22.964c4.142 0 7.5-3.357 7.5-7.5s-3.358-7.5-7.5-7.5h-22.964c-4.142 0-7.5 3.357-7.5 7.5s3.357 7.5 7.5 7.5z"/></g><path d="m321.101 370.18c-5.14 19.39-11.01 36.97-16.76 52.16-3.96 1.02-7.97 1.92-12.02 2.69-11.83 2.24-24.04 3.41-36.52 3.41-16.77 0-32.61-2.12-48.14-6.1v-.01c-5.78-15.26-11.68-32.93-16.83-52.43 19.92 9.65 41.35 15.06 64.97 15.06 16.09 0 31.59-2.51 46.14-7.16 6.6-2.11 12.99-4.66 19.16-7.62z"/><path d="m321.101 141.82c-6.17-2.96-12.56-5.51-19.16-7.62-14.55-4.65-30.05-7.16-46.14-7.16-23.62 0-45.05 5.41-64.97 15.06 5.15-19.5 11.05-37.18 16.83-52.44 15.53-3.98 31.37-6.1 48.14-6.1 12.48 0 24.69 1.17 36.52 3.41 4.05.77 8.06 1.67 12.02 2.69 5.75 15.19 11.62 32.77 16.76 52.16z"/></g><path d="m321.101 370.18-19.32 28.99 2.56 23.17c-1.62 4.26-3.22 8.33-4.8 12.2-18.36 45.13-36.51 72.92-37.27 74.08-.25.39-.54.75-.86 1.08 26.57-47.25 50.31-143.12 50.31-253.7s-23.74-206.45-50.31-253.7c.32.33.61.69.86 1.08.76 1.16 18.91 28.95 37.27 74.08 1.58 3.87 3.18 7.94 4.8 12.2l-2.55 23.17 19.31 28.99c8.9 33.62 15.59 72.69 15.59 114.18s-6.69 80.56-15.59 114.18z" fill="#f25d40"/><g fill="#ffe150"><path d="m301.941 377.8c6.6-2.11 12.99-4.66 19.16-7.62-5.14 19.39-11.01 36.97-16.76 52.16-3.96 1.02-7.97 1.92-12.02 2.69 3.62-14.72 6.87-30.53 9.62-47.23z"/><path d="m301.941 134.2c-2.75-16.7-6-32.51-9.62-47.23 4.05.77 8.06 1.67 12.02 2.69 5.75 15.19 11.62 32.77 16.76 52.16-6.17-2.96-12.56-5.51-19.16-7.62z"/></g><g><path d="m124.493 71h15v370h-15z" fill="#46637f"/><g><path d="m159.491 504.5v-60.58c0-1.96-.76-3.83-2.12-5.23l-17.88-18.4h-15l-17.88 18.4c-1.36 1.4-2.12 3.27-2.12 5.23v60.58c0 4.14 3.36 7.5 7.5 7.5h40c4.14 0 7.5-3.36 7.5-7.5z" fill="#ff7680"/><path d="m159.491 504.5v-60.58c0-1.96-.76-3.83-2.12-5.23l-17.88-18.4v91.71h12.5c4.14 0 7.5-3.36 7.5-7.5z" fill="#f44d90"/></g><g><path d="m159.491 7.5v60.58c0 1.96-.76 3.83-2.12 5.23l-17.88 18.4h-15l-17.88-18.4c-1.36-1.4-2.12-3.27-2.12-5.23v-60.58c0-4.14 3.36-7.5 7.5-7.5h40c4.14 0 7.5 3.36 7.5 7.5z" fill="#ff7680"/><path d="m159.491 7.5v60.58c0 1.96-.76 3.83-2.12 5.23l-17.88 18.4v-91.71h12.5c4.14 0 7.5 3.36 7.5 7.5z" fill="#f44d90"/></g></g><g><path d="m372.511 71h15v370h-15z" fill="#46637f"/><g><path d="m407.509 504.5v-60.58c0-1.96-.76-3.83-2.12-5.23l-17.88-18.4h-15l-17.88 18.4c-1.36 1.4-2.12 3.27-2.12 5.23v60.58c0 4.14 3.36 7.5 7.5 7.5h40c4.14 0 7.5-3.36 7.5-7.5z" fill="#ff7680"/><path d="m407.509 504.5v-60.58c0-1.96-.76-3.83-2.12-5.23l-17.88-18.4v91.71h12.5c4.14 0 7.5-3.36 7.5-7.5z" fill="#f44d90"/></g><g><path d="m407.509 7.5v60.58c0 1.96-.76 3.83-2.12 5.23l-17.88 18.4h-15l-17.88-18.4c-1.36-1.4-2.12-3.27-2.12-5.23v-60.58c0-4.14 3.36-7.5 7.5-7.5h40c4.14 0 7.5 3.36 7.5 7.5z" fill="#ff7680"/><path d="m407.509 7.5v60.58c0 1.96-.76 3.83-2.12 5.23l-17.88 18.4v-91.71h12.5c4.14 0 7.5 3.36 7.5 7.5z" fill="#f44d90"/></g></g></g></svg>