<svg height="512" viewBox="0 0 128 128" width="512" xmlns="http://www.w3.org/2000/svg"><g><g><path d="m95.574 21.228c-1.668 6.972-9.128 11.772-9.145 11.825 0 .062-5.64-7.2-3.81-14.9s10.139-11.71 10.112-11.653c-.011.059 4.484 7.748 2.843 14.728z" fill="#f09418"/><path d="m88.623 36.593 1.46-7.51-5.541-.875-1.278 7.605a192.94 192.94 0 0 0 6.883 85.687l5.167-1.625a187.537 187.537 0 0 1 -6.691-83.282z" fill="#f09418"/><g fill="#ffd203"><path d="m98.047 36.564c-4.883 3.8-12.38 2.1-12.387 2.062-.048.033.455-8.716 5.659-12.473 5.153-3.711 10.661-1.733 12.489-1.127-.044.03-.923 7.783-5.761 11.538z"/><path d="m96.458 50.616c-4.565 4.164-12.173 3.068-12.184 3.03-.044.036-.238-8.708 4.65-12.85 4.839-4.093 12.365-2.066 12.357-2.1.094.835-.298 7.804-4.823 11.92z"/><path d="m95.989 64.73c-4.222 4.51-11.893 4.02-11.906 3.984-.042.038-.926-8.659 3.617-13.166 4.5-4.457 10.924-3.348 12.151-3.07-.037.034.323 7.79-3.862 12.252z"/><path d="m96.638 78.838c-3.85 4.834-11.536 4.954-11.552 4.919-.039.04-1.61-8.569 2.562-13.419 4.133-4.8 11.128-4.226 11.871-4.022-.035.037.937 7.737-2.881 12.522z"/><path d="m98.407 92.874c-3.453 5.136-11.107 5.864-11.124 5.826-.036.043-2.289-8.436 1.486-13.608 3.738-5.115 9.481-4.829 11.514-4.953-.032.041 1.548 7.651-1.876 12.735z"/><path d="m74.277 32.916c3.49 5.642 11.3 5.661 11.278 5.7-.034-.041 1.928-8.292-1.221-13.89a12.193 12.193 0 0 0 -10.834-6.56c-.036-.044-2.75 9.051.777 14.75z"/><path d="m72.475 48.865c3.925 5.335 11.71 4.735 11.694 4.776-.037-.038 1.263-8.4-2.322-13.716-3.62-5.364-9.977-5.647-11.321-5.662-.041-.042-2.02 9.209 1.949 14.602z"/><path d="m71.942 64.883c4.337 5.007 12.048 3.8 12.035 3.833-.039-.035.72-8.574-3.4-13.476-4.014-4.774-10.577-4.84-11.735-4.74-.042-.039-1.283 9.323 3.1 14.383z"/><path d="m72.679 80.9c4.72 4.653 12.312 2.835 12.3 2.873-.043-.034-.079-8.5-4.458-13.173-4.421-4.717-12.06-3.832-12.073-3.8-.115.757-.539 9.393 4.231 14.1z"/><path d="m74.686 96.825c5.077 4.276 12.5 1.859 12.493 1.9-.046-.031-.757-8.492-5.493-12.806-4.786-4.36-12.326-2.872-12.336-2.834-.005.715.205 9.415 5.336 13.74z"/></g></g><g><path d="m51.379 21.228c-1.667 6.972-9.128 11.772-9.145 11.825 0 .062-5.639-7.2-3.81-14.9s10.139-11.71 10.112-11.653c-.011.059 4.485 7.748 2.843 14.728z" fill="#f09418"/><path d="m44.429 36.593 1.46-7.51-5.542-.875-1.278 7.605a192.955 192.955 0 0 0 6.884 85.687l5.166-1.625a187.537 187.537 0 0 1 -6.69-83.282z" fill="#f09418"/><g fill="#ffd203"><path d="m53.852 36.564c-4.882 3.8-12.379 2.1-12.387 2.062-.047.033.456-8.716 5.66-12.473 5.152-3.711 10.661-1.733 12.488-1.127-.043.03-.923 7.783-5.761 11.538z"/><path d="m52.264 50.616c-4.564 4.164-12.174 3.068-12.184 3.03-.045.036-.238-8.708 4.649-12.85 4.839-4.093 12.365-2.066 12.358-2.1.094.835-.298 7.804-4.823 11.92z"/><path d="m51.794 64.73c-4.221 4.51-11.892 4.02-11.9 3.984-.042.038-.927-8.659 3.617-13.166 4.5-4.457 10.923-3.348 12.151-3.07-.043.034.317 7.79-3.868 12.252z"/><path d="m52.444 78.838c-3.851 4.834-11.537 4.954-11.553 4.919-.039.04-1.61-8.569 2.563-13.419 4.132-4.8 11.128-4.226 11.87-4.022-.035.037.938 7.737-2.88 12.522z"/><path d="m54.212 92.874c-3.453 5.136-11.105 5.864-11.124 5.826-.036.043-2.289-8.436 1.486-13.608 3.739-5.115 9.482-4.829 11.514-4.953-.031.041 1.549 7.651-1.876 12.735z"/><path d="m30.083 32.916c3.49 5.642 11.3 5.661 11.278 5.7-.034-.041 1.927-8.292-1.222-13.89a12.191 12.191 0 0 0 -10.831-6.557c-.039-.047-2.753 9.048.775 14.747z"/><path d="m28.28 48.865c3.927 5.335 11.71 4.735 11.694 4.776-.036-.038 1.264-8.4-2.322-13.716-3.619-5.364-9.977-5.647-11.32-5.662-.041-.042-2.021 9.209 1.948 14.602z"/><path d="m27.747 64.883c4.337 5.007 12.049 3.8 12.036 3.833-.04-.035.719-8.574-3.4-13.476-4.015-4.774-10.583-4.84-11.735-4.74-.048-.039-1.284 9.323 3.099 14.383z"/><path d="m28.484 80.9c4.721 4.653 12.312 2.835 12.3 2.873-.042-.034-.079-8.5-4.458-13.173-4.421-4.717-12.06-3.832-12.072-3.8-.115.757-.54 9.393 4.23 14.1z"/><path d="m30.491 96.825c5.077 4.276 12.5 1.859 12.493 1.9-.045-.031-.757-8.492-5.493-12.806-4.781-4.358-12.326-2.87-12.335-2.832-.005.713.205 9.413 5.335 13.738z"/></g></g></g></svg>