<svg height="512" viewBox="0 0 58 58" width="512" xmlns="http://www.w3.org/2000/svg"><g id="029---Lizard" fill="none"><path id="Shape" d="m10 46.13v2.87c0 1.6568542-1.34314575 3-3 3h-4.89c-1.06269567.0203758-1.96912591-.7651971-2.1-1.82-.05052679-.5591277.13627201-1.1137476.51476578-1.5283789.37849377-.4146314.91382846-.6510924 1.47523422-.6516211h3c.55228475 0 1-.4477153 1-1v-7h.01c.17 2.96 1.43 3.62 3.39 5.59.19.19.39.37.59.54z" fill="#d25627"/><path id="Shape" d="m57.41 43.41c-.3704612.3798589-.8794095.5928231-1.41.59-6.947 0-11.27-.369-17.19 1.97-5.051 2.389-6.655 3.276-10.04 4.14-3.722.945-5.972.89-11.14.89-2.805996.0034352-5.5176215-1.0129801-7.63-2.86v-.01h-.01c-4.83-4.107-4.937-11.13-2.15-16.7 1.315-2.641 1.15-4.536 1.15-6.73 1.3030303.4020155 2.6969697.4020155 4 0v2.3c-.005308 3.4442419 1.3585075 6.7493798 3.7911422 9.1876412 2.4326347 2.4382615 5.7346128 3.8097094 9.1788578 3.8123588h29.93c.8235938-.0366503 1.5857547.4343196 1.9213982 1.1873093s.1764209 1.6346643-.4013982 2.2226907z" fill="#e57e25"/><path id="Shape" d="m57.72 41.02c-.3601286.6073989-1.0138654.9798768-1.72.98-6.506 0-9.92-.263-14.73 1.13-5.485 1.52-9.209 5.458-18.27 5.83-.492 0-4.878.04-5.37.04-2.805996.0034352-5.5176215-1.0129801-7.63-2.86v-.01h-.01c-2.29910742-1.9997529-3.72113511-4.8222624-3.96-7.86.13409281-2.3790169.7498672-4.7060317 1.81-6.84.68969386-1.3797039 1.08150699-2.8890363 1.15-4.43v-4.3c1.3030303.4020155 2.6969697.4020155 4 0v4.3c-.005308 3.4442419 1.3585075 6.7493798 3.7911422 9.1876412 2.4326347 2.4382615 5.7346128 3.8097094 9.1788578 3.8123588h29.93c.7468642-.0052247 1.4416394.3820271 1.83 1.02z" fill="#f29c1f"/><path id="Shape" d="m10.132 43.638c-.74364747-1.3066364-1.13381044-2.7845682-1.132-4.288-.0037328-1.722327.29095835-3.43228.871-5.054.1866723-.5199761.7595239-.7901722 1.2795-.6035.5199761.1866723.7901722.7595239.6035 1.2795-.5023776 1.4048127-.7574859 2.8860651-.754 4.378-.0026847 1.1566526.2961364 2.2940342.867 3.3.187459.3107437.1918524.6986581.0114792 1.0135676-.1803732.3149096-.5171988.5073813-.8800796.5029026s-.6948535-.2052049-.8673996-.5244702z" fill="#f29c1f"/><path id="Shape" d="m17.24 21.45c-.7116254.379236-1.3299107.9121228-1.81 1.56-1.1213379 1.2713137-2.7348194 1.9996033-4.43 1.9996033-1.69518062 0-3.30866207-.7282896-4.43-1.9996033-.48008934-.6478772-1.09837462-1.180764-1.81-1.56-3.237-1.7-5.114-4.4-4.7-8.02.43 3.31 3.1 2.18 4.7 3.02 2.104 1.11 1.733 2.45 4.24 3.25 1.3030303.4020155 2.6969697.4020155 4 0 2.518-.8 2.145-2.145 4.24-3.25 1.6-.84 4.27.29 4.7-3.02.414 3.62-1.461 6.317-4.7 8.02z" fill="#e57e25"/><path id="Shape" d="m21.94 13.43c-.43 3.31-3.1 5.18-4.7 6.02-.7116254.379236-1.3299107.9121228-1.81 1.56-1.1213379 1.2713137-2.7348194 1.9996033-4.43 1.9996033-1.69518062 0-3.30866207-.7282896-4.43-1.9996033-.48008934-.6478772-1.09837462-1.180764-1.81-1.56-1.6-.84-4.27-2.71-4.7-6.02.17663887-1.8028053.95512414-3.49363301 2.21-4.8-2.679-3.157-.83-8.63 2.73-8.63 2.542 0 4.756 3.135 3.75 6.69 1.3588927-.92013241 3.1411073-.92013241 4.5 0-.978-3.455 1.112-6.69 3.75-6.69 3.621 0 5.37 5.519 2.73 8.63 1.2548759 1.30636699 2.0333611 2.9971947 2.21 4.8z" fill="#f29c1f"/><path id="Shape" d="m5 7c-.55228475 0-1-.44771525-1-1v-2c0-.55228475.44771525-1 1-1s1 .44771525 1 1v2c0 .55228475-.44771525 1-1 1z" fill="#2c2f38"/><path id="Shape" d="m17 7c-.5522847 0-1-.44771525-1-1v-2c0-.55228475.4477153-1 1-1s1 .44771525 1 1v2c0 .55228475-.4477153 1-1 1z" fill="#2c2f38"/><g fill="#d25627"><path id="Shape" d="m7.294 13.707c-.39038194-.3904999-.39038194-1.0235001 0-1.414l1-1c.25107447-.2599566.62287789-.3642126.97250732-.2726972.34962944.0915155.6226744.3645604.71418984.7141899.09151544.3496294-.01274058.7214328-.27269716.9725073l-1 1c-.39049985.3903819-1.02350015.3903819-1.414 0z"/><path id="Shape" d="m13.294 13.707-1-1c-.3789722-.3923789-.3735524-1.0160848.0121814-1.4018186s1.0094397-.3911536 1.4018186-.0121814l1 1c.2599566.2510745.3642126.6228779.2726972.9725073-.0915155.3496295-.3645604.6226744-.7141899.7141899-.3496294.0915154-.7214328-.0127406-.9725073-.2726972z"/><path id="Shape" d="m23 46v9c0 1.6568542-1.3431458 3-3 3h-4.89c-1.0626957.0203758-1.9691259-.7651971-2.1-1.82-.0505268-.5591277.136272-1.1137476.5147658-1.5283789.3784938-.4146314.9138284-.6510924 1.4752342-.6516211h3c.5522847 0 1-.4477153 1-1v-5c0-.5522847-.4477153-1-1-1h-.89c-.9451185.0218367-1.7848331-.5997168-2.04-1.51-.1540805-.5967506-.0232562-1.2312159.3543154-1.7183419.3775716-.4871261.9593633-.7720462 1.5756846-.7716581h3c1.6568542 0 3 1.3431458 3 3z"/><path id="Shape" d="m39 47v8c0 1.6568542-1.3431458 3-3 3h-4.89c-1.0626957.0203758-1.9691259-.7651971-2.1-1.82-.0505268-.5591277.136272-1.1137476.5147658-1.5283789.3784938-.4146314.9138284-.6510924 1.4752342-.6516211h3c.5522847 0 1-.4477153 1-1v-4c.0003967-.4098038-.249279-.7783727-.63-.93-.4123987-.0987398-.8392018-.1224511-1.26-.07-.9445528.0200557-1.7832949-.6007779-2.04-1.51-.1540805-.5967506-.0232562-1.2312159.3543154-1.7183419.3775716-.4871261.9593633-.7720462 1.5756846-.7716581h3c1.6568542 0 3 1.3431458 3 3z"/><path id="Shape" d="m16 18h-10c-.55228475 0-1-.4477153-1-1s.44771525-1 1-1h10c.5522847 0 1 .4477153 1 1s-.4477153 1-1 1z"/></g></g></svg>