<?xml version="1.0" encoding="utf-8"?>
<!-- Generator: Adobe Illustrator 17.1.0, SVG Export Plug-In . SVG Version: 6.00 Build 0)  -->
<!DOCTYPE svg PUBLIC "-//W3C//DTD SVG 1.1//EN" "http://www.w3.org/Graphics/SVG/1.1/DTD/svg11.dtd">
<svg version="1.1" id="Calque_1" xmlns="http://www.w3.org/2000/svg" xmlns:xlink="http://www.w3.org/1999/xlink" x="0px" y="0px"
	 viewBox="0 0 3000 4000" enable-background="new 0 0 3000 4000" xml:space="preserve">
<path d="M2027.7,2328.1c-107.7,0-195-87.3-195-195s87.3-195,195-195c107.7,0,195,87.3,195,195
	C2222.5,2240.7,2135.3,2328,2027.7,2328.1z M2027.7,2058.1c-41.4,0-75,33.6-75,75s33.6,75,75,75s75-33.6,75-75
	C2102.6,2091.7,2069.1,2058.1,2027.7,2058.1z"/>
<path d="M1050.5,2328.1c-107.7,0-195-87.3-195-195s87.3-195,195-195c107.7,0,195,87.3,195,195
	C1245.4,2240.7,1158.1,2328,1050.5,2328.1z M1050.5,2058.1c-41.4,0-75,33.6-75,75s33.6,75,75,75c41.4,0,75-33.6,75-75
	C1125.5,2091.7,1091.9,2058.1,1050.5,2058.1z"/>
<path d="M1539.1,2328.1c-107.7,0-195-87.3-195-195s87.3-195,195-195s195,87.3,195,195C1734,2240.7,1646.7,2328,1539.1,2328.1z
	 M1539.1,2058.1c-41.4,0-75,33.6-75,75s33.6,75,75,75c41.4,0,75-33.6,75-75C1614,2091.7,1580.5,2058.1,1539.1,2058.1z"/>
<path d="M2027.7,1893.1c-107.7,0-195-87.3-195-195s87.3-195,195-195c107.7,0,195,87.3,195,195
	C2222.5,1805.7,2135.3,1893,2027.7,1893.1z M2027.7,1623.1c-41.4,0-75,33.6-75,75c0,41.4,33.6,75,75,75s75-33.6,75-75
	C2102.6,1656.7,2069.1,1623.1,2027.7,1623.1z"/>
<path d="M1050.5,1893.1c-107.7,0-195-87.3-195-195s87.3-195,195-195c107.7,0,195,87.3,195,195
	C1245.4,1805.7,1158.1,1893,1050.5,1893.1z M1050.5,1623.1c-41.4,0-75,33.6-75,75c0,41.4,33.6,75,75,75c41.4,0,75-33.6,75-75
	C1125.5,1656.7,1091.9,1623.1,1050.5,1623.1z"/>
<path d="M1539.1,1893.1c-107.7,0-195-87.3-195-195s87.3-195,195-195s195,87.3,195,195C1734,1805.7,1646.7,1893,1539.1,1893.1z
	 M1539.1,1623.1c-41.4,0-75,33.6-75,75c0,41.4,33.6,75,75,75c41.4,0,75-33.6,75-75C1614,1656.7,1580.5,1623.1,1539.1,1623.1z"/>
</svg>
