<?xml version="1.0" encoding="utf-8"?>
<!-- Generator: Adobe Illustrator 17.1.0, SVG Export Plug-In . SVG Version: 6.00 Build 0)  -->
<!DOCTYPE svg PUBLIC "-//W3C//DTD SVG 1.1//EN" "http://www.w3.org/Graphics/SVG/1.1/DTD/svg11.dtd">
<svg version="1.1" id="Layer_1" xmlns="http://www.w3.org/2000/svg" xmlns:xlink="http://www.w3.org/1999/xlink" x="0px" y="0px"
	 viewBox="0 0 3000 4000" enable-background="new 0 0 3000 4000" xml:space="preserve">
<path fill="#FF8736" d="M2642.4,1095.9c44.8-33.2,73.8-86.5,73.8-146.6c0-68.9-38.2-128.8-94.6-159.9
	c25.1-31.2,40.1-70.9,40.1-114.1c0-100.8-81.7-182.5-182.5-182.5c-19.2,0-37.8,3-55.2,8.5c0-1.8,0.1-3.6,0.1-5.3
	c0-119.8-97.1-216.9-216.9-216.9c-58.9,0-112.3,23.5-151.3,61.6c-50-87.3-144-146.2-251.8-146.2c-160.2,0-290,129.8-290,290
	c0,2.8,0.1,5.5,0.2,8.3c0,0-0.1,0-0.2,0c-100.8,0-182.5,81.7-182.5,182.5c0,43.2,15.1,82.8,40.1,114.1
	c-56.4,31.1-94.6,91-94.6,159.9c0,60.1,29.1,113.3,73.8,146.6c-21.4,21.1-34.6,50.4-34.6,82.8c0,64.3,52.1,116.4,116.4,116.4h1127.6
	c64.3,0,116.4-52.1,116.4-116.4C2677.1,1146.3,2663.8,1117,2642.4,1095.9z"/>
<path fill="#CC5D11" d="M2716.3,949.3c0-68.9-38.2-128.8-94.6-159.9c25.1-31.2,40.1-70.9,40.1-114.1c0-100.8-81.7-182.5-182.5-182.5
	c-19.2,0-37.8,3-55.2,8.5c0-1.8,0.1-3.6,0.1-5.3c0-119.8-97.1-216.9-216.9-216.9c-27.2,0-53.1,5.1-77.1,14.2
	C2211.9,324.5,2270,403.5,2270,496c0,1.8-0.1,3.6-0.1,5.3c17.4-5.5,36-8.5,55.2-8.5c100.8,0,182.5,81.7,182.5,182.5
	c0,43.2-15.1,82.8-40.1,114.1c56.4,31.1,94.6,91,94.6,159.9c0,60.1-29.1,113.3-73.8,146.6c21.4,21.1,34.6,50.4,34.6,82.8
	c0,64.3-52.1,116.4-116.4,116.4h154.3c64.3,0,116.4-52.1,116.4-116.4c0-32.4-13.3-61.7-34.6-82.8
	C2687.2,1062.6,2716.3,1009.4,2716.3,949.3z"/>
<path fill="#FFCD34" d="M1721.4,2730h550.8c17.8-173.4,104.3-326.4,231.8-431.4c23.8-19.6,30.5-52.9,17.4-80.8
	c-51.2-108.4-146-192.1-261.8-228.5c-70.2-22.1-118.6-86.5-118.6-160.1v-259.3h-288.5v259.3c0,73.7-48.3,138-118.6,160.1
	c-115.8,36.4-210.6,120.2-261.8,228.5c-13.1,27.8-6.4,61.2,17.4,80.8C1617.1,2403.6,1703.6,2556.7,1721.4,2730z"/>
<path fill="#E69012" d="M2521.4,2217.9c-51.2-108.4-146-192.1-261.8-228.5c-70.2-22.1-118.6-86.5-118.6-160.1v-259.3h-166v259.3
	c0,73.7,45.9,138,112.6,160.1c110,36.4,200,120.2,248.6,228.5c12.5,27.8,6.1,61.2-16.5,80.8c-121.1,105-203.2,258.1-220.2,431.4
	h172.6c17.8-173.4,104.3-326.4,231.8-431.4C2527.8,2279,2534.6,2245.7,2521.4,2217.9z"/>
<path fill="#E69012" d="M1996.8,1908.5c36,0,91.2-16.1,148.9-40.3c-3-12.6-4.7-25.6-4.7-39v-259.3h-288.5v259.3
	c0,13.4-1.6,26.4-4.7,39C1905.7,1892.4,1960.8,1908.5,1996.8,1908.5z"/>
<path fill="#FF8736" d="M2259.6,1989.3c-1-0.3-1.9-0.7-2.8-1c-166.7,208.8-409.8,355.4-671.8,407.5
	c74.5,93.7,123.5,208.6,136.4,334.2h550.8c17.8-173.4,104.3-326.4,231.8-431.4c23.8-19.6,30.5-52.9,17.3-80.8
	C2470.2,2109.5,2375.4,2025.7,2259.6,1989.3z"/>
<path fill="#CC5D11" d="M2500.2,2178.4c-3.9-6.4-7.9-12.6-12-18.8c-37.6-55.3-87.5-101.5-146-134.5c-30.1-17-53.7-26.3-85.4-36.9
	c-17,21.3-34.9,42-53.5,62c56.8,42.8,102.8,100.5,132.9,167.6c12.5,27.8,6.1,61.2-16.5,80.8c-121.1,105-203.2,258.1-220.2,431.4
	h172.6c6.7-65,23-127.2,47.6-185c26.6-62.7,62.8-120.2,106.8-170.9c49.7-57.2,78.1-72.6,89-87.9
	C2541.5,2250.2,2522.6,2215.4,2500.2,2178.4z"/>
<path fill="#485072" d="M1576.8,2870v356.5c0,52.1,42.2,94.4,94.4,94.4h651.4c52.1,0,94.4-42.2,94.4-94.4V2870H1576.8z"/>
<path fill="#28375B" d="M2269.1,2906.6v319.9c0,52.1-42.2,94.4-94.4,94.4h147.8c52.1,0,94.4-42.2,94.4-94.4v-319.9H2269.1z"/>
<path fill="#BC5B57" d="M1386.6,2818.3c0-48.8,39.5-88.3,88.3-88.3h1043.9c48.8,0,88.3,39.5,88.3,88.3c0,48.8-39.5,88.3-88.3,88.3
	H1474.9C1426.1,2906.6,1386.6,2867.1,1386.6,2818.3z"/>
<path fill="#8E3A38" d="M2518.8,2730h-176.2c48.8,0,88.3,39.5,88.3,88.3c0,48.8-39.5,88.3-88.3,88.3h176.2
	c48.8,0,88.3-39.5,88.3-88.3C2607.1,2769.6,2567.5,2730,2518.8,2730z"/>
<g>
	<path fill="#FFCD34" d="M2512.9,1217h-159.7v217.8h159.7c60.2,0,108.9-48.8,108.9-108.9C2621.8,1265.7,2573,1217,2512.9,1217z"/>
	<path fill="#FFCD34" d="M1480.8,1217h159.7v217.8h-159.7c-60.1,0-108.9-48.8-108.9-108.9C1371.9,1265.7,1420.7,1217,1480.8,1217z"
		/>
	<path fill="#FFCD34" d="M2376.8,1581.3c-57.2,79.5-285,190.9-380,190.9c-95,0-322.8-111.4-380-190.9
		c-86.7-120.5-35.3-451.6,4.7-644.5c2.4,1.4,4.8,2.7,7.2,3.9c63.4,31.9,140.4,28.3,206.9,3.5c66.5-24.8,117.9-72,170.7-119.4
		c55.3,45,131.2,63.6,200.9,48.9c11.7-2.4,23.2-5.8,34.5-10.1c8.8,47.4,31.4,92.2,64.9,126.9c24.2,25,54,44.6,86.4,57.4
		C2425.8,1238.3,2448.5,1481.7,2376.8,1581.3z"/>
</g>
<path fill="#E69012" d="M2393.2,1048c-32.4-12.9-62.2-32.3-86.4-57.4c-33.5-34.7-56.1-79.5-64.9-126.9c-5,1.9-10.1,3.6-15.3,5.2
	c31.7,210.1,68,619.8,1.4,712.5c-45.2,62.8-197,145.6-305.5,177.5c28.8,8.5,54.5,13.4,74.4,13.4c95,0,322.8-111.4,380-190.9
	C2448.5,1481.7,2425.8,1238.3,2393.2,1048z"/>
<path fill="#E69012" d="M2255.6,1224.5h-93.5c-25.3,0-45.8-20.5-45.8-45.8c0-25.3,20.5-45.8,45.8-45.8h93.5
	c25.3,0,45.8,20.5,45.8,45.8C2301.4,1204,2280.8,1224.5,2255.6,1224.5z"/>
<path fill="#B56608" d="M2262.2,1224c22.1-3.2,39.1-22.3,39.1-45.3c0-25-20.1-45.3-45-45.7C2258.7,1163.2,2260.7,1193.8,2262.2,1224
	z"/>
<path fill="#E69012" d="M2061.9,1480.5h-105.2c-25.3,0-45.8-20.5-45.8-45.8v-210.3h-172.9c-25.3,0-45.8-20.5-45.8-45.8
	c0-25.3,20.5-45.8,45.8-45.8h218.7c25.3,0,45.8,20.5,45.8,45.8v210.3h59.4c25.3,0,45.8,20.5,45.8,45.8
	C2107.7,1460.1,2087.2,1480.5,2061.9,1480.5z"/>
<path fill="#CC5D11" d="M1696.4,2607.1c160.1-16.3,310.4-85.4,424.5-195.5c18.2-17.6,18.7-46.6,1.1-64.8
	c-17.6-18.2-46.6-18.7-64.8-1.1c-100.2,96.8-238.8,159.2-380.2,171.4c-5.1,0.4-9.9,1.7-14.3,3.6
	C1676,2548.4,1687.2,2577.3,1696.4,2607.1z"/>
<path fill="#FFD592" d="M1759.3,3615.5c-402.3,401-1056.4,401.4-1458.2,0.8c-401.8-400.6-401.4-1052.7,0.8-1453.7
	c185-184.4,431-291.1,692.8-300.4c260.4-9.3,511.9,78.4,708.3,246.8c37.7,32.4,60.2,78.9,62.1,128.6c1.8,49.6-17.1,97.8-52.4,132.9
	l-170.5,170c-50.3,50.1-50.3,131.6-0.1,181.7c50.2,50.1,132,50,182.3-0.1l29-28.9c49.4-49.2,122.9-65.4,188.4-41.4
	c65.5,24,111,83.7,116.5,153.1C2082.6,3106.5,1973.6,3402,1759.3,3615.5z"/>
<path fill="#D644A4" d="M1411.8,2133.8c68.1,60.3,74.2,164.4,13.6,232.4c-60.6,68-164.9,74.2-233.1,13.9
	c-68.1-60.3-74.2-164.4-13.6-232.4C1239.3,2079.7,1343.6,2073.5,1411.8,2133.8z"/>
<path opacity="0.1" enable-background="new    " d="M1267.7,2380c-68.1-60.3-74.2-164.4-13.6-232.4c23.6-26.5,53.9-43.5,86-51
	c-57.1-13.3-119.6,4.2-161.3,51c-60.6,68-54.5,172,13.6,232.4c41.6,36.8,96.7,48.8,147.1,37.1
	C1313.6,2411.2,1288.9,2398.8,1267.7,2380z"/>
<path fill="#FF8828" d="M763.9,2086.6c91-5.4,169.1,63.8,174.4,154.5c5.3,90.7-64.1,168.7-155.2,174.1
	c-91,5.4-169.1-63.7-174.5-154.5C603.4,2170,672.9,2092,763.9,2086.6z"/>
<path opacity="0.1" enable-background="new    " d="M679.5,2260.7c-4.8-82,51.5-153.6,129.5-170.6c-14.5-3.2-29.6-4.5-45.2-3.5
	c-91,5.4-160.5,83.4-155.2,174.1c5.3,90.8,83.4,159.9,174.5,154.5c8.8-0.5,17.3-1.7,25.6-3.5C738.4,2396.3,684,2336,679.5,2260.7z"
	/>
<path fill="#22E0C3" d="M271.8,2510c60.6-68,164.9-74.2,233.1-13.9c68.1,60.3,74.2,164.4,13.6,232.4c-60.6,68-164.9,74.2-233.1,13.9
	C217.3,2682.1,211.2,2578,271.8,2510z"/>
<path opacity="0.1" enable-background="new    " d="M362,2742.4c-68.1-60.3-74.2-164.4-13.6-232.4c23.4-26.3,53.4-43.3,85.3-50.9
	c-57.3-13.6-120,3.9-161.9,50.9c-60.6,68-54.5,172,13.6,232.4c41.8,37,97.2,48.9,147.7,37C407.5,2773.3,383,2761,362,2742.4z"/>
<path fill="#4351B5" d="M223.7,3156c-5.3-90.7,64.1-168.7,155.2-174.1c91-5.4,169.1,63.8,174.4,154.5
	c5.3,90.8-64.1,168.7-155.2,174.1C307.1,3316,229,3246.8,223.7,3156z"/>
<path opacity="0.1" enable-background="new    " d="M297.5,3156c-4.8-81.5,50.8-152.7,128.1-170.2c-15-3.4-30.6-4.8-46.7-3.9
	c-91,5.4-160.5,83.4-155.2,174.1c5.3,90.8,83.4,159.9,174.4,154.5c9.3-0.6,18.3-1.9,27-3.9C355.5,3290.8,301.8,3230.7,297.5,3156z"
	/>
<path fill="#543B93" d="M647.8,3646.2c-68.1-60.3-74.2-164.4-13.6-232.4c60.6-68,165-74.2,233.1-13.9
	c68.1,60.3,74.2,164.4,13.6,232.4C820.3,3700.3,715.9,3706.6,647.8,3646.2z"/>
<path fill="#FFFFFF" d="M1295.7,3693.4c-91,5.4-169.1-63.8-174.4-154.5c-5.3-90.7,64.2-168.7,155.2-174.1
	c91-5.4,169.1,63.8,174.4,154.5C1456.1,3610,1386.7,3688,1295.7,3693.4z"/>
<path fill="#EF3E3B" d="M1787.8,3270c-60.6,68-164.9,74.2-233.1,13.9c-68.1-60.3-74.2-164.4-13.6-232.4
	c60.6-68,164.9-74.2,233.1-13.9C1842.3,3097.9,1848.4,3202,1787.8,3270z"/>
<path opacity="0.1" enable-background="new    " d="M723.9,3646.2c-68.1-60.3-74.2-164.4-13.6-232.4c23.5-26.4,53.6-43.4,85.6-50.9
	c-57.2-13.5-119.9,4-161.7,50.9c-60.6,68-54.5,172,13.6,232.4c41.7,36.9,97,48.9,147.5,37C769.6,3677.2,745,3664.9,723.9,3646.2z"/>
<path opacity="0.1" enable-background="new    " d="M1197.4,3538.9c-4.7-81.1,50.3-151.9,127-170c-15.3-3.6-31.4-5.1-48-4.2
	c-91,5.4-160.5,83.4-155.2,174.1c5.3,90.8,83.4,159.9,174.4,154.5c9.7-0.6,19.1-2,28.2-4.2
	C1254.8,3672.9,1201.7,3613.2,1197.4,3538.9z"/>
<path opacity="0.1" enable-background="new    " d="M1630.8,3283.8c-68.1-60.3-74.2-164.4-13.6-232.4c23.5-26.4,53.6-43.4,85.6-50.9
	c-57.2-13.5-119.9,4-161.7,50.9c-60.6,68-54.5,172,13.6,232.4c41.7,36.9,97,48.9,147.5,37C1676.5,3314.8,1652,3302.5,1630.8,3283.8z
	"/>
<rect x="1865.6" y="1997.4" transform="matrix(-0.7071 0.7071 -0.7071 -0.7071 4845.2485 2103.9678)" fill="#22E0C3" width="242.6" height="116.2"/>
<g>
	<path fill="#38CCAA" d="M2095.8,2028.7l193.3-193.3c26.6-26.6,29.8-66.8,7.2-89.4c-22.6-22.6-62.8-19.3-89.4,7.2l-193.3,193.2
		L2095.8,2028.7z"/>
	<path fill="#38CCAA" d="M1455,2430.9l7.8,7.8c-2.2,2.4-4.4,4.8-6.6,7.3l143.8,143.8c2.4-2.2,4.8-4.4,7.3-6.6l4.2,4.2
		c125.1-138,244.1-281.7,356.4-430.7l-82.2-82.1C1736.6,2186.8,1593,2305.8,1455,2430.9z"/>
</g>
<path fill="#B59472" d="M1268.5,2937.6c2,2,2.7,5.1,1.9,7.9c-18,58-64,110.6-140.6,160.9c-66.1,43.3-146.9,79.7-218.3,111.7
	c-57.1,25.7-111,49.9-150.9,74.5c-3.2,2-7.3,1.6-9.8-1c-2.6-2.6-3-6.6-1-9.8c24.6-39.9,48.8-93.8,74.5-150.9
	c32.1-71.3,68.4-152.2,111.7-218.3c50.3-76.7,102.9-122.7,160.9-140.6c2.8-0.9,5.9-0.2,7.9,1.9L1268.5,2937.6z"/>
<path opacity="0.1" enable-background="new    " d="M880.2,3130.8c32.1-71.3,68.4-152.2,111.7-218.3
	c39.9-60.8,81.3-102.3,125.7-125.9l-12.8-12.8c-2-2-5.1-2.7-7.9-1.9c-58,18-110.6,64-160.9,140.6c-43.3,66.1-79.7,146.9-111.7,218.3
	c-25.7,57.1-49.9,111-74.5,150.9c-2,3.2-1.6,7.3,1,9.8c2.6,2.6,6.6,3,9.8,1c16.7-10.3,35.9-20.5,56.7-30.8
	C838,3224.7,858.6,3178.9,880.2,3130.8z"/>
<g>
	<path fill="#967659" d="M1195.3,2864.4l-56.7,56.7c-14.4,14.4-14.4,37.8,0,52.2c14.4,14.4,37.8,14.4,52.2,0l56.7-56.7
		L1195.3,2864.4z"/>
	<path fill="#967659" d="M1125.7,2794.8l-101.9,101.9c-14.4,14.4-14.4,37.8,0,52.2c14.4,14.4,37.8,14.4,52.2,0L1178,2847
		L1125.7,2794.8z"/>
</g>
<path fill="#E5E5E5" d="M1267.5,2938c90.7-85.4,178.7-173.5,264.1-264.2l-163.1-163.1c-90.7,85.4-178.8,173.4-264.2,264.1
	L1267.5,2938z"/>
<path fill="#D1D3D4" d="M1120.4,2757.8l164.1,164.1c113.2-107.3,222.2-218.9,327-334.5l-156.5-156.5
	C1339.4,2535.6,1227.8,2644.7,1120.4,2757.8z"/>
<g>
	<path fill="#E5E5E5" d="M1361.7,2847.3c23.9-23.5,47.6-47.1,71.1-71L1266,2609.6c-23.8,23.5-47.5,47.2-71,71.1L1361.7,2847.3z"/>
	<path fill="#E5E5E5" d="M1489.5,2718.1c23.2-24.2,46.2-48.5,69-73.1l-161.2-161.2c-24.5,22.8-48.9,45.8-73.1,69L1489.5,2718.1z"/>
</g>
<path opacity="0.1" enable-background="new    " d="M1104.3,2774.8l37.1,37.1c239.9-254.9,501.3-489.3,781.4-700.3l-37.1-37.1
	C1605.6,2285.5,1344.2,2520,1104.3,2774.8z"/>
<path fill="#E5E5E5" d="M1322.7,2942.6c-14,14-36.7,14-50.7,0l-172.2-172.2c-14-14-14-36.7,0-50.7c14-14,36.7-14,50.7,0l172.2,172.2
	C1336.7,2905.8,1336.7,2928.5,1322.7,2942.6z"/>
<path opacity="0.1" enable-background="new    " d="M1099.8,2719.6c-14,14-14,36.7,0,50.7l40.2,40.2c-14-14-14-36.7,0-50.7
	c14-14,36.7-14,50.7,0l-40.2-40.2C1136.5,2705.6,1113.8,2705.6,1099.8,2719.6z"/>
<g opacity="0.1">
	<path d="M432.8,3616.4C31,3215.8,31.4,2563.7,433.7,2162.7c178.3-177.7,413.2-283.2,664.2-299c-34.2-2.1-68.6-2.7-103.1-1.4
		c-261.8,9.3-507.8,116-692.8,300.4c-402.3,401-402.6,1053.1-0.8,1453.7c217.5,216.8,508.8,316.1,794.1,298
		C853.8,3899.1,616.9,3799.8,432.8,3616.4z"/>
</g>
</svg>
