<svg height="512" viewBox="0 0 60 56" width="512" xmlns="http://www.w3.org/2000/svg"><g id="Page-1" fill="none" fill-rule="evenodd"><g id="018---Yacht" fill-rule="nonzero"><path id="Shape" d="m28 7-13.39 2.68c-.9353078.18595443-1.609234 1.0063863-1.61 1.96v4.36h34v-4.36c-.000766-.9536137-.6746922-1.77404557-1.61-1.96l-13.39-2.68z" fill="#95a5a5"/><path id="Rectangle-path" d="m10 17h40v15.22h-40z" fill="#ecf0f1"/><path id="Shape" d="m15 30.91v-5.91c0-.5522847.4477153-1 1-1h8c.5522847 0 1 .4477153 1 1v3.31z" fill="#9fc9d3"/><path id="Shape" d="m35 28.31v-3.31c0-.5522847.4477153-1 1-1h8c.5522847 0 1 .4477153 1 1v5.91z" fill="#9fc9d3"/><path id="Shape" d="m15 33.6c-.5522847 0-1-.4477153-1-1v-7.6c0-1.1045695.8954305-2 2-2h8c1.1045695 0 2 .8954305 2 2v5c0 .5522847-.4477153 1-1 1s-1-.4477153-1-1v-5h-8v7.6c0 .5522847-.4477153 1-1 1z" fill="#7f8c8d"/><path id="Shape" d="m45 33.6c.5522847 0 1-.4477153 1-1v-7.6c0-1.1045695-.8954305-2-2-2h-8c-1.1045695 0-2 .8954305-2 2v5c0 .5522847.4477153 1 1 1s1-.4477153 1-1v-5h8v7.6c0 .5522847.4477153 1 1 1z" fill="#7f8c8d"/><path id="Shape" d="m22 5c-.5191427-.0019233-.9504782-.4007872-.9929441-.91819366s.3180624-.98126221.8299441-1.06780634l6.973-1.162c.3575492-.07060362.7251962.05890396.9595552.33801352s.2983137.66361752.1669211 1.00356203c-.1313926.33994452-.4373234.58148735-.7984763.63042445l-6.974 1.162c-.0541434.00952029-.1090264.01420542-.164.014z" fill="#bdc3c7"/><path id="Shape" d="m38 5c-.0553075.00026492-.1105278-.00442043-.165-.014l-6.972-1.162c-.3611529-.0489371-.6670837-.29047993-.7984763-.63042445-.1313926-.33994451-.0674379-.72445247.1669211-1.00356203s.602006-.40861714.9595552-.33801352l6.973 1.162c.5120622.08658461.8726242.55073237.8298844 1.06830163-.0427399.51756926-.4745554.91628403-.9938844.91769837z" fill="#bdc3c7"/><path id="Shape" d="m32 2 .0000277 12h-4.0000277v-12c.0032948-1.10320187.8967981-1.9967052 2-2 .5305905-.00282307 1.0395388.2101411 1.41.59.3798589.3704612.5928231.87940947.59 1.41z" fill="#7f8c8d"/><path id="Shape" d="m53 16.5c.0021341.6636932-.2605727 1.3008186-.729877 1.770123-.4693044.4693043-1.1064298.7320111-1.770123.729877h-41c-1.38071187 0-2.5-1.1192881-2.5-2.5s1.11928813-2.5 2.5-2.5h41c1.3807119 0 2.5 1.1192881 2.5 2.5z" fill="#bdc3c7"/><path id="Shape" d="m30.25 32.07c-.162386-.0534211-.337614-.0534211-.5 0l-21.71 5.66c1.33 5.25 3.93 13.38 7.78 16.14 1.4210967-.6180199 2.9609897-.9150724 4.51-.87 4.83 0 4.83 2 9.66 2h.01c4.83 0 4.83-2 9.66-2 1.5486946-.0412012 3.0877564.255691 4.51.87 3.86-2.75 6.46-10.88 7.79-16.14z" fill="#3b97d3"/><path id="Shape" d="m51.96 37.73c-1.33 5.26-3.93 13.39-7.79 16.14-1.4222436-.614309-2.9613054-.9112012-4.51-.87-4.83 0-4.83 2-9.66 2v-22.9700973c.0850315-.0012942.1696477.0122444.25.0400973z" fill="#2980ba"/><path id="Shape" d="m30 27.0299027v5.0000973c-.0850315-.0013915-.1696477.0121471-.25.04l-21.71 5.66c-.27-1.1-.49-2.08-.66-2.85-.22775674-1.0482235.4119925-2.0894706 1.45-2.36l1.17-.3 19.75-5.15c.0803523-.0278529.1649685-.0413915.25-.0400973z" fill="#bdc3c7"/><path id="Shape" d="m52.62 34.88c-.17.77-.39 1.75-.66 2.85l-21.71-5.66c-.0803523-.0278529-.1649685-.0413915-.25-.04v-5.0000973c.0850315-.0012942.1696477.0122444.25.0400973l19.75 5.15 1.17.3c1.0380075.2705294 1.6777567 1.3117765 1.45 2.36z" fill="#95a5a5"/><circle id="Oval" cx="19.5" cy="46.5" fill="#285680" r="2.5"/><circle id="Oval" cx="40.5" cy="46.5" fill="#285680" r="2.5"/><path id="Shape" d="m19.5 50c-1.9329966 0-3.5-1.5670034-3.5-3.5s1.5670034-3.5 3.5-3.5 3.5 1.5670034 3.5 3.5-1.5670034 3.5-3.5 3.5zm0-5c-.8284271 0-1.5.6715729-1.5 1.5s.6715729 1.5 1.5 1.5 1.5-.6715729 1.5-1.5-.6715729-1.5-1.5-1.5z" fill="#bdc3c7"/><path id="Shape" d="m40.5 50c-1.9329966 0-3.5-1.5670034-3.5-3.5s1.5670034-3.5 3.5-3.5 3.5 1.5670034 3.5 3.5-1.5670034 3.5-3.5 3.5zm0-5c-.8284271 0-1.5.6715729-1.5 1.5s.6715729 1.5 1.5 1.5 1.5-.6715729 1.5-1.5-.6715729-1.5-1.5-1.5z" fill="#bdc3c7"/><path id="Shape" d="m49.329 56c-1.7985734.0433237-3.5832852-.3247005-5.218-1.076-1.3935301-.6463304-2.9173617-.9625263-4.453-.924-1.5346924-.0387486-3.0575995.2774685-4.45.924-1.6337114.7511212-3.4174088 1.1191477-5.215 1.076-1.7982312.0431002-3.5825681-.3249172-5.217-1.076-1.3924005-.6465315-2.9153076-.9627486-4.45-.924-1.5343598-.0386301-3.0569153.277585-4.449.924-1.6336449.7513236-3.4173897 1.1193599-5.215 1.076-1.79727441.0432069-3.58066-.3248259-5.214-1.076-1.39172328-.6464363-2.91395984-.9626563-4.448-.924-.55228475 0-1-.4477153-1-1s.44771525-1 1-1c1.79727441-.0432069 3.58066.3248259 5.214 1.076 1.39172328.6464363 2.91395984.9626563 4.448.924 1.5343598.0386301 3.0569153-.277585 4.449-.924 1.6337114-.7511212 3.4174088-1.1191477 5.215-1.076 1.7976103-.0433599 3.5813551.3246764 5.215 1.076 1.3931688.6463515 2.9166814.9625522 4.452.924 1.5343598.0386301 3.0569153-.277585 4.449-.924 1.6340717-.751102 3.4180888-1.1191239 5.216-1.076 1.7982534-.0433475 3.5826455.3246812 5.217 1.076 1.3938459.6464468 2.9180291.9626447 4.454.924 1.5356383.0385263 3.0594699-.2776696 4.453-.924 1.6347148-.7512995 3.4194266-1.1193237 5.218-1.076.5522847 0 1 .4477153 1 1s-.4477153 1-1 1c-1.5359709-.0386447-3.0601541.2775532-4.454.924-1.6343545.7513188-3.4187466 1.1193475-5.217 1.076z" fill="#84b5cb"/></g></g></svg>