<svg id="Layer_1" enable-background="new 0 0 496.005 496.005" height="512" viewBox="0 0 496.005 496.005" width="512" xmlns="http://www.w3.org/2000/svg"><path d="m420.22 436.321c-7.84-70.712-86.354-96.245-85.168-180.67 2.648-188.478-39.517-255.651-87.05-255.651s-89.697 67.173-87.05 255.651c1.186 84.425-77.328 109.958-85.168 180.67-7.374 66.513 38.557 58.22 88.645 47.191 13.472-2.967 27.589-1.75 40.196 3.872 25.774 11.492 60.966 11.498 86.752 0 12.607-5.621 26.724-6.838 40.196-3.872 50.09 11.029 96.022 19.322 88.647-47.191z" fill="#ffd3be"/><path d="m97.745 462.73c7.84-70.712 86.354-96.245 85.168-180.67-1.117-79.499 5.739-137.417 17.608-177.815 3.52-11.982 2.158-24.439 5.636-33.804 5.97-16.072 13.241-10.976 17.08-16.357 23.05-32.308 54.866-34.243 77.629-16.776-14.936-26.096-33.451-37.308-52.864-37.308-47.533 0-89.697 67.172-87.05 255.651 1.186 84.425-77.328 109.958-85.168 180.67-3.648 32.903 5.753 47.494 22.245 52.509-1.284-7.039-1.444-15.644-.284-26.1z" fill="#ffe7dc"/><path d="m355.408 448.826c-33.104.679-55.373 35.406-55.373 35.406l.03.044c26.977-7.488 43.251 5.655 78.336 6.677 11.494-8.806 10.106-42.806-22.993-42.127z" fill="#ffa991"/><path d="m140.597 448.826c-33.099-.679-34.488 33.32-22.992 42.128 13.94-.406 30.151-3.77 46.825-7.442 19.413-4.275 31.144 1.309 31.54.721 0-.001-22.269-34.728-55.373-35.407z" fill="#ffa991"/><ellipse cx="221.352" cy="75.944" fill="#ffe7dc" rx="8.954" ry="6.429" transform="matrix(.397 -.918 .918 .397 63.702 248.891)"/><g fill="#f2b1ac"><path d="m389.221 369.963c-24.758-32.02-54.906-61.754-54.168-114.312.449-31.981-.622 41.979-20.027 99.349 0 0-3.74 13.171 9.964 8.056 13.704-5.116 17.548-38.192 51.106 0 5.239 5.963 9.561 7.894 13.125 6.907z"/><ellipse cx="349.293" cy="360.997" rx="6.822" ry="5.695" transform="matrix(.866 -.5 .5 .866 -133.702 223.011)"/></g></svg>