<?xml version="1.0" encoding="utf-8"?>
<!-- Generator: Adobe Illustrator 17.1.0, SVG Export Plug-In . SVG Version: 6.00 Build 0)  -->
<!DOCTYPE svg PUBLIC "-//W3C//DTD SVG 1.1//EN" "http://www.w3.org/Graphics/SVG/1.1/DTD/svg11.dtd">
<svg version="1.1" id="Capa_1" xmlns="http://www.w3.org/2000/svg" xmlns:xlink="http://www.w3.org/1999/xlink" x="0px" y="0px"
	 viewBox="0 0 3000 4000" enable-background="new 0 0 3000 4000" xml:space="preserve">
<g>
	<g>
		<path d="M2438.1,2437.4c-92-85.2-137.5-174.2-131.7-257.5c4.8-69.7,44.9-132.6,115.9-182c164.9-114.8,156.7-267.8,99.6-364
			c-68.2-114.9-200.4-161.2-307.4-107.7c-24.8,12.4-45,32.2-66.5,53.2c-31.2,30.6-63.5,62.2-113.3,75.8c-32.7,8.9-71.1,2.8-100.2-16
			c-21.6-13.9-35.3-32.9-38.6-53.3c-13.1-82.1,48.4-158.8,113.6-239.9c67.3-83.8,137-170.5,121.2-271.7
			c-25.7-164.8-171-250.6-294.9-247.5c-124.3,3-213.3,86.8-226.7,213.5c-15.9,150.1-58.7,251.4-120.4,285.2
			c-39.6,21.7-90.8,17.1-152.2-13.6c-87.7-43.9-169.9-52.5-237.7-25c-56.6,23-98.7,69.6-121.5,134.9
			c-41.8,119.5,33.4,203.8,83.2,259.5c10.9,12.2,21.1,23.7,29.1,34.1c43,56.4,17.2,130.2-32.5,168.9
			c-77.2,60.1-159.7,12.2-211.3-52.6C708.3,1659,551.5,1577,426.3,1612.3c-85.5,24.1-142.2,101.4-155.7,212
			c-20.6,169.2,121.6,237.2,247,297.2c81.1,38.8,164.9,78.9,196.3,141.6c23,46.1-6,90-63.8,170c-72.5,100.4-171.7,237.8-124.3,445.5
			c44.9,196.9,182.3,323.7,376.7,348c21.8,2.7,43.6,4,65.3,4c174.6,0,339.3-86,407.1-218.5c87.4-170.9,181-264.1,278.3-277.1
			c133.3-17.8,259.7,120.8,327.6,195.3c7,7.7,13.6,14.9,19.6,21.3c83.8,89.8,217.5,124.5,349.1,90.7
			c126.1-32.4,221.3-119.3,248.4-226.8C2636.9,2661.4,2532.5,2524.8,2438.1,2437.4z M2512.7,2794.1
			c-19.3,76.3-90.2,138.8-185.1,163.2c-78.7,20.2-189.1,13.6-263-65.6c-5.8-6.2-12.1-13.1-18.9-20.5
			c-78.7-86.4-225.2-247.2-404.3-223.2c-127.5,17.1-243.5,126.1-344.8,324.2c-59,115.3-223.7,187.2-383.3,167.3
			c-155.6-19.4-265.7-121.6-301.9-280.3c-38.6-168.9,40.3-278.1,109.9-374.4c58.5-81,119-164.8,71.1-260.7
			c-44.8-89.7-142.5-136.4-237-181.6c-130.6-62.5-210.1-105.9-197.7-207.3c5.3-43.3,24.3-118.9,92.4-138.1
			c11.1-3.1,22.9-4.7,35.2-4.7c84.5,0,194.5,72.2,291.5,194.2c111,139.6,247.8,134.4,334,67.3c42.3-32.9,72.8-81,83.7-131.9
			c12.2-57.1-0.3-113.8-35.2-159.7c-10-13.1-21.4-25.8-33.4-39.3c-54.7-61.2-88.8-106.3-65.8-172c14.5-41.4,38.6-69.1,71.6-82.5
			c43.1-17.5,101.8-9.6,165.3,22.2c88.7,44.3,167.3,48.4,233.7,12.1c90.3-49.4,146-168.2,165.6-353c8.7-82.5,61.6-132.9,141.5-134.9
			c86.6-2.2,187.9,57.9,205.9,173.2c9.8,62.8-45,131-102.9,203.1c-70.9,88.2-151.2,188.2-131.9,308.9c7.3,45.4,34.9,85.6,77.7,113.3
			c50.2,32.4,114.1,42.4,171,26.9c71.9-19.6,116.1-63,151.7-97.8c16.4-16,31.9-31.2,44.3-37.4c55.5-27.8,141.9-11.3,192.5,74
			c39.7,66.8,41,166.7-74.2,247c-92.2,64.2-146.7,152.3-153.3,248.1c-5.4,77.2,18,196.9,159.7,328.1
			C2488.7,2604.1,2535.2,2705.1,2512.7,2794.1z"/>
	</g>
</g>
</svg>
