<?xml version="1.0" encoding="utf-8"?>
<!-- Generator: Adobe Illustrator 17.1.0, SVG Export Plug-In . SVG Version: 6.00 Build 0)  -->
<!DOCTYPE svg PUBLIC "-//W3C//DTD SVG 1.1//EN" "http://www.w3.org/Graphics/SVG/1.1/DTD/svg11.dtd">
<svg version="1.1" id="Capa_1" xmlns="http://www.w3.org/2000/svg" xmlns:xlink="http://www.w3.org/1999/xlink" x="0px" y="0px"
	 viewBox="0 0 3000 4000" enable-background="new 0 0 3000 4000" xml:space="preserve">
<g>
	<g>
		<path fill="#EA040E" stroke="#000000" stroke-miterlimit="10" d="M2438.1,2437.4c-92-85.2-137.5-174.2-131.7-257.5
			c4.8-69.7,44.9-132.6,115.9-182c164.9-114.8,156.7-267.8,99.6-364c-68.2-114.9-200.4-161.2-307.4-107.7
			c-24.8,12.4-45,32.2-66.5,53.2c-31.2,30.6-63.5,62.2-113.3,75.8c-32.7,8.9-71.1,2.8-100.2-16c-21.6-13.9-35.3-32.9-38.6-53.3
			c-13.1-82.1,48.4-158.8,113.6-239.9c67.3-83.8,137-170.5,121.2-271.7c-25.7-164.8-171-250.6-294.9-247.5
			c-124.3,3-213.3,86.8-226.7,213.5c-15.9,150.1-58.7,251.4-120.4,285.2c-39.6,21.7-90.8,17.1-152.2-13.6
			c-87.7-43.9-169.9-52.5-237.7-25c-56.6,23-98.7,69.6-121.5,134.9c-41.8,119.5,33.4,203.8,83.2,259.5
			c10.9,12.2,21.1,23.7,29.1,34.1c43,56.4,17.2,130.2-32.5,168.9c-77.2,60.1-159.7,12.2-211.3-52.6
			C708.3,1659,551.5,1577,426.3,1612.3c-85.5,24.1-142.2,101.4-155.7,212c-20.6,169.2,121.6,237.2,247,297.2
			c81.1,38.8,164.9,78.9,196.3,141.6c23,46.1-6,90-63.8,170c-72.5,100.4-171.7,237.8-124.3,445.5c44.9,196.9,182.3,323.7,376.7,348
			c21.8,2.7,43.6,4,65.3,4c174.6,0,339.3-86,407.1-218.5c87.4-170.9,181-264.1,278.3-277.1c133.3-17.8,259.7,120.8,327.6,195.3
			c7,7.7,13.6,14.9,19.6,21.3c83.8,89.8,217.5,124.5,349.1,90.7c126.1-32.4,221.3-119.3,248.4-226.8
			C2636.9,2661.4,2532.5,2524.8,2438.1,2437.4z"/>
	</g>
</g>
</svg>
