<?xml version="1.0" encoding="iso-8859-1"?>
<!-- Generator: Adobe Illustrator 19.0.0, SVG Export Plug-In . SVG Version: 6.00 Build 0)  -->
<svg version="1.1" id="Capa_1" xmlns="http://www.w3.org/2000/svg" xmlns:xlink="http://www.w3.org/1999/xlink" x="0px" y="0px"
	 viewBox="0 0 512 512" style="enable-background:new 0 0 512 512;" xml:space="preserve">
<g>
	<rect style="fill:#FFFDE7;" width="512" height="512"/>
</g>
<g>
	<rect x="255" style="fill:#FF6E40;" width="257" height="512"/>
</g>
<g>
	<path style="fill:#263238;" d="M255.5,496.5c-8.284,0-15,6.716-15,15c0,0.2,0,0.3,0,0.5h29.9c0-0.2,0-0.3,0-0.5
		C270.4,503.255,263.745,496.555,255.5,496.5z"/>
	<circle style="fill:#263238;" cx="255.5" cy="460.5" r="15"/>
	<circle style="fill:#263238;" cx="255.5" cy="409.5" r="15"/>
	<circle style="fill:#263238;" cx="255.5" cy="358.5" r="15"/>
	<circle style="fill:#263238;" cx="255.5" cy="307.5" r="15"/>
	<circle style="fill:#263238;" cx="255.5" cy="256.5" r="15"/>
	<circle style="fill:#263238;" cx="255.5" cy="205.3" r="15"/>
	<circle style="fill:#263238;" cx="255.5" cy="154.1" r="15"/>
	<circle style="fill:#263238;" cx="255.5" cy="102.9" r="15"/>
	<circle style="fill:#263238;" cx="255.5" cy="51.7" r="15"/>
	<path style="fill:#263238;" d="M255.5,15.5c8.284,0,15-6.716,15-15c0-0.2,0-0.5,0-0.5h-30c0,0,0,0.3,0,0.5
		C240.5,8.784,247.216,15.5,255.5,15.5z"/>
	<path style="fill:#263238;" d="M345.2,118.5L345.2,118.5L213.6,250.1l21.2,21.2L216,290.1c-26.52-14.811-60.025-5.32-74.837,21.2
		c-14.811,26.52-5.32,60.025,21.2,74.837s60.025,5.32,74.837-21.2c9.309-16.667,9.309-36.97,0-53.637l108-108
		C368.596,179.875,368.596,141.925,345.2,118.5z M206.9,355.8c-9.775,9.751-25.605,9.731-35.355-0.045
		c-9.751-9.775-9.731-25.605,0.045-35.355c9.758-9.733,25.553-9.733,35.311,0c9.775,9.751,9.795,25.58,0.045,35.355
		C206.93,355.77,206.915,355.785,206.9,355.8z"/>
</g>
<path style="fill:#455A64;" d="M361.7,299.2c-17.417-17.351-44.222-21.064-65.7-9.1l-18.8-18.8l21.2-21.2L166.8,118.5l0,0
	c-23.444,23.418-23.466,61.408-0.047,84.853c0.016,0.016,0.031,0.031,0.047,0.047l108,108
	c-14.769,26.543-5.225,60.034,21.318,74.803c26.543,14.769,60.034,5.225,74.803-21.318C382.881,343.391,379.116,316.57,361.7,299.2z
	 M340.5,355.8c-9.775,9.751-25.605,9.731-35.355-0.045c-9.751-9.775-9.731-25.605,0.045-35.355c9.758-9.733,25.553-9.733,35.311,0
	c9.748,9.778,9.723,25.607-0.055,35.355c-0.015,0.015-0.03,0.03-0.045,0.045L340.5,355.8z"/>
<circle style="fill:#CFD8DC;" cx="256" cy="241.2" r="15"/>
<g>
</g>
<g>
</g>
<g>
</g>
<g>
</g>
<g>
</g>
<g>
</g>
<g>
</g>
<g>
</g>
<g>
</g>
<g>
</g>
<g>
</g>
<g>
</g>
<g>
</g>
<g>
</g>
<g>
</g>
</svg>
