<?xml version="1.0" encoding="utf-8"?>
<!-- Generator: Adobe Illustrator 17.1.0, SVG Export Plug-In . SVG Version: 6.00 Build 0)  -->
<!DOCTYPE svg PUBLIC "-//W3C//DTD SVG 1.1//EN" "http://www.w3.org/Graphics/SVG/1.1/DTD/svg11.dtd">
<svg version="1.1" id="Capa_1" xmlns="http://www.w3.org/2000/svg" xmlns:xlink="http://www.w3.org/1999/xlink" x="0px" y="0px"
	 viewBox="0 0 405.1 405.1" enable-background="new 0 0 405.1 405.1" xml:space="preserve">
<g>
	<g>
		<path d="M204.2,107c-4.8,0-8.7,3.9-8.7,8.7v183.9l-30.3-30.5c-3.4-3.4-8.9-3.4-12.3,0c-3.4,3.4-3.4,8.9,0,12.3l45.2,45.4
			c0,0,0,0,0,0c3.4,3.4,8.9,3.4,12.3,0c0,0,0,0,0,0l45.2-45.4c3.4-3.4,3.4-8.9,0-12.3c-3.4-3.4-8.9-3.4-12.3,0l-30.3,30.5V115.7
			C212.9,110.9,209,107,204.2,107z"/>
	</g>
</g>
<rect x="51.2" y="46.6" stroke="#000000" stroke-width="6" stroke-miterlimit="10" width="306.1" height="75.3"/>
</svg>
