<svg height="512" viewBox="0 0 60 54" width="512" xmlns="http://www.w3.org/2000/svg"><g id="002---Rug" fill="none" transform="translate(-1)"><g fill="#c03a2b"><path id="Shape" d="m60 4.53c-.54 0-1.81-.89-5.22-1.64-.5273684-.11058105-.8722945-.61912591-.78-1.15.0614805-.2611987.2253561-.48672969.4547866-.62589244.2294304-.13916275.5051637-.18027971.7652134-.11410756 1.7802997.39969642 3.5182324.96896144 5.19 1.7.3509357.22757086.5231667.6495087.4317243 1.05765407s-.4272378.7162631-.8417243.77234593z"/><path id="Shape" d="m60 10.27c-.54 0-1.81-.88-5.22-1.64-.2595491-.03802485-.4914024-.1827746-.63953-.39926892-.1481277-.21649431-.1990533-.48503673-.14047-.74073108.1374824-.52172543.6640519-.84032211 1.19-.72 1.7793126.38982873 3.5172349.94904458 5.19 1.67.3496705.22345397.5250023.63964709.4406331 1.04595115-.0843691.40630405-.4109062.71828395-.8206331.78404885z"/><path id="Shape" d="m60 16c-.54 0-1.81-.89-5.22-1.64-.5183711-.1104468-.8605365-.6061479-.78-1.13.1374824-.5217254.6640519-.8403221 1.19-.72 1.7796093.3932367 3.5175238.9557986 5.19 1.68.3350778.2279677.4994304.6356338.4161607 1.0322603-.0832696.3966264-.397694.7037759-.7961607.7777397z"/><path id="Shape" d="m60 21.76c-.54 0-1.81-.89-5.22-1.64-.5139582-.1102988-.8547815-.5996861-.78-1.12.1418306-.5176851.6670681-.8310621 1.19-.71 1.7793126.3898287 3.5172349.9490446 5.19 1.67.3281336.2299194.4873549.6334983.4045936 1.0255253-.0827612.392027-.3915254.696809-.7845936.7744747z"/><path id="Shape" d="m60 33.25c-.54 0-1.81-.89-5.22-1.64-.5273684-.110581-.8722945-.6191259-.78-1.15.1374824-.5217254.6640519-.8403221 1.19-.72 1.7796093.3932367 3.5175238.9557986 5.19 1.68.3496705.223454.5250023.6396471.4406331 1.0459511-.0843691.4063041-.4109062.718284-.8206331.7840489z"/><path id="Shape" d="m60 39c-.54 0-1.81-.89-5.22-1.64-.5273684-.110581-.8722945-.6191259-.78-1.15.1374824-.5217254.6640519-.8403221 1.19-.72 1.7793126.3898287 3.5172349.9490446 5.19 1.67.3573677.2208464.5386016.6415057.4536347 1.0529246-.0849669.4114188-.4180166.7258673-.8336347.7870754z"/><path id="Shape" d="m60 44.73c-.54 0-1.81-.88-5.22-1.63-.5052994-.1098471-.8435122-.5868138-.78-1.1.1374824-.5217254.6640519-.8403221 1.19-.72 1.7793126.3898287 3.5172349.9490446 5.19 1.67.3148542.2333018.4644237.6290071.3826094 1.0122425-.0818143.3832353-.3799331.6833667-.7626094.7677575z"/><path id="Shape" d="m60 50.48c-.54 0-1.81-.89-5.22-1.64-.5273684-.110581-.8722945-.6191259-.78-1.15.1504801-.5241937.6932179-.8311519 1.22-.69 1.7796093.3932367 3.5175238.9557986 5.19 1.68.3288225.2341604.4846103.6430611.3949579 1.0366571-.0896524.3935959-.4071613.6946901-.8049579.7633429z"/><path id="Shape" d="m60 27.5c-.54 0-1.81-.88-5.22-1.63-.5273684-.110581-.8722945-.6191259-.78-1.15.0659011-.2575067.2316107-.4781813.4605245-.6132779.2289138-.1350967.5021944-.1734983.7594755-.1067221 1.7793126.3898287 3.5172349.9490446 5.19 1.67.3509357.2275709.5231667.6495087.4317243 1.0576541-.0914424.4081453-.4272378.7162631-.8417243.7723459z"/><path id="Shape" d="m6.78 7c-1.77857727-.38354306-3.51646515-.93605077-5.19-1.65-.23873884-.09437444-.42784877-.28323584-.52253707-.52185037s-.08653198-.50575619.02253707-.73814963c.23467553-.49408047.82277364-.70793433 1.32-.48 1.55016626.66905848 3.16085485 1.18809535 4.81 1.55.43520388-.04173144.84706423.20409195 1.01690824.60695289s.05829173.86935229-.27542936 1.15179549-.81223457.3153511-1.18147888.08125162z"/><path id="Shape" d="m6.78 12.77c-1.7793126-.3898287-3.51723491-.9490446-5.19-1.67-.47456648-.2261102-.69304673-.78105-.5-1.27.23467553-.49408047.82277364-.70793433 1.32-.48 1.55016626.6690585 3.16085485 1.1880953 4.81 1.55.42476151-.0215927.81670729.2278489.9770151.6217905.1603078.3939416.05389873.8461801-.2652491 1.1273087-.31914784.2811285-.78119783.3296299-1.151766.1209008z"/><path id="Shape" d="m6.78 18.51c-1.7793126-.3898287-3.51723491-.9490446-5.19-1.67-.23941323-.0965264-.428595-.287262-.52315987-.5274567-.09456487-.2401948-.08618994-.5087086.02315987-.7425433.23467553-.4940805.82277364-.7079343 1.32-.48 1.55157763.6677968 3.16182675 1.1900397 4.81 1.56.42852331-.0285774.82743996.2196574.99109315.6167298.16365319.3970725.05549206.8542991-.26872219 1.135962-.32421426.281663-.79207051.3248547-1.16237096.1073082z"/><path id="Shape" d="m6.78 24.26c-1.77960926-.3932367-3.51752383-.9557986-5.19-1.68-.23873884-.0943744-.42784877-.2832358-.52253707-.5218504-.0946883-.2386145-.08653198-.5057562.02253707-.7381496.23467553-.4940805.82277364-.7079343 1.32-.48 1.55016626.6690585 3.16085485 1.1880953 4.81 1.55.42476151-.0215927.81670729.2278489.9770151.6217905.1603078.3939416.05389873.8461801-.2652491 1.1273087-.31914784.2811285-.78119783.3296299-1.151766.1209008z"/><path id="Shape" d="m6.78 35.74c-1.7793126-.3898287-3.51723491-.9490446-5.19-1.67-.23941323-.0965264-.428595-.287262-.52315987-.5274567-.09456487-.2401948-.08618994-.5087086.02315987-.7425433.23834479-.4902656.82544327-.6993083 1.32-.47 1.55183985.6645972 3.16210092 1.1834963 4.81 1.55.42852331-.0285774.82743996.2196574.99109315.6167298.16365319.3970725.05549206.8542991-.26872219 1.135962-.32421426.281663-.79207051.3248547-1.16237096.1073082z"/><path id="Shape" d="m6.78 41.49c-1.77960926-.3932367-3.51752383-.9557986-5.19-1.68-.23873884-.0943744-.42784877-.2832358-.52253707-.5218504-.0946883-.2386145-.08653198-.5057562.02253707-.7381496.23467553-.4940805.82277364-.7079343 1.32-.48 1.55016626.6690585 3.16085485 1.1880953 4.81 1.55.42476151-.0215927.81670729.2278489.9770151.6217905.1603078.3939416.05389873.8461801-.2652491 1.1273087-.31914784.2811285-.78119783.3296299-1.151766.1209008z"/><path id="Shape" d="m6.78 47.23c-1.7793126-.3898287-3.51723491-.9490446-5.19-1.67-.47456648-.2261102-.69304673-.78105-.5-1.27.23467553-.4940805.82277364-.7079343 1.32-.48 1.55157763.6677968 3.16182675 1.1900397 4.81 1.56.42852331-.0285774.82743996.2196574.99109315.6167298.16365319.3970725.05549206.8542991-.26872219 1.135962-.32421426.281663-.79207051.3248547-1.16237096.1073082z"/><path id="Shape" d="m6.78 53c-1.78029974-.3996964-3.51823237-.9689614-5.19-1.7-.24951903-.0931557-.44712327-.2888214-.54273425-.5374099s-.08005186-.5262402.04273425-.7625901c.23467553-.4940805.82277364-.7079343 1.32-.48 1.55183985.6645972 3.16210092 1.1834963 4.81 1.55.39032456.0316534.72625341.2882282.85950142.6564675.133248.3682393.03929098.7803689-.24039673 1.0544674-.27968771.2740986-.69362981.3597183-1.05910469.2190651z"/><path id="Shape" d="m6.78 30c-1.7793126-.3898287-3.51723491-.9490446-5.19-1.67-.47456648-.2261102-.69304673-.78105-.5-1.27.23467553-.4940805.82277364-.7079343 1.32-.48 1.55016626.6690585 3.16085485 1.1880953 4.81 1.55.42476151-.0215927.81670729.2278489.9770151.6217905.1603078.3939416.05389873.8461801-.2652491 1.1273087-.31914784.2811285-.78119783.3296299-1.151766.1209008z"/></g><path id="Shape" d="m55 .84v48c-15.84-3.69-31.91 8-48 4.32v-48c15.91 3.71 31.84-7.98 48-4.32z" fill="#e64c3c"/><path id="Shape" d="m52.31 48.36c-1.0333333-.1333333-2.0633333-.2133333-3.09-.24-14.13-14.56-28.15-20.12-42.22-36.65v-3.24c11.68 14.41 24.8 21.77 35 30.46 3.6358824 3.0041295 7.0793383 6.2338306 10.31 9.67z" fill="#f3d55b"/><path id="Shape" d="m55 23.41v3.24c-8.75-10.5-14.88-14.95-25.77-23.21.17 0 1.46-.37 2.6-.65.75.58 6.89 5.12 10.21 7.94 4.6638137 3.860338 8.998733 8.1016016 12.96 12.68z" fill="#f3d55b"/><path id="Shape" d="m24 52.66c-.9.19-1.78.36-2.67.52-5.1818985-4.1487494-9.9780884-8.7575097-14.33-13.77v-3.25c5.0369254 6.1137057 10.7386951 11.6477762 17 16.5z" fill="#f3d55b"/><path id="Shape" d="m45 7.3c3.589535 3.2610616 6.9320518 6.7840742 10 10.54v-3.25c-2.6735352-3.1157016-5.5355704-6.06456625-8.57-8.83 1.76-1.9 3.57-3.76 5.39-5.46-.94-.1-1.88-.16-2.82-.18-1.35 1.31-2.72 2.74-4.11 4.25-1.38-1.22-2.78-2.37-4.18-3.55-.89.16-1.78.33-2.68.52 1.9 1.5 3.71 3 5.46 4.57-4.1 4.59-8.36 9.88-12.66 15.24-4.13-3.1-8.25-6.23-12.33-9.83 2-2.27 4-4.56 5.78-6.72-1.07.23-2.15.44-3.22.61-.07 0-1.64 2-4.09 4.74-1.4-1.29-2.8-2.64-4.19-4.07-1.0266667 0-2.0566667-.08-3.09-.24 0 .1 2.91 3.09 5.89 5.84-2.6738607 2.943478-5.5401618 5.7062181-8.58 8.27v2.67c3.6135897-2.9152371 6.9907995-6.1118832 10.1-9.56 4 3.52 8.33 6.83 12.43 9.91-4.21 5.23-8.44 10.46-12.6 15.09-3.5755156-3.2425917-6.8953784-6.7563639-9.93-10.51v3.24c2.68415684 3.0902242 5.5456483 6.0218339 8.57 8.78-2.6698671 2.956362-5.5328129 5.7324506-8.57 8.31v2.67c3.6247719-2.9060665 7.0029558-6.1069794 10.1-9.57 3.81 3.42 5.36 4.53 12.42 9.93l-.66.82 3.91-1-.29-.22c2.27-2.89 8.29-10.33 12.57-15.1 3.5762767 3.2660216 6.9022916 6.7959429 9.95 10.56v-3.24c-2.6617905-3.1199188-5.5174435-6.0690902-8.55-8.83 2.6730547-2.9307902 5.5287521-5.6896277 8.55-8.26v-2.68c-3.5785442 2.9479679-6.949851 6.138848-10.09 9.55-4.13-3.64-8.28-6.8-12.43-9.92 4.14-5.16 8.52-10.56 12.52-15.09zm-1.49 26.54c-4.31 4.77-8.32 9.85-12.68 15.25-4.34-3.28-8.39-6.36-12.35-9.84 4.17-4.65 8.41-9.89 12.7-15.24 4.14 3.12 8.25 6.24 12.33 9.83z" fill="#285680"/><path id="Shape" d="m55 3.65v2.67c-13.52 11.18-29 34.92-42 47.56-.94 0-1.88-.06-2.82-.18 14.63-13.7 30.1-38.7 44.82-50.05z" fill="#f9eab0"/><path id="Shape" d="m55 31.58v2.67c-5.0741647 4.4370922-9.7580295 9.3016203-14 14.54-1.08.17-2.16.38-3.24.61 5.01-6.06 11.04-12.99 17.24-17.82z" fill="#f9eab0"/><path id="Shape" d="m33.13 2.47c-9.56 11.91-16.46 20.86-26.13 28.77v-2.68c3.5654522-3.0210741 6.9075203-6.2963009 10-9.8 4.47-5 12-14.33 12.85-15.46z" fill="#f9eab0"/></g></svg>