<?xml version="1.0" encoding="utf-8"?>
<!-- Generator: Adobe Illustrator 17.1.0, SVG Export Plug-In . SVG Version: 6.00 Build 0)  -->
<!DOCTYPE svg PUBLIC "-//W3C//DTD SVG 1.1//EN" "http://www.w3.org/Graphics/SVG/1.1/DTD/svg11.dtd">
<svg version="1.1" id="Capa_1" xmlns="http://www.w3.org/2000/svg" xmlns:xlink="http://www.w3.org/1999/xlink" x="0px" y="0px"
	 viewBox="0 0 512 512" enable-background="new 0 0 512 512" xml:space="preserve">
<g>
	<path id="SVGCleanerId_0" fill="#8A8990" d="M448.1,46.5c-29-18.6-79.9-13.6-113.5-10.3c-3.6,0.4-6.9,0.7-10,1
		c-26.9,2.4-43.7,14.1-49.7,18.9c-7.7-1.3-29.5-4.4-47.1,0.6c-17,4.8-22.6,21.4-23.6,32.3c-4.5,2.8-10,10.1-14.1,27.8
		c-0.2,1-0.5,2.1-0.8,3.3c-7.7,32.2-28.1,117.8,10.1,145.7c10.9,8,19.9,10.6,27,10.6c8.5,0,14.1-3.7,16.9-6.2
		c8.9-7.8,11.8-22.1,6.5-31.7c-1.3-2.4-4.1-3.5-6.7-2.7l-11.4,3.6c-2.5,0.8-4.1,3.1-4,5.8c0.1,1.3-0.3,3.8-1.1,4.6
		c0,0-0.1,0.1-0.4,0.1c-0.6-0.1-3.9-1.1-7.1-6c-10.2-15.5-4.7-46.9,0.1-66.3c8.6-2.2,29.2-8.6,37.3-21.1l9.9-1.1
		c0.4,0,0.9-0.1,1.3-0.3c2.2,3.8,6.9,8.1,16.8,7.2c2-0.2,3.8-0.4,5.3-0.6l9.7,84.8c-16.7,12.7-13.6,23.9-13.2,25.2
		c0.8,2.4,3,3.9,5.4,3.9h45.8c3.2,0,5.7-2.6,5.7-5.7v-54.6c2.5-5.5,5-12.1,7.4-18.8c13.3,3.8,25.1,5,34.9,5c12.7,0,22-2.1,27.1-3.6
		c3.3,4.1,6.1,7.3,7.8,9.1V248c-8.4,8.4-12.8,19.1-13,19.6c-0.7,1.8-0.5,3.8,0.5,5.4c1.1,1.6,2.8,2.5,4.8,2.5h50.5
		c1.8,0,3.4-0.8,4.5-2.2c1.1-1.4,1.5-3.2,1-4.9c-0.1-0.4-10.6-43.7,15.8-100.6C507.5,118.4,494.9,76.5,448.1,46.5z"/>
	<g>
		<path id="SVGCleanerId_0_1_" fill="#8A8990" d="M448.1,46.5c-29-18.6-79.9-13.6-113.5-10.3c-3.6,0.4-6.9,0.7-10,1
			c-26.9,2.4-43.7,14.1-49.7,18.9c-7.7-1.3-29.5-4.4-47.1,0.6c-17,4.8-22.6,21.4-23.6,32.3c-4.5,2.8-10,10.1-14.1,27.8
			c-0.2,1-0.5,2.1-0.8,3.3c-7.7,32.2-28.1,117.8,10.1,145.7c10.9,8,19.9,10.6,27,10.6c8.5,0,14.1-3.7,16.9-6.2
			c8.9-7.8,11.8-22.1,6.5-31.7c-1.3-2.4-4.1-3.5-6.7-2.7l-11.4,3.6c-2.5,0.8-4.1,3.1-4,5.8c0.1,1.3-0.3,3.8-1.1,4.6
			c0,0-0.1,0.1-0.4,0.1c-0.6-0.1-3.9-1.1-7.1-6c-10.2-15.5-4.7-46.9,0.1-66.3c8.6-2.2,29.2-8.6,37.3-21.1l9.9-1.1
			c0.4,0,0.9-0.1,1.3-0.3c2.2,3.8,6.9,8.1,16.8,7.2c2-0.2,3.8-0.4,5.3-0.6l9.7,84.8c-16.7,12.7-13.6,23.9-13.2,25.2
			c0.8,2.4,3,3.9,5.4,3.9h45.8c3.2,0,5.7-2.6,5.7-5.7v-54.6c2.5-5.5,5-12.1,7.4-18.8c13.3,3.8,25.1,5,34.9,5c12.7,0,22-2.1,27.1-3.6
			c3.3,4.1,6.1,7.3,7.8,9.1V248c-8.4,8.4-12.8,19.1-13,19.6c-0.7,1.8-0.5,3.8,0.5,5.4c1.1,1.6,2.8,2.5,4.8,2.5h50.5
			c1.8,0,3.4-0.8,4.5-2.2c1.1-1.4,1.5-3.2,1-4.9c-0.1-0.4-10.6-43.7,15.8-100.6C507.5,118.4,494.9,76.5,448.1,46.5z"/>
	</g>
	<g>
		<path fill="#666568" d="M506.3,197.9C506.2,197.9,506.2,197.9,506.3,197.9c-3.2,0-5.8-2.6-5.7-5.8c0.6-69.4-16.5-84.7-16.7-84.8
			c-2.5-1.9-2.9-5.5-1-8c1.9-2.5,5.5-2.9,8-1c2.2,1.7,21.8,19.1,21.1,94C512,195.4,509.4,197.9,506.3,197.9z"/>
		<path fill="#666568" d="M448.1,46.5c-19-12.2-47.3-14.3-74.1-13.3c19.8,0.8,38.9,4.3,53,13.3c46.8,30,59.4,71.9,36.5,121.2
			c-26.5,56.9-15.9,100.2-15.8,100.6c0.4,1.7,0.1,3.5-1,4.9c-1.1,1.4-2.8,2.2-4.5,2.2h21.1c1.8,0,3.4-0.8,4.5-2.2
			c1.1-1.4,1.5-3.2,1-4.9c-0.1-0.4-10.6-43.7,15.8-100.6C507.5,118.4,494.9,76.5,448.1,46.5z"/>
		<path fill="#666568" d="M256.6,156.3l9.8-1.1c0.4,0,0.8-0.1,1.1-0.3l-10.5-62.7C257.1,92.3,252.7,136.2,256.6,156.3z"/>
		<path fill="#666568" d="M199.6,172.6c-23.8,77.8,22.8,77.1,26.6,77.1c-0.6-0.1-3.9-1.1-7.1-6c-10.2-15.5-4.7-46.9,0.1-66.3
			c0.2,0,0.3-0.1,0.5-0.1c0.3-1.5,0.6-2.9,0.8-4.5C211.7,173.1,199.6,172.6,199.6,172.6z"/>
	</g>
	<path fill="#D9D9DB" d="M220.2,146.6c-2.1-1.7-5-1.8-7.2-0.2c-13.2,10.1-46.4,28-46.7,28.2c-2.2,1.2-3.4,3.7-2.9,6.2
		c0.5,2.5,2.6,4.3,5.1,4.6c2.8,0.3,5.5,0.4,8.2,0.4c20.6,0,38.1-7,40.1-7.8c9.1-3.3,11.8-8.6,12.5-12.4
		C230.9,156,221.3,147.5,220.2,146.6z"/>
	<path fill="#666568" d="M289.7,161.5c0,0,0.1,0,0.1,0l2,17.9c13.1-5.4,36.2-22.8,40.8-38.3c4.5-19.8,0.2-31.8-6.6-39
		c1.3,6.3,1.2,14.1-1,23.7C321.3,138.5,301.3,154.6,289.7,161.5z"/>
	<path fill="#8A8990" d="M324.5,84.9c-11.8-14.8-31.8-15-32.7-15c-3.2,0-5.7,2.6-5.7,5.7c0,0.9,0.2,1.7,0.6,2.5l-24.4,11.6
		c-1-2-3.1-3.4-5.5-3.3c-3.2,0.2-5.6,2.9-5.4,6c0,0.6,0.9,15.7,3.5,32c5.1,31.5,12.1,38.7,16.9,41.4c2.6,1.5,5.7,2.2,9.2,2.2
		c4.1,0,8.8-1,13.7-3c13.9-5.7,30.4-19.6,35.8-37.7c0-0.1,0.1-0.2,0.1-0.4C334.6,109.3,332.6,95.1,324.5,84.9z"/>
	<path fill="#666568" d="M361.1,163.2c0.4-1.4-1.4-2.4-2.3-1.2c-9.6,12.2-29.4,36.6-36.5,51.9v61.6h15.3c3.2,0,5.7-2.6,5.7-5.7
		v-54.6c2.5-5.5,5-12.1,7.4-18.8c0.1,0,0.2,0,0.3,0.1C354.5,183.9,358.6,171,361.1,163.2z"/>
	<path fill="#2B2B2B" d="M223.5,126.5c-3.7,0-6.6-3-6.6-6.6c0-3.7,3-6.6,6.6-6.6c3.7,0,6.6,3,6.6,6.6
		C230.2,123.5,227.2,126.5,223.5,126.5z"/>
</g>
<g id="Flat">
	<path fill="#F79D16" d="M95.8,271.2l-5.3-29.6l4.8-0.9l5.3,29.6L95.8,271.2z"/>
	<path fill="#F79D16" d="M88.4,268.3h24.5v4.9H88.4V268.3z"/>
	<path fill="#F79D16" d="M95.7,261c-2.7,0-4.9-2.2-4.9-4.9c0-2.7,2.2-4.9,4.9-4.9c2.7,0,4.9,2.2,4.9,4.9
		C100.6,258.8,98.4,261,95.7,261z"/>
	<g>
		<path fill="#FFB531" d="M81.1,271.2l-5.3-29.6l4.8-0.9l5.3,29.6L81.1,271.2z"/>
		<path fill="#FFB531" d="M73.7,268.3h24.5v4.9H73.7V268.3z"/>
		<path fill="#FFB531" d="M81,261c-2.7,0-4.9-2.2-4.9-4.9c0-2.7,2.2-4.9,4.9-4.9c2.7,0,4.9,2.2,4.9,4.9C85.9,258.8,83.7,261,81,261z
			"/>
		<path fill="#FFB531" d="M147.2,165.4v-14.7l17.2,7.4L147.2,165.4z"/>
	</g>
	<path fill="#4DB7E5" d="M147.2,149.3v38.2c0,31.1-25.2,56.4-56.4,56.4H40l20.5-31.2L93.3,163l16-24.8c6.2-9.6,18.9-12.3,28.5-6.2
		C143.6,135.7,147.2,142.3,147.2,149.3z"/>
	<path fill="#48ADD9" d="M147.2,174.4v13.1c0,31.1-25.2,56.4-56.4,56.4H40l20.5-31.2h9.3c25.8,0,50.6-10.2,68.9-28.5
		C141.7,181.1,144.6,177.8,147.2,174.4L147.2,174.4z"/>
	<circle fill="#313B4C" cx="127.6" cy="148.3" r="4.9"/>
	<path fill="#2D7DBF" d="M49.7,229.1L40,243.8l-17.8,27h17.2l18-27l9.8-14.7H49.7z"/>
	<path fill="#348FD9" d="M130,163c0,10.2-2.3,20.3-6.9,29.4c-0.8,1.7-1.7,3.3-2.7,4.9c-1,1.7-2.1,3.3-3.3,4.9
		c-1.2,1.7-2.6,3.3-4,4.9c-1.5,1.7-3.2,3.4-4.9,4.9c-1.9,1.8-4,3.4-6.1,4.9c-11.2,8-24.6,12.3-38.4,12.3H49.7l8.1-12.3L61,212
		l3.2-4.9l3.2-4.9l3.2-4.9l3.2-4.9L93.3,163H130z"/>
	<path fill="#2A71AD" d="M108.3,212c-1.9,1.8-4,3.4-6.1,4.9H57.8L61,212H108.3z"/>
	<path fill="#2A71AD" d="M117.2,202.2c-1.2,1.7-2.6,3.3-4,4.9h-49l3.2-4.9H117.2z"/>
	<path fill="#2A71AD" d="M123.2,192.4c-0.8,1.7-1.7,3.3-2.7,4.9H70.7l3.2-4.9H123.2z"/>
</g>
<g>
	<path fill="#FFBB64" d="M231.3,302.9c-1.6-2-2.9-3.8-3.7-4.8c-3-4.3-12.8-6.2-19.1-7.1v-18.7c0-1.1-0.5-2.1-1.3-2.7
		c-0.8-0.7-1.9-1-2.9-0.8c-1,0.2-23,4.4-30.3,25.4c-4.5,2.1-16.4,9.3-20.7,27.2c-0.7,2.8-1.2,5.9-1.8,9.2
		c-3.7,20.7-8.7,49.1-53.9,68c-30.9,13-41.4,44.2-38.7,70.3c-14.6-7.3-23.3-19.5-25.9-36.2c-3.3-21.4,1.6-37.9,14.6-48.9
		c10-8.5,21.5-10.9,21.5-10.9c6.1-1.1,10.1-7,9-13.1c-1.1-6.1-7-10.1-13.1-9c-0.7,0.1-16.7,3.2-31.3,15.3
		c-13.5,11.2-28.4,32.4-22.9,70c2.6,18.3,11.1,35.2,23.7,47.8c11.6,11.5,25.7,18.6,39.9,20c5.7,5.3,12.6,8.1,19.9,8.1h80.2
		c1.9,0,3.4-1.5,3.6-3.3c0-0.4,0.6-9.9-5.9-16.8c-3.8-4.1-9.1-6.3-15.8-6.7c8-4.4,13.1-10.6,15.3-18.4l12.6,35.5
		c2,5.8,7.5,9.6,13.6,9.6h26.6c2,0,3.6-1.6,3.6-3.6c0-7.4-3.9-13.7-11.1-18.1c-2.9-1.8-5.7-2.9-7.7-3.6v-39.8
		c9.7-12.3,14.3-25.9,13.7-40.3c-0.6-13.2-5.5-22.4-6.4-24.1l-0.4-0.7c-2.3-3.9-8.3-14.4-5.6-20.1c1.2-2.4,4-4,8.6-4.7
		c10.4-1.6,18-7.6,21.9-17.3c2-4.9,3-10.5,3-16.7C243.7,319.4,239.9,313.9,231.3,302.9z"/>
	<path fill="#6E563D" d="M215.3,319.3c-2.9,0-5.2-2.3-5.2-5.2s2.3-5.2,5.2-5.2c2.9,0,5.2,2.3,5.2,5.2
		C220.5,317,218.1,319.3,215.3,319.3z"/>
	<path fill="#FF3D43" d="M212.7,376.1c-3.3-6.8-3.4-10.8-3-12.9c0.2-1,0-2.1-0.7-2.9c-0.7-0.8-1.7-1.3-2.7-1.3
		c-18.8-0.4-31.4-5.8-38.8-10.2c-7.9-4.8-11.5-9.6-11.5-9.6c-0.8-1.1-2.2-1.7-3.6-1.4c-1.4,0.3-2.5,1.4-2.8,2.7
		c-1.4,6.5-3.1,11.8-5.3,16.8c-0.7,1.5-0.2,3.3,1.1,4.3c22.2,16.7,44.9,19.9,59,19.9c1.9,0,3.7-0.1,5.2-0.1c1.2-0.1,2.3-0.7,2.9-1.8
		C213.2,378.4,213.2,377.1,212.7,376.1z"/>
	<path fill="#D72E2E" d="M209.7,363.2c0.2-1,0-2.1-0.7-2.9c-0.7-0.8-1.7-1.3-2.7-1.3c-3.3-0.1-6.5-0.3-9.4-0.7
		c-1.9,0.8-3.2,2-3.8,3.4c-2.6,5.5,2.7,15.2,5.2,19.5c2.2,0.1,4.3,0.2,6.2,0.2c1.9,0,3.7-0.1,5.2-0.1c1.2-0.1,2.3-0.7,2.9-1.8
		c0.6-1,0.7-2.3,0.1-3.4C209.5,369.3,209.3,365.3,209.7,363.2z"/>
	<path fill="#F78819" d="M242.5,333.9c0.8-3.4,1.2-7.1,1.2-11c0-2.1-1.4-4.9-4.3-9.1c-2.6,1.8-6,6.5-6,9.1c0,0.8,0,2.8,4.5,7.3
		C240,332.2,241.4,333.3,242.5,333.9z"/>
	<path fill="#FFAD47" d="M212.6,379.4c-0.6,1-1.7,1.7-2.9,1.8c-1.6,0.1-3.3,0.1-5.2,0.1c-1.9,0-4-0.1-6.2-0.2
		c0.1,0.2,0.3,0.4,0.4,0.6l0.4,0.7c1,1.7,5.8,10.8,6.4,24.1c0.6,14.4-4,28-13.7,40.3v39.8c2,0.7,4.9,1.8,7.7,3.6
		c7.3,4.5,11.1,10.7,11.1,18.1c0,2-1.6,3.6-3.6,3.6h17.2c2,0,3.6-1.6,3.6-3.6c0-7.4-3.9-13.7-11.1-18.1c-2.9-1.8-5.7-2.9-7.7-3.6
		v-39.8c9.7-12.3,14.3-25.9,13.7-40.3c-0.6-13.2-5.5-22.4-6.4-24.1l-0.4-0.7c-1.1-1.8-3-5.1-4.4-8.7c0.4,0.9,0.8,1.9,1.3,3
		C213.2,377.1,213.2,378.4,212.6,379.4z"/>
	<path fill="#FFAD47" d="M177.9,508.7c0-0.4,0.6-9.9-5.9-16.8c-3.8-4.1-9.1-6.3-15.8-6.7h-13.8c0,0,23.2,10.6,14.4,26.4
		c-0.1,0.1,0.2,0.2,0.5,0.4h17C176.2,512,177.7,510.5,177.9,508.7z"/>
</g>
<g>
	<path fill="#DB4655" d="M437.7,372.2v40.4l62.1,18.3L482.9,395c-1.3-1.5-1.3-3.7,0-5.2l16.8-35.9L437.7,372.2z"/>
	<path fill="#DB4655" d="M352.9,440.8l28.8,18.3c2.8,1.8,6.1,2.4,9.3,1.6c8.1-2.1,16.1-4.9,23.8-8.3c2.2-1,3-3.8,1.7-5.8l-11.1-17.8
		L352.9,440.8z"/>
	<path fill="#E5646E" d="M332.7,356l68.6,8.1l25.2-19.8c2.1-1.7,1.9-5-0.5-6.3c-21.4-11.8-44.8-18.3-69.2-18.3
		c-2.3,0-4.5,0.1-6.8,0.2c-3.3,0.2-6.2,2.4-7.2,5.5L332.7,356z"/>
	<path fill="#FF8086" d="M314.5,347.4l0.4,85.6c44.4,9.4,113.1-9.1,139.7-36.7l-1.8-14.1c-26.3-26.5-59.6-42.3-95.8-42.3
		C342.2,339.9,328,342.5,314.5,347.4z"/>
	<path fill="#E5646E" d="M314.4,437.3c13.5,4.9,27.8,7.5,42.5,7.5c37.1,0,71-16.6,97.6-44.2c4.5-4.6,4.5-12,0-16.7
		c-0.6-0.6-1.2-1.3-1.8-1.9c-31.1,31.7-69.8,50.6-111.9,50.6c-7.5,0-14.8-0.6-22-1.8L314.4,437.3z"/>
	<path fill="#F6D190" d="M314.5,347.4c-20.4,7.4-39.1,20-55.1,36.6c-4.5,4.6-4.5,12,0,16.7c6.7,6.9,13.8,13.2,21.4,18.6
		c10.5,7.6,21.8,11.4,32.8,14.6l6.2-2.8c8.1-10.8,13-24.2,13-38.8C332.7,374.9,325.7,359,314.5,347.4L314.5,347.4z"/>
	<circle fill="#4B3F4E" cx="304.5" cy="384.3" r="8.1"/>
	<path fill="#ECBD83" d="M314.4,437.3c1.9-1.9,3.7-4,5.3-6.2c-13.4-2.1-26.7-6.2-39-11.8C291.2,426.8,302.6,433,314.4,437.3z"/>
	<path fill="#BD4150" d="M471.3,391.9v0.9c0,17.6,11.6,33,28.4,38c3,0.9,5.9-1.9,5.1-4.9c-4.1-15.1-12.4-26.2-16.4-31
		c-1.3-1.5-1.3-3.7,0-5.2c4-4.8,12.3-15.9,16.4-31c0.8-3-2.1-5.8-5.1-4.9C482.9,358.9,471.4,374.3,471.3,391.9z"/>
</g>
</svg>
