<?xml version="1.0" encoding="utf-8"?>
<!-- Generator: Adobe Illustrator 17.1.0, SVG Export Plug-In . SVG Version: 6.00 Build 0)  -->
<!DOCTYPE svg PUBLIC "-//W3C//DTD SVG 1.1//EN" "http://www.w3.org/Graphics/SVG/1.1/DTD/svg11.dtd">
<svg version="1.1" id="Capa_1" xmlns="http://www.w3.org/2000/svg" xmlns:xlink="http://www.w3.org/1999/xlink" x="0px" y="0px"
	 viewBox="0 0 3000 4000" enable-background="new 0 0 3000 4000" xml:space="preserve">
<polygon fill="#008AC1" points="968.4,1323.3 755.7,1197.2 1003.5,1064.8 1343.9,1085.1 1323.3,1260.1 "/>
<path fill="#E3E8EC" d="M2747.4,905.7c-151.6,142.2-318.6,267-498.7,370.9c-88.2,50.9-193.5,106.6-323.1,165.9l-594.6,230.5
	c-151,50.3-321.1,102-513.4,154.5l-231.3,51c-61.8,3.2-122.2-23.1-162.1-72L103,1411.9l85.6-45.7c56.1-29.9,124.2-26,176.3,10.2
	l86.1,59.8c98.2,68.2,227.6,70.9,328.6,6.9l1377.4-873.9c96-60.9,216.3-69.8,320.3-23.8l62.1,27.5l95,42.1l69,30.6
	c34.1,15.1,59.5,40.1,75.3,69.5C2810.6,775.2,2802.7,853.7,2747.4,905.7z"/>
<path fill="#D5D8DB" d="M2778.5,715.2c32.1,60,24.2,138.5-31.1,190.5c-151.6,142.2-318.6,267-498.7,370.9
	c-88.2,50.9-193.5,106.6-323.1,165.9L1331,1673.1c-151,50.3-321.1,101.9-513.4,154.5l-231.3,50.9c-61.8,3.2-122.2-23.1-162.1-72
	C1270.5,1701.9,2845,837.9,2703.3,645.7C2737.4,660.8,2762.8,685.8,2778.5,715.2z"/>
<g>
	<path fill="#008AC1" d="M2634.3,615.1L2443.7,717c-6.1,3.3-12.7,4.8-19.3,4.8c-14.6,0-28.8-7.8-36.2-21.6
		c-10.7-19.9-3.1-44.8,16.8-55.5l134.3-71.8L2634.3,615.1z"/>
	<polygon fill="#008AC1" points="1334.9,1599.6 2029.6,1264.6 1549.3,2085.7 1301.6,2218.1 	"/>
	<polygon fill="#008AC1" points="595.3,1822.2 893.1,1681.2 691.9,2070.9 542.5,2150.8 	"/>
	<path fill="#008AC1" d="M993.6,1586.5c-36.7,0-54.7-46.7-27.5-71.3c13.5-12.2,34-14,49.4-4.2c14.2,8.9,21.6,26.2,18.3,42.6
		C1029.9,1572.5,1012.9,1586.5,993.6,1586.5z"/>
	<path fill="#008AC1" d="M1079.1,1499.8c-13.7-25.7,4.1-58.1,33.1-60.2c29.1-2.1,51.5,27.3,41.6,54.8c-5.8,16-21.4,27.1-38.5,27.1
		C1100.3,1521.5,1086.2,1513,1079.1,1499.8z M1200.9,1434.7c-13.8-25.7,4-58.1,33.1-60.2c29.1-2.1,51.5,27.4,41.6,54.8
		c-5.8,16-21.4,27.1-38.5,27.1C1222.1,1456.4,1208,1447.9,1200.9,1434.7z M1322.6,1369.6c-13.7-25.7,4.1-58.1,33.1-60.2
		c29.1-2.1,51.5,27.3,41.6,54.8c-5.8,16-21.4,27.1-38.5,27.1C1343.8,1391.3,1329.7,1382.8,1322.6,1369.6z M1444.4,1304.6
		c-13.8-25.7,4-58.1,33.1-60.2c29.1-2.1,51.4,27.4,41.5,54.8c-5.8,16-21.4,27.1-38.5,27.1
		C1465.6,1326.2,1451.5,1317.8,1444.4,1304.6z M1566.1,1239.4c-13.7-25.7,4.1-58,33.1-60.2c29.1-2.2,51.5,27.3,41.6,54.8
		c-5.8,16-21.5,27.1-38.5,27.1C1587.3,1261.1,1573.2,1252.6,1566.1,1239.4z M1687.9,1174.4c-13.8-25.7,4-58.1,33.1-60.3
		c29.1-2.1,51.4,27.4,41.5,54.8c-5.8,16-21.4,27.1-38.5,27.1C1709.1,1196,1695,1187.6,1687.9,1174.4z M1809.6,1109.3
		c-13.7-25.7,4.1-58.1,33.1-60.2c29.1-2.2,51.5,27.3,41.6,54.8c-5.8,16-21.5,27.1-38.5,27.1
		C1830.8,1130.9,1816.7,1122.5,1809.6,1109.3z M1931.4,1044.2c-13.8-25.7,4-58.1,33.1-60.2c29.1-2.2,51.5,27.4,41.6,54.8
		c-5.8,16.1-21.4,27.1-38.5,27.1C1952.6,1065.8,1938.5,1057.4,1931.4,1044.2z M2053.1,979.1c-13.7-25.7,4.1-58.1,33.1-60.2
		c29.1-2.1,51.5,27.4,41.6,54.8c-5.8,16-21.5,27.1-38.5,27.1C2074.3,1000.7,2060.2,992.3,2053.1,979.1z"/>
	<path fill="#008AC1" d="M2211,935.6c-36.8,0-54.8-47.2-27.2-71.6c27.8-24.6,72.2-1,67.9,35.6C2249.3,920,2231.4,935.6,2211,935.6z"
		/>
</g>
<g>
	<rect x="1506.4" y="1792.9" fill="#9FA4AA" width="55.5" height="177.9"/>
	<g>
		<rect x="1029.6" y="2948.1" fill="#546263" width="55.5" height="237.9"/>
		<rect x="1368.3" y="2918.5" fill="#546263" width="55.5" height="267.6"/>
		<path fill="#546263" d="M1600.7,1940.1h-133c-22,0-39.9,17.8-39.9,39.9v172.9h212.7V1980C1640.6,1958,1622.7,1940.1,1600.7,1940.1
			z"/>
	</g>
	<path fill="#3F4C4C" d="M1543.6,1940.1h-75.9c-22,0-39.9,17.8-39.9,39.9v172.9h75.9V1980C1503.8,1958,1521.6,1940.1,1543.6,1940.1z
		"/>
	<rect x="1460.2" y="1702.9" fill="#546263" width="148" height="120.6"/>
	<rect x="1460.2" y="1702.9" fill="#3F4C4C" width="65.6" height="120.6"/>
	<path fill="#546263" d="M2498.8,2376.9l-4.4,4.4c-19.5,19.5-51.2,19.5-70.7,0l-380.5-380.5c-19.5-19.5-19.5-51.2,0-70.7l4.4-4.4
		c19.5-19.5,51.2-19.5,70.7,0l380.5,380.5C2518.4,2325.7,2518.4,2357.4,2498.8,2376.9z"/>
	<path fill="#EA1319" d="M2360.9,1949.9v320.6c0,27.6-20.2,51-47.4,55.1l-607.8,91v79.2c0,99.9-26.9,193.5-73.9,274
		c-23.7,40.7-52.5,77.9-85.6,111c-98.5,98.5-234.6,159.5-385,159.5c-22.9,0-45.3-1.7-67.3-4.9c-11.1-1.6-22-3.6-32.8-6
		c-10.5-2.3-20.9-5-31.1-8c-75.2-22.1-142.4-62.9-196.4-116.9c-83.8-83.8-135.7-199.7-135.7-327.7c0-14.7,0.7-29.2,2.1-43.5
		c17.8-191,151.5-348.4,330.1-400.9c10.2-3.1,20.6-5.7,31.1-8c10.8-2.4,21.7-4.4,32.8-6c22-3.2,44.4-4.9,67.3-4.9h1030.4l72.1-182.1
		c7.6-19.2,26.2-31.9,46.9-31.9l0,0C2338.4,1899.5,2360.9,1922,2360.9,1949.9z"/>
	<g>
		<path fill="#3F4C4C" d="M1029.6,2948.2h55.5v137.7c-8.1-1.3-16.1-2.9-24-4.6c-10.5-2.3-20.9-5-31.1-8c-0.1,0-0.3-0.1-0.4-0.1
			V2948.2z"/>
		<path fill="#3F4C4C" d="M1423.9,2918.5v106c-17.9,9.9-36.5,18.8-55.5,26.7v-132.7L1423.9,2918.5L1423.9,2918.5z"/>
	</g>
	<path fill="#D1111F" d="M1631.8,2769.7c-23.7,40.7-52.5,77.9-85.6,111c-98.5,98.5-234.6,159.5-385,159.5
		c-34.4,0-67.8-3.7-100.1-10.8c-87.8-19.3-166.2-63.5-227.6-124.9c-83.8-83.8-135.7-199.7-135.7-327.7c0-14.7,0.7-29.2,2.1-43.5
		l133.5-91.5c0,257.6,208.9,466.5,466.5,466.5C1429.7,2908.3,1547.2,2855.3,1631.8,2769.7z"/>
	<path fill="#C0EAF9" d="M1247.1,2576.9c0,115.3-30.3,223.5-83.5,317.1c-28.1,49.6-62.7,95.2-102.6,135.5
		c-87.8-19.3-166.2-63.5-227.6-124.9c-83.8-83.8-135.7-199.7-135.7-327.7c0-159.9,81-300.9,204.1-384.1
		c47.5-32.1,101.3-55.7,159.1-68.4h0C1176.1,2240.5,1247.1,2400.4,1247.1,2576.9z"/>
	<path fill="#A0D9F2" d="M1247.1,2576.9c0,115.3-30.3,223.5-83.5,317.1c-77.6-21.7-147-63.2-202.4-118.6
		c-83.8-83.8-135.7-199.7-135.7-327.7c0-94.2,28.1-181.8,76.4-254.9c47.5-32.1,101.3-55.7,159.1-68.4h0
		C1176.1,2240.5,1247.1,2400.4,1247.1,2576.9z"/>
	<g>
		<path fill="#D1111F" d="M1705.7,2416.5v-69c0-38.4,30.1-70.1,68.5-72.1l586.7-29.8l0,25c0,27.5-20.2,50.9-47.4,55L1705.7,2416.5z"
			/>
		<path fill="#D1111F" d="M1274.9,2576.9c0,171.6-64.1,333.7-181,458.5c-11.1-1.6-22-3.6-32.8-6c-10.5-2.3-20.9-5-31.1-8l11.4-11.5
			c114.8-116,178-269.8,178-433c0-163.3-63.2-317-178-433l-11.4-11.5c10.2-3.1,20.6-5.7,31.1-8c10.8-2.4,21.7-4.4,32.8-6
			C1210.8,2243.1,1274.9,2405.2,1274.9,2576.9z"/>
	</g>
	<path fill="#8C9093" d="M2370.1,1702.9c0,15.3-12.4,27.8-27.8,27.8H726.1c-15.3,0-27.8-12.4-27.8-27.8c0-15.3,12.4-27.8,27.8-27.8
		h1616.2C2357.7,1675.2,2370.1,1687.6,2370.1,1702.9z"/>
	<path fill="#9FA4AA" d="M2370.1,1702.9c0,15.3-12.4,27.8-27.8,27.8H1326c-15.3,0-27.8-12.4-27.8-27.8c0-15.3,12.4-27.8,27.8-27.8
		h1016.4C2357.7,1675.2,2370.1,1687.6,2370.1,1702.9z"/>
	<path fill="#A0D9F2" d="M1468.3,2617.7L1468.3,2617.7c-42.9,0-77.8-34.8-77.8-77.8v-155.5c0-42.9,34.8-77.8,77.8-77.8l0,0
		c42.9,0,77.8,34.8,77.8,77.8V2540C1546.1,2582.9,1511.3,2617.7,1468.3,2617.7z"/>
	<path fill="#D1111F" d="M1468.3,2645.5c-58.2,0-105.5-47.3-105.5-105.5v-155.5c0-58.2,47.3-105.5,105.5-105.5
		s105.5,47.3,105.5,105.5V2540C1573.9,2598.1,1526.5,2645.5,1468.3,2645.5z M1468.3,2334.5c-27.6,0-50,22.4-50,50V2540
		c0,27.6,22.4,50,50,50s50-22.4,50-50v-155.5C1518.3,2356.9,1495.9,2334.5,1468.3,2334.5z"/>
	<path fill="#546263" d="M1751.6,3223.1H831.1c-88.8,0-161.1-72.3-161.1-161.1c0-15.3,12.4-27.8,27.8-27.8s27.8,12.4,27.8,27.8
		c0,58.2,47.3,105.5,105.5,105.5h920.5c15.3,0,27.8,12.4,27.8,27.8C1779.4,3210.7,1766.9,3223.1,1751.6,3223.1z"/>
</g>
</svg>
