<svg height="512" viewBox="0 0 58 50" width="512" xmlns="http://www.w3.org/2000/svg"><g id="Page-1" fill="none" fill-rule="evenodd"><g id="004---Transgender" fill-rule="nonzero" transform="translate(0 -1)"><path id="Shape" d="m58 8.67-1-6c-.0806311-.53381949-.3736491-1.01236816-.8124536-1.32687609-.4388045-.31450794-.98612-.43825837-1.5175464-.34312391l-6 1c-.7145312.11789764-1.3118876.60803741-1.5670508 1.28578838-.2551632.67775098-.129368 1.44014667.33 2 .4593679.55985333 1.1825196.83210926 1.8970508.71421162l1.61-.27-3.73 4.88c-4.1549355-2.26975428-9.2153083-2.10120288-13.21.44-4.2681648-2.72739847-9.7318352-2.72739847-14 0-4.459213-2.84910499-10.20038887-2.71097501-14.51742545.3492824-4.31703657 3.0602574-6.34831406 8.4318579-5.13639023 13.5828986 1.21192382 5.1510408 5.42516599 9.0534465 10.65381568 9.867819v7.15h-3c-1.1045695 0-2 .8954305-2 2s.8954305 2 2 2h3v3c0 1.1045695.8954305 2 2 2s2-.8954305 2-2v-3h3c1.1045695 0 2-.8954305 2-2s-.8954305-2-2-2h-3v-7.16c1.7784665-.2511242 3.4829924-.8783898 5-1.84 4.2681648 2.7273985 9.7318352 2.7273985 14 0 5.5590203 3.6574364 12.9824051 2.5265812 17.2002143-2.6202269 4.2178092-5.146808 3.8681314-12.6476881-.8102143-17.3797731l3.49-4.57.15.88c.1523113.9708051.9873235 1.6871354 1.97 1.69h.33c.5338195-.0806311 1.0123682-.3736491 1.3268761-.8124536s.4382584-.98611996.3431239-1.5175464zm-31 4.33c1.335573-.0026325 2.6546905.2946816 3.86.87l-3.86 4.89-3.86-4.89c1.2053095-.5753184 2.524427-.8726325 3.86-.87zm-14 18c-3.69556354.0001861-7.01564618-2.2587643-8.37218511-5.6963495-1.35653894-3.4375852-.47379337-7.3550545 2.22600161-9.878603s6.6678578-3.1402198 10.0061835-1.5550475c-3.8078446 4.7511955-3.8078446 11.5088045 0 16.26-1.2053095.5753184-2.524427.8726325-3.86.87zm5-9c-.0018274-2.054068.7045208-4.0459698 2-5.64l4.45 5.64-4.45 5.64c-1.2954792-1.5940302-2.0018274-3.585932-2-5.64zm9 9c-1.335573.0026325-2.6546905-.2946816-3.86-.87l3.86-4.89 3.86 4.89c-1.2053095.5753184-2.524427.8726325-3.86.87zm2.55-9 4.45-5.64c2.6485509 3.293589 2.6485509 7.986411 0 11.28zm11.45 9c-1.335573.0026325-2.6546905-.2946816-3.86-.87 3.8078446-4.7511955 3.8078446-11.5088045 0-16.26 3.3383257-1.5851723 7.3063885-.968501 10.0061835 1.5550475s3.5825405 6.4410178 2.2260016 9.878603-4.6766216 5.6965356-8.3721851 5.6963495z" fill="#2fa8cc"/><path id="Shape" d="m40 22c.0044588 2.957324-1.0049792 5.8268103-2.86 8.13-1.2227254-.5798967-2.2967386-1.4315824-3.14-2.49 2.6203415-3.2687137 2.6387968-7.9131566.044515-11.2025913-2.5942819-3.2894348-7.1151463-4.3538477-10.904515-2.5674087-.8835551-1.1071399-1.9446193-2.0600702-3.14-2.82 4.00119-2.55679942 9.0780853-2.72868894 13.2430465-.4483727 4.1649613 2.2803163 6.7553279 6.6500317 6.7569535 11.3983727z" fill="#955ba5"/><path id="Shape" d="m34 33c-5.3723733 3.4804001-12.4788209 2.5319474-16.7503967-2.2355698-4.2715758-4.7675173-4.4368671-11.9350718-.3896033-16.8944302 1.2227254.5798967 2.2967386 1.4315824 3.14 2.49-2.6203415 3.2687137-2.6387968 7.9131566-.044515 11.2025913 2.5942819 3.2894348 7.1151463 4.3538477 10.904515 2.5674087.8793942 1.1249857 1.9406915 2.095025 3.14 2.87z" fill="#955ba5"/><path id="Shape" d="m34 16.36-4.45 5.64-2.55 3.24-3.86 4.89c-1.2227254-.5798967-2.2967386-1.4315824-3.14-2.49l4.45-5.64 2.55-3.24 3.86-4.89c1.2227254.5798967 2.2967386 1.4315824 3.14 2.49z" fill="#894b9d"/><path id="Shape" d="m27 18.76-2.55 3.24-4.45-5.64c-1.7007155-2.1265348-4.2770286-3.363165-7-3.36-3.69556354-.0001861-7.01564618 2.2587643-8.37218511 5.6963495-1.35653894 3.4375852-.47379337 7.3550545 2.22600161 9.878603s6.6678578 3.1402198 10.0061835 1.5550475c.8793942 1.1249857 1.9406915 2.095025 3.14 2.87-1.5128773.9792315-3.2176578 1.6236385-5 1.89v7.11h3c1.1045695 0 2 .8954305 2 2s-.8954305 2-2 2h-3v3c0 1.1045695-.8954305 2-2 2s-2-.8954305-2-2v-3h-3c-1.1045695 0-2-.8954305-2-2s.8954305-2 2-2h3v-7.15c-5.22864969-.8143725-9.44189186-4.7167782-10.65381568-9.867819-1.21192383-5.1510407.81935366-10.5226412 5.13639023-13.5828986 4.31703658-3.06025741 10.05821245-3.19838739 14.51742545-.3492824 1.1953807.7599298 2.2564449 1.7128601 3.14 2.82z" fill="#e64c3c"/></g></g></svg>