<?xml version="1.0" encoding="utf-8"?>
<!-- Generator: Adobe Illustrator 17.1.0, SVG Export Plug-In . SVG Version: 6.00 Build 0)  -->
<!DOCTYPE svg PUBLIC "-//W3C//DTD SVG 1.1//EN" "http://www.w3.org/Graphics/SVG/1.1/DTD/svg11.dtd">
<svg version="1.1" id="Calque_1" xmlns="http://www.w3.org/2000/svg" xmlns:xlink="http://www.w3.org/1999/xlink" x="0px" y="0px"
	 viewBox="0 0 512 512" enable-background="new 0 0 512 512" xml:space="preserve">
<path fill="#FEC9A3" d="M496,487.4v0.6H56c0-23.4,16.1-43.8,38.9-49.2L192,416v-48h-48c-17.7,0-32-14.3-32-32v-24h16
	c8.8,0,16-7.2,16-16s-7.2-16-16-16h-16v-24H84.3c-6.8,0-12.3-5.5-12.3-12.3c0-1.9,0.4-3.8,1.3-5.5L98.5,188
	c7.4-19.4,10-31.6,13.6-52c11.9-68.4,73.9-113.8,146.2-112c70,1.7,132.5,56.9,140.8,126.4c2.7,21.8,0.3,44-6.9,64.8
	c-7,20.4-12.5,41.4-16.2,62.6c-5.3,30.3-8,61-7.8,91.8V416l89.7,22.4C480.2,444.1,496,464.3,496,487.4L496,487.4z"/>
<circle fill="#FEB784" cx="164" cy="188" r="20"/>
<path fill="#FEB784" d="M238.3,376H192v-16h46.3c11.3,0.1,21-7.8,23.4-18.8l10.4-46.9l15.6,3.5l-10.4,46.9
	C273.4,363,257.1,376.1,238.3,376z"/>
<path fill="#FEC093" d="M496,487.4v0.6H129.2c79.8-34.4,177.4-99.6,246.6-210.2c-5.3,30.3-8,61-7.8,91.8V416l89.7,22.4
	C480.2,444.1,496,464.3,496,487.4L496,487.4z"/>
</svg>
