<svg height="512" viewBox="0 0 512 512" width="512" xmlns="http://www.w3.org/2000/svg"><g id="flat"><path d="m400 424h-176v-40h-56a24 24 0 0 1 -24-24v-80h-28.576a14 14 0 0 1 -13.282-18.427l26.069-78.2a139.472 139.472 0 0 1 132.316-95.373 139.473 139.473 0 0 1 139.473 139.473z" fill="#0296e5"/><path d="m296.765 264.988a23.354 23.354 0 0 0 -8.765 18.237v4.775h-64v-4.775a23.354 23.354 0 0 0 -8.765-18.237 83.227 83.227 0 0 1 -31.235-64.988 72 72 0 0 1 72-72 72 72 0 0 1 72 72 83.227 83.227 0 0 1 -31.235 64.988z" fill="#fbb540"/><path d="m256 472a8 8 0 0 1 -8-8v-128a8 8 0 0 1 16 0v128a8 8 0 0 1 -8 8z" fill="#026ca2"/><circle cx="256" cy="472" fill="#fbb540" r="16"/><path d="m264.008 296a8.005 8.005 0 0 1 -8.008-7.835 8 8 0 0 1 -15.845 1.4l-1.882-9.412a225 225 0 0 0 -19.378-56.48 27.417 27.417 0 0 1 19.572-39.229 21.549 21.549 0 0 1 35.066 0 27.418 27.418 0 0 1 19.572 39.23 224.984 224.984 0 0 0 -19.378 56.479l-1.882 9.412a8 8 0 0 1 -7.837 6.435zm-8.008-104.573a5.324 5.324 0 0 0 -5.139 3.5 8 8 0 0 1 -7.444 5.073 11.416 11.416 0 0 0 -10.212 16.521 241.006 241.006 0 0 1 20.757 60.5l1.883 9.412a8.053 8.053 0 0 1 .155 1.421 8.053 8.053 0 0 1 .155-1.421l1.883-9.412a240.985 240.985 0 0 1 20.757-60.5 11.417 11.417 0 0 0 -10.212-16.521 8 8 0 0 1 -7.444-5.072 5.324 5.324 0 0 0 -5.139-3.501z" fill="#ea9d2d"/><g fill="#fbb540"><path d="m256 64a8 8 0 0 1 -8-8v-32a8 8 0 0 1 16 0v32a8 8 0 0 1 -8 8z"/><path d="m142.863 110.863a7.974 7.974 0 0 1 -5.657-2.343l-22.627-22.628a8 8 0 0 1 11.313-11.313l22.628 22.627a8 8 0 0 1 -5.657 13.657z"/><path d="m88 224h-24a8 8 0 0 1 0-16h24a8 8 0 0 1 0 16z"/><path d="m448 224h-24a8 8 0 0 1 0-16h24a8 8 0 0 1 0 16z"/><path d="m369.137 110.863a8 8 0 0 1 -5.657-13.657l22.628-22.627a8 8 0 0 1 11.313 11.313l-22.627 22.628a7.974 7.974 0 0 1 -5.657 2.343z"/></g><path d="m304 368a8 8 0 0 1 -8-8v-16a8 8 0 0 1 16 0v16a8 8 0 0 1 -8 8z" fill="#eaeae8"/><path d="m304 400a8 8 0 0 1 -8-8v-8a8 8 0 0 1 16 0v8a8 8 0 0 1 -8 8z" fill="#eaeae8"/><path d="m224 288h64a0 0 0 0 1 0 0v16a32 32 0 0 1 -32 32 32 32 0 0 1 -32-32v-16a0 0 0 0 1 0 0z" fill="#cbcbcb"/><path d="m256 312a8 8 0 0 1 -8 8h-19.72a31.885 31.885 0 0 1 -4.28-16h24a8 8 0 0 1 8 8z" fill="#cbcbcb"/><path d="m256 312a8 8 0 0 1 -8 8h-19.72a31.885 31.885 0 0 1 -4.28-16h24a8 8 0 0 1 8 8z" fill="#eaeae8"/></g></svg>