<svg height="513pt" viewBox="0 0 513 513.04533" width="513pt" xmlns="http://www.w3.org/2000/svg"><path d="m355.222656 10.644531h-283.734375c-33.578125 0-60.800781 26.921875-60.800781 60.140625v280.617188c0 33.214844 27.222656 60.140625 60.800781 60.140625h283.734375c33.578125 0 60.800782-26.925781 60.800782-60.140625v-280.640625c0-33.195313-27.222657-60.117188-60.800782-60.117188zm0 0" fill="#607d8b"/><path d="m240.023438 427.519531h-181.335938c-32.359375 0-58.6640625-26.367187-58.6640625-58.75v-310.015625c0-32.40625 26.3046875-58.753906 58.6640625-58.753906h309.335938c32.363281 0 58.664062 26.367188 58.664062 58.753906v181.738282c0 8.832031-7.167969 16-16 16s-16-7.167969-16-16v-181.738282c0-14.765625-11.964844-26.753906-26.664062-26.753906h-309.335938c-14.695312 0-26.664062 11.988281-26.664062 26.753906v310.015625c0 14.761719 11.96875 26.75 26.664062 26.75h181.335938c8.832031 0 16 7.167969 16 16s-7.167969 16-16 16zm0 0"/><path d="m314.6875 470.273438c-8.832031 0-16-7.167969-16-16v-138.964844c0-8.832032 7.167969-16 16-16h138.667969c8.832031 0 16 7.167968 16 16 0 8.828125-7.167969 16-16 16h-122.667969v122.964844c0 8.832031-7.167969 16-16 16zm0 0"/><path d="m496.023438 513.046875c-4.097657 0-8.214844-1.558594-11.328126-4.695313l-181.332031-181.738281c-6.230469-6.25-6.230469-16.382812.039063-22.632812 6.230468-6.230469 16.40625-6.230469 22.636718.019531l181.332032 181.738281c6.230468 6.25 6.230468 16.382813-.042969 22.636719-3.113281 3.089844-7.230469 4.671875-11.304687 4.671875zm0 0"/></svg>