<?xml version="1.0" encoding="utf-8"?>
<!-- Generator: Adobe Illustrator 17.1.0, SVG Export Plug-In . SVG Version: 6.00 Build 0)  -->
<!DOCTYPE svg PUBLIC "-//W3C//DTD SVG 1.1//EN" "http://www.w3.org/Graphics/SVG/1.1/DTD/svg11.dtd">
<svg version="1.1" id="Calque_1" xmlns="http://www.w3.org/2000/svg" xmlns:xlink="http://www.w3.org/1999/xlink" x="0px" y="0px"
	 viewBox="0 0 512 512" enable-background="new 0 0 512 512" xml:space="preserve">
<g>
	<path fill="#FEC9A3" d="M230.8,352.8l-39.4-6.8v-54.4h-56.3V346l-39.4,10.2v44.2h135.1L230.8,352.8z"/>
	<path fill="#FEB784" d="M191.4,317.7v-33h-56.3v33C152.9,328.2,173.6,328.2,191.4,317.7z"/>
	<path fill="#E0E0DE" d="M270.2,516V395c0-20.3-12.4-37.5-29-40.4l-49.8-8.6l-12.1,40.8h-32.2L135.1,346l-39.4,10.2V516H270.2z"/>
	<path fill="#3C5174" d="M270.2,395v121H95.7v-95.2l-42.1,75.3c-6.6,13-20.7,17-31.4,9c-9.7-7.2-13.5-22.1-8.9-34.7l33.4-80.6
		c6.1-14.8,17.5-25.4,30.8-28.9l57.7-14.9l28.1,95.2l28.1-95.2l49.8,8.6C257.9,357.4,270.2,374.6,270.2,395L270.2,395z"/>
	<path fill="#354766" d="M270.2,395v121H95.7v-16.7c62.3-30.3,114.6-63.6,158.4-139.1C264.1,367.6,270.2,380.7,270.2,395L270.2,395z
		"/>
	<g>
		<path fill="#2E3E51" d="M157.6,441.2h11.3V516h-11.3V441.2z"/>
		<path fill="#2E3E51" d="M180.1,454.8h50.7v13.6h-50.7V454.8z"/>
		<path fill="#2E3E51" d="M95.7,454.8h50.7v13.6H95.7V454.8z"/>
		<path fill="#2E3E51" d="M225.2,420.8h11.3V516h-11.3V420.8z"/>
	</g>
	<path fill="#49648E" d="M113.9,351.5l4.3,62.5l30.7-21.2l-13.8-60.4L113.9,351.5z"/>
	<path fill="#49648E" d="M177.6,392.8l30.7,21.2l4.4-64.3l-21.3-17.3L177.6,392.8z"/>
	<path fill="#FEB784" d="M107.2,203.1H107c-9.3,0-16.9,9.1-16.9,20.4s7.6,20.4,16.9,20.4h6l-0.3-40.8H107.2z"/>
	<path fill="#FEB784" d="M219.6,203.1h-5.6v40.8h5.6c9.3,0,16.9-9.1,16.9-20.4S228.9,203.1,219.6,203.1z"/>
	<path fill="#FEC9A3" d="M213.9,196.3v47.6c0,9-0.9,18-2.7,26.8c-5,24.2-23,41.2-43.7,41.2H159c-1.2,0-2.3-0.1-3.4-0.2
		c-19.3-1.8-35.6-18.3-40.3-41.1c-1.8-8.8-2.7-17.8-2.7-26.8v-47.6c0-30.6,18.7-56.4,43.7-60.6h0c27.7-4.6,53.3,18.8,57.1,52.3
		C213.8,190.7,213.9,193.5,213.9,196.3L213.9,196.3z"/>
	<path fill="#FEC093" d="M213.9,196.3v47.6c0,9-0.9,18-2.7,26.8c-5,24.2-23,41.2-43.7,41.2H159c-1.2,0-2.3-0.1-3.4-0.2
		c21.8-12.3,35.8-38.7,35.8-67.9v-40.8c0-28.7-13.6-54.9-35.1-67.4c27.7-4.6,53.3,18.8,57.1,52.3
		C213.8,190.7,213.9,193.5,213.9,196.3z"/>
	<path fill="#F7A468" d="M155.6,270.3h-9.2v-13.6h9.2c9.6,0.1,19.2-1.8,28.3-5.5l3.8,12.8C177.4,268.3,166.5,270.4,155.6,270.3
		L155.6,270.3z"/>
	<path fill="#7A432A" d="M139.2,170.1c15.9,3.8,32.2,3.8,48.1,0l4.1-1l22.5,31.7v-4.5c0-33.8-22.7-61.2-50.7-61.2
		s-50.7,27.4-50.7,61.2v4.5l22.5-31.7L139.2,170.1z"/>
	<ellipse fill="#7A432A" cx="137.9" cy="220.1" rx="8.4" ry="10.2"/>
	<ellipse fill="#7A432A" cx="188.6" cy="220.1" rx="8.4" ry="10.2"/>
	<path fill="#49648E" d="M33.8,509.2c-12.4,0-22.5-12.2-22.5-27.2V373.2h45V482C56.3,497,46.2,509.2,33.8,509.2z"/>
	<path fill="#F35244" d="M0,237.1v27.2h33.8v27.2H0c0,8.3,3.9,16,10.1,19.7l23.7,14.3v102c0,11.1,6.8,21,16,21.5
		c9.3,0.6,17.3-8,17.8-19.3c0-0.4,0-0.7,0-1.1V237.1H0z"/>
	<path fill="#E0E0DE" d="M67.6,196.3H28.1v40.8H0v-40.8c0-18.8,12.6-34,28.1-34h11.3C55,162.3,67.5,177.6,67.6,196.3z"/>
	<path fill="#D6D6D4" d="M0,264.3h33.8v27.2H0V264.3z"/>
	<path fill="#D6D6D4" d="M67.6,196.3H28.1v40.8H0v-11.6l49.3-61C60.3,169.5,67.5,182.1,67.6,196.3L67.6,196.3z"/>
	<path fill="#EA4A3B" d="M22.5,318.8l11.3,6.8v102c0,11.1,6.8,21,16,21.5c9.3,0.6,17.3-8,17.8-19.3c0-0.4,0-0.7,0-1.1V264.3
		L22.5,318.8z"/>
	<path fill="#DE4132" d="M33.8,373.2h33.8v34H33.8V373.2z"/>
	<path fill="#FEC9A3" d="M22.5,325.6h33.8c6.2,0,11.3,6.1,11.3,13.6V380c0,7.5-5,13.6-11.3,13.6H22.5c-6.2,0-11.3-6.1-11.3-13.6
		v-40.8C11.3,331.6,16.3,325.6,22.5,325.6z"/>
	<path fill="#FEC093" d="M56.3,325.6H33.8c6.2,0,11.3,6.1,11.3,13.6V380c0,7.5-5,13.6-11.3,13.6h22.5c6.2,0,11.3-6.1,11.3-13.6
		v-40.8C67.6,331.6,62.5,325.6,56.3,325.6z"/>
	<path fill="#49648E" d="M222,189.4c0,11.4-7.7,20.6-17.2,20.6c-0.9,0-1.8-0.1-2.7-0.3l-15.4-3.1c-14.7-3-29.7-3-44.4,0l-15.4,3.1
		c-9.3,1.9-18.1-5.7-19.6-16.9c-0.5-3.7-0.2-7.5,1-11h112.6C221.6,184.1,222,186.7,222,189.4z"/>
	<path fill="#425B82" d="M220.8,154.4v27.2H108.2v-27.2c0-22.5,15.1-40.8,33.8-40.8h45c3.6,0,7.2,0.7,10.7,2.1
		c0.6,0.3,1.2,0.5,1.9,0.8C212.4,122.7,220.8,137.8,220.8,154.4z"/>
	<path fill="#3C5174" d="M220.8,154.4v27.2h-95.7c33.8-13.6,57.4-37.4,74.5-65.1C212.4,122.7,220.8,137.8,220.8,154.4z"/>
	<path fill="#425B82" d="M222,189.4c0,11.4-7.7,20.6-17.2,20.6c-0.9,0-1.8-0.1-2.7-0.3l-15.4-3.1c-4.8-1-9.6-1.6-14.4-1.9
		c11.9-6,21.6-13.5,28.7-22.9h19.8C221.6,184.1,222,186.7,222,189.4z"/>
	<path fill="#E0E0DE" d="M146.4,148.7h33.8v13.6h-33.8V148.7z"/>
	<path fill="#D6D6D4" d="M168.9,148.7h11.3v13.6h-11.3V148.7z"/>
	<path fill="#3C5174" d="M146.4,162.3h33.8v13.6h-33.8V162.3z"/>
</g>
<g>
	<path fill="#61311B" d="M298.2,210c0,27.6-3.5,54.8-8.5,81.7c-2.2,12-1.3,24.5,2.7,35.8l5.8,16.2h39.1V195.2h-39.1V210L298.2,210z"
		/>
	<path fill="#61311B" d="M393.2,229L382,256v87.8h39.1l5.8-16.2c6.8-19.2,4.6-41.3-5.8-58L393.2,229z"/>
	<path fill="#FEC9A3" d="M326.1,330.3v74.3h67.1v-74.3H382v-54h-44.7v54H326.1z"/>
	<path fill="#FEB784" d="M363,310c6.9-0.1,13.6-3,19-8.3v-25.5h-44.7v25.5c5.4,5.3,12.1,8.2,19,8.3H363z"/>
	<path fill="#DB6EA2" d="M387.6,458.6h-55.9v-67.5h55.9V458.6z"/>
	<path fill="#3D4D63" d="M275.8,364.1c0-18.6,12.5-33.8,27.9-33.8h22.4l33.5,114.8l33.5-114.8h21.3c11.1,0,21.6,6.7,27.8,17.9
		l64.5,115.4c6.5,11.7,4.5,27.5-4.6,36.3c-9.7,9.4-23.8,7.6-31.6-4.1l-55-84.4l0,0.4h0c8.4,17.5,11.2,40.2-5.6,60.4v40.5H275.8
		V364.1L275.8,364.1z"/>
	<path fill="#374559" d="M398.2,512.6H275.8V387.7C313.9,456.9,348.2,484.1,398.2,512.6z"/>
	<path fill="#4C5D72" d="M359.7,445.1l44.7-47.3l-5.6-20.3l22.4-20.3l-27.9-27L359.7,445.1z"/>
	<path fill="#4C5D72" d="M359.7,445.1l-44.7-47.3l5.6-20.3l-22.4-20.3l27.9-27L359.7,445.1z"/>
	<path fill="#22303D" d="M365.3,512.6h-11.2v-67.5h11.2V512.6z"/>
	<path fill="#22303D" d="M387.6,472.1h-11.2v-13.5h11.2V472.1z"/>
	<path fill="#4C5D72" d="M510.6,480.4c0,14.1-9.5,25.5-21.1,25.5c-0.8,0-1.6-0.1-2.3-0.2c-11.6-1.6-19.9-14.2-18.7-28.2l3-32.4h39.1
		V480.4C510.6,480.4,510.6,480.4,510.6,480.4z"/>
	<path fill="#DB6EA2" d="M510.6,445.1h-39.1v-27h39.1V445.1z"/>
	<path fill="#4C5D72" d="M454.7,337.1h33.5l-5.6,108h-22.4L454.7,337.1z"/>
	<path fill="#374559" d="M487.5,350.6l0.7-13.5h-33.5l0.7,13.5H487.5z"/>
	<path fill="#E0E0DE" d="M505,337.1h-33.5v-40.5H505V337.1z"/>
	<path fill="#C7C7C5" d="M471.4,337.1h-33.5v-40.5h33.5V337.1z"/>
	<path fill="#3D4D63" d="M451.2,252.9c3-6.4,8.5-10.4,14.6-10.4H477c9.3,0,16.8,9.1,16.8,20.3v33.8h-44.7v-33.8
		C449.1,259.3,449.8,255.9,451.2,252.9z"/>
	<path fill="#FEC9A3" d="M510.6,364.1v54l0,0h-45.1c-5.9,0-10.8-5.8-10.8-13v-28c0-7.2,4.8-13,10.8-13H510.6L510.6,364.1z"/>
	<path fill="#FEC093" d="M454.7,377.1v28c0,7.2,4.8,13,10.8,13h22.4c-5.9,0-10.8-5.8-10.8-13v-28c0-7.2,4.8-13,10.8-13h-22.4
		C459.5,364.1,454.7,369.9,454.7,377.1z"/>
	<path fill="#FEC9A3" d="M350.9,134.6c1.1-0.1,2.1-0.1,3.2-0.1h11.2l0,0c24.7,0,44.7,24.2,44.7,54v47.3c0,30.3-18.5,56-43.4,60.2h0
		c-2.3,0.4-4.6,0.6-6.9,0.6c-27.8,0-50.3-27.2-50.3-60.8v-47.3C309.4,160.2,327.5,136.6,350.9,134.6z"/>
	<path fill="#FEC093" d="M350.9,134.6c-0.4,0.4-0.8,0.9-1.2,1.4c-11.6,13.9-18,32.8-18,52.5V229c0,28.5,13.5,54.6,34.8,67
		c-2.3,0.4-4.6,0.6-6.9,0.6c-27.8,0-50.3-27.2-50.3-60.8v-47.3C309.4,160.2,327.5,136.6,350.9,134.6z"/>
	<ellipse fill="#7A432A" cx="384.8" cy="212.1" rx="8.4" ry="10.1"/>
	<ellipse fill="#7A432A" cx="334.5" cy="212.1" rx="8.4" ry="10.1"/>
	<path fill="#F7A468" d="M342.9,242.5h11.2c0,3.7,2.5,6.8,5.6,6.8c3.1,0,5.6-3,5.6-6.8h11.2c0,11.2-7.5,20.2-16.8,20.3
		C350.4,262.8,342.9,253.7,342.9,242.5z"/>
	<path fill="#7A432A" d="M298.2,181.7c0-29.5,15.8-55.6,39.1-64.4c3.6-1.4,7.4-2.3,11.2-2.8c1.8-0.2,3.7-0.3,5.6-0.3h11.2
		c30.9,0,55.9,30.2,55.9,67.5v87.8l-17.7-25.7c-6.6-9.6-10.2-21.7-10.2-34.2c0-21.1-10.3-40.2-26.2-48.8l-18.5-9.9l-5.6-3l-1.9,5.7
		c-1,3.1-2.2,6-3.7,8.8c-6.4,12.2-16.1,18.9-27.9,26v6.8h-11.2V181.7L298.2,181.7z"/>
	<path fill="#FEB784" d="M309.4,188.5V229l0,0h-5.6c-9.3,0-16.8-9.1-16.8-20.3c0-11.2,7.5-20.3,16.8-20.3H309.4L309.4,188.5z"/>
	<path fill="#61311B" d="M348.5,114.5V151l-5.6-3l-1.9,5.7c-1,3.1-2.2,6-3.7,8.8v-45.2C340.9,115.9,344.7,115,348.5,114.5z"/>
	<path fill="#22303D" d="M303.8,474.5c-12.5-19.5-14.2-46-4.2-66.6l9.6,6.9c-8,16.4-6.2,37.7,4.4,53c0.8,1.2,1.3,2.8,1.3,4.3v40.5
		h-11.2V474.5z"/>
	<path fill="#374559" d="M451.2,252.9c12,21.9,25.9,34.2,42,43.7h-44.1v-33.8C449.1,259.3,449.8,255.9,451.2,252.9z"/>
</g>
</svg>
