<?xml version="1.0" encoding="utf-8"?>
<!-- Generator: Adobe Illustrator 17.1.0, SVG Export Plug-In . SVG Version: 6.00 Build 0)  -->
<!DOCTYPE svg PUBLIC "-//W3C//DTD SVG 1.1//EN" "http://www.w3.org/Graphics/SVG/1.1/DTD/svg11.dtd">
<svg version="1.1" id="Capa_1" xmlns="http://www.w3.org/2000/svg" xmlns:xlink="http://www.w3.org/1999/xlink" x="0px" y="0px"
	 viewBox="0 0 405.1 405.1" enable-background="new 0 0 405.1 405.1" xml:space="preserve">
<g>
	<g>
		<path d="M267,138.2c0-4.8-3.9-8.7-8.7-8.7H74.4l30.5-30.3c3.4-3.4,3.4-8.9,0-12.3c-3.4-3.4-8.9-3.4-12.3,0L47.2,132c0,0,0,0,0,0
			c-3.4,3.4-3.4,8.9,0,12.3c0,0,0,0,0,0l45.4,45.2c3.4,3.4,8.9,3.4,12.3,0c3.4-3.4,3.4-8.9,0-12.3l-30.5-30.3h183.9
			C263.1,146.8,267,143,267,138.2z"/>
	</g>
</g>
<rect x="74.7" y="204.2" fill="none" stroke="#000000" stroke-width="6" stroke-miterlimit="10" width="262" height="137.4"/>
<g>
	<g>
		<path d="M164.5,146.8l183.9,0l-30.5,30.3c-3.4,3.4-3.4,8.9,0,12.3c3.4,3.4,8.9,3.4,12.3,0l45.4-45.2c0,0,0,0,0,0
			c3.4-3.4,3.4-8.9,0-12.3c0,0,0,0,0,0l-45.4-45.2c-3.4-3.4-8.9-3.4-12.3,0c-3.4,3.4-3.4,8.9,0,12.3l30.5,30.3H164.5
			c-4.8,0-8.7,3.9-8.7,8.7C155.8,143,159.7,146.8,164.5,146.8z"/>
	</g>
</g>
</svg>
