<?xml version="1.0" encoding="utf-8"?>
<!-- Generator: Adobe Illustrator 17.1.0, SVG Export Plug-In . SVG Version: 6.00 Build 0)  -->
<!DOCTYPE svg PUBLIC "-//W3C//DTD SVG 1.1//EN" "http://www.w3.org/Graphics/SVG/1.1/DTD/svg11.dtd">
<svg version="1.1" id="Layer_1" xmlns="http://www.w3.org/2000/svg" xmlns:xlink="http://www.w3.org/1999/xlink" x="0px" y="0px"
	 viewBox="0 0 512 512" enable-background="new 0 0 512 512" xml:space="preserve">
<g>
	<g>
		<path fill="#F68820" d="M64.3,40c22.1,0,40,17.9,40,40v40h-40c-22.1,0-40-17.9-40-40S42.2,40,64.3,40z"/>
	</g>
	<g>
		<path fill="#FBBE18" d="M360.3,432v-60c0-8.8-7.2-16-16-16c8.8,0,16-7.2,16-16V184v-68c0-8.8-7.2-16-16-16c8.8,0,16-7.2,16-16v-4
			c0-22.1-17.9-40-40-40h-256c22.1,0,40,17.9,40,40v84c0,8.8,7.2,16,16,16c-8.8,0-16,7.2-16,16v236c0,22.1,17.9,40,40,40h256
			C378.2,472,360.3,454.1,360.3,432z"/>
	</g>
	<g>
		<g>
			<path fill="#F68820" d="M208.3,116h96c4.4,0,8-3.6,8-8s-3.6-8-8-8h-96c-4.4,0-8,3.6-8,8S203.9,116,208.3,116z"/>
		</g>
		<g>
			<path fill="#F68820" d="M160.3,156h144c4.4,0,8-3.6,8-8s-3.6-8-8-8h-144c-4.4,0-8,3.6-8,8S155.9,156,160.3,156z"/>
		</g>
		<g>
			<path fill="#F68820" d="M160.3,196h144c4.4,0,8-3.6,8-8s-3.6-8-8-8h-144c-4.4,0-8,3.6-8,8S155.9,196,160.3,196z"/>
		</g>
		<g>
			<path fill="#F68820" d="M160.3,236h144c4.4,0,8-3.6,8-8s-3.6-8-8-8h-144c-4.4,0-8,3.6-8,8S155.9,236,160.3,236z"/>
		</g>
		<g>
			<path fill="#F68820" d="M160.3,276h144c4.4,0,8-3.6,8-8s-3.6-8-8-8h-144c-4.4,0-8,3.6-8,8S155.9,276,160.3,276z"/>
		</g>
		<g>
			<path fill="#F68820" d="M160.3,316h144c4.4,0,8-3.6,8-8s-3.6-8-8-8h-144c-4.4,0-8,3.6-8,8S155.9,316,160.3,316z"/>
		</g>
		<g>
			<path fill="#F68820" d="M160.3,356h68c4.4,0,8-3.6,8-8s-3.6-8-8-8h-68c-4.4,0-8,3.6-8,8S155.9,356,160.3,356z"/>
		</g>
	</g>
	<g>
		<path fill="#BF6B1E" d="M144.3,392c-11,0-20,9-20,20s9,20,20,20h60v-40H144.3z"/>
	</g>
	<g>
		<path fill="#F68820" d="M144.3,392c22.1,0,40,17.9,40,40s-17.9,40-40,40h256c22.1,0,40-17.9,40-40s-17.9-40-40-40H144.3z"/>
	</g>
	<g>
		<g>
			<path fill="#B3B4B6" d="M280.3,316h47.4c10.6,0,20.8-4.2,28.3-11.7l120-120c15.6-15.6,15.6-40.9,0-56.6l-7.4-7.4
				c-15.6-15.6-40.9-15.6-56.6,0l-120,120c-7.5,7.5-11.7,17.7-11.7,28.3L280.3,316L280.3,316z"/>
		</g>
		<g>
			<path fill="#808080" d="M280.3,316h47.4c10.6,0,20.8-4.2,28.3-11.7l120-120c15.6-15.6,15.6-40.9,0-56.6l-3.7-3.7L280.3,316z"/>
		</g>
		<g>
			<path fill="#55525B" d="M384.3,212v-64l27.7-27.7c15.6-15.6,40.9-15.6,56.6,0l7.4,7.4c15.6,15.6,15.6,40.9,0,56.6L448.3,212
				H384.3z"/>
		</g>
		<g>
			<path fill="#353744" d="M384.3,212l88-88l3.7,3.7c15.6,15.6,15.6,40.9,0,56.6L448.3,212H384.3z"/>
		</g>
		<g>
			<path fill="#DBDEE3" d="M248.3,352c-1,0-2-0.4-2.8-1.2c-1.6-1.6-1.6-4.1,0-5.7l224-224c1.6-1.6,4.1-1.6,5.7,0s1.6,4.1,0,5.7
				l-224,224C250.3,351.6,249.3,352,248.3,352z"/>
		</g>
	</g>
</g>
<g>
	<path fill="#FFF7CC" d="M241.2,91.1l-104.8,21.1L31.6,91.1c-3.6-1.8-5-6.1-3.2-9.7l14.3-28.6c1.3-2.6,4-4.2,6.9-4
		c49,2.6,84.1,16.2,86.9,16.9c1.4-0.4,39.4-14.4,86.9-16.9c2.9-0.2,5.6,1.4,6.9,4l14.3,28.6C246.2,84.9,244.8,89.3,241.2,91.1
		L241.2,91.1z"/>
	<path fill="#FFE6B3" d="M241.2,91.1l-104.8,21.1V65.7c1.4-0.4,39.4-14.4,86.9-16.9c2.9-0.2,5.6,1.4,6.9,4l14.3,28.6
		C246.2,84.9,244.8,89.3,241.2,91.1L241.2,91.1z"/>
	<g>
		<g>
			<g>
				<g>
					<path fill="#FF641A" d="M114.6,89.2C88,81.3,60.4,77.3,32.5,77.3H19.9c-4,0-7.3,3.2-7.3,7.3v145c0,4,3.2,7.3,7.3,7.3h12.6
						c28.4,0,56.4,4.3,83.4,12.9c1.2,0.4,2.5,0.8,3.7,1.2c4.7,1.6,9.5-1.9,9.5-6.9v-145L114.6,89.2z"/>
				</g>
			</g>
		</g>
	</g>
	<g>
		<g>
			<g>
				<g>
					<path fill="#F03800" d="M252.9,77.3h-12.6c-31.2,0-61.9,5-91.7,14.9l-5,6.9v145c0,5,4.9,8.4,9.5,6.9c1.2-0.4,2.5-0.8,3.7-1.2
						c27-8.6,55-12.9,83.4-12.9h12.6c4,0,7.3-3.2,7.3-7.3v-145C260.2,80.6,256.9,77.3,252.9,77.3z"/>
				</g>
			</g>
		</g>
	</g>
	<g>
		<g>
			<path fill="#613D5C" d="M148.6,92.2c-2.5,0.8-4.3,2.9-4.8,5.4c0,0,0,0,0,0.1c0,0,0,0,0,0c-0.9,4.4-4.4,6-7.4,6s-6.5-1.6-7.4-6
				c0,0,0,0,0,0c0-0.1,0-0.2-0.1-0.3c-0.6-2.4-2.3-4.4-4.8-5.2c-3.2-1.1-6.3-2.1-9.5-3v154.9c0,1.7,0.4,3.7,1.3,5.7
				c2.7,6.5,9.7,13.5,20.5,13.5c10.8,0,17.8-7,20.5-13.5c0.8-2,1.3-4,1.3-5.7V89.2C155,90.1,151.8,91.1,148.6,92.2L148.6,92.2z"/>
		</g>
	</g>
	<path fill="#4B2746" d="M158.2,89.2v154.9c0,1.7-0.4,3.7-1.3,5.7c-2.7,6.5-9.7,13.5-20.5,13.5V103.7c3,0,6.5-1.6,7.4-6c0,0,0,0,0,0
		c0,0,0,0,0-0.1c0.5-2.5,2.3-4.6,4.8-5.4C151.8,91.1,155,90.1,158.2,89.2L158.2,89.2z"/>
</g>
</svg>
