<?xml version="1.0" encoding="utf-8"?>
<!-- Generator: Adobe Illustrator 17.1.0, SVG Export Plug-In . SVG Version: 6.00 Build 0)  -->
<!DOCTYPE svg PUBLIC "-//W3C//DTD SVG 1.1//EN" "http://www.w3.org/Graphics/SVG/1.1/DTD/svg11.dtd">
<svg version="1.1" id="Capa_1" xmlns="http://www.w3.org/2000/svg" xmlns:xlink="http://www.w3.org/1999/xlink" x="0px" y="0px"
	 viewBox="0 0 3000 4000" enable-background="new 0 0 3000 4000" xml:space="preserve">
<g>
	<path fill="#F7904B" d="M1192,2272.5l-89,133.6l11.8,106.8c-7.5,19.6-14.8,38.4-22.1,56.2c-84.6,208-168.2,336-171.7,341.4
		c-1.2,1.8-2.5,3.5-4,5c0,0,0,0-0.1,0.1c-6.5,6.6-15.4,10.5-24.8,10.5c-11.6,0-22.5-5.9-28.9-15.6c-3.5-5.3-87.1-133.4-171.7-341.4
		c-7.3-17.8-14.7-36.6-22.1-56.2v0l11.5-107.7l-89.1-133.9c-40.9-154.7-71.5-334.2-71.5-524.9s30.6-370.2,71.5-524.9l89.4-134.9
		l-11.8-106.8c7.5-19.6,14.8-38.4,22.1-56.2c84.6-208,168.2-336,171.7-341.4c6.4-9.7,17.3-15.6,28.9-15.6c9.4,0,18.4,3.9,24.8,10.5
		c0,0,0,0,0.1,0.1c1.5,1.5,2.8,3.2,4,5c3.5,5.3,87.1,133.4,171.7,341.4c7.3,17.8,14.7,36.6,22.1,56.2l-11.8,106.8l89,133.6
		c41,154.9,71.8,335,71.8,526.2S1233,2117.5,1192,2272.5L1192,2272.5z"/>
	<path fill="#46637F" d="M1093.4,1746.3c0,111.3-90.2,201.5-201.5,201.5c-19.2,0-37.7-2.7-55.3-7.7
		c-84.4-24-146.2-101.7-146.2-193.8c0-92.1,61.8-169.8,146.2-193.8c17.6-5,36.1-7.7,55.3-7.7
		C1003.3,1544.8,1093.4,1635,1093.4,1746.3L1093.4,1746.3z"/>
	<path fill="#234063" d="M1093.4,1746.3c0,111.3-90.2,201.5-201.5,201.5c-19.2,0-37.7-2.7-55.3-7.7c84.4-24,146.2-101.7,146.2-193.8
		c0-92.1-61.8-169.8-146.2-193.8c17.6-5,36.1-7.7,55.3-7.7C1003.3,1544.8,1093.4,1635,1093.4,1746.3L1093.4,1746.3z"/>
	<g>
		<g>
			<path fill="#FFFF4D" d="M945.2,2099.9H839.4c-19.1,0-34.6,15.5-34.6,34.6c0,19.1,15.5,34.6,34.6,34.6h105.8
				c19.1,0,34.6-15.5,34.6-34.6C979.7,2115.4,964.3,2099.9,945.2,2099.9z"/>
			<path fill="#FFFF4D" d="M839.4,1392.7h105.8c19.1,0,34.6-15.5,34.6-34.6s-15.5-34.6-34.6-34.6H839.4c-19.1,0-34.6,15.5-34.6,34.6
				S820.3,1392.7,839.4,1392.7z"/>
		</g>
		<path fill="#FFFF4D" d="M1192,2272.5c-23.7,89.4-50.7,170.4-77.2,240.4c-18.2,4.7-36.7,8.8-55.4,12.4
			c-54.5,10.3-110.8,15.7-168.3,15.7c-77.3,0-150.3-9.8-221.8-28.1v0c-26.6-70.3-53.8-151.7-77.6-241.6
			c91.8,44.5,190.5,69.4,299.4,69.4c74.1,0,145.6-11.6,212.6-33C1134.1,2297.9,1163.5,2286.1,1192,2272.5z"/>
		<path fill="#FFFF4D" d="M1192,1220.1c-28.4-13.6-57.9-25.4-88.3-35.1c-67-21.4-138.5-33-212.6-33c-108.8,0-207.6,24.9-299.4,69.4
			c23.7-89.9,50.9-171.3,77.6-241.7c71.6-18.3,144.6-28.1,221.8-28.1c57.5,0,113.8,5.4,168.3,15.7c18.7,3.5,37.1,7.7,55.4,12.4
			C1141.2,1049.8,1168.3,1130.8,1192,1220.1z"/>
	</g>
	<path fill="#F25D40" d="M1192,2272.5l-89,133.6l11.8,106.8c-7.5,19.6-14.8,38.4-22.1,56.2c-84.6,208-168.2,336-171.7,341.4
		c-1.2,1.8-2.5,3.5-4,5c122.4-217.7,231.8-659.5,231.8-1169.1S1039.4,795,916.9,577.2c1.5,1.5,2.8,3.2,4,5
		c3.5,5.3,87.1,133.4,171.7,341.4c7.3,17.8,14.7,36.6,22.1,56.2l-11.8,106.8l89,133.6c41,154.9,71.8,335,71.8,526.2
		S1233,2117.5,1192,2272.5z"/>
	<g>
		<path fill="#FFE150" d="M1103.7,2307.6c30.4-9.7,59.9-21.5,88.3-35.1c-23.7,89.4-50.7,170.4-77.2,240.4
			c-18.2,4.7-36.7,8.8-55.4,12.4C1076,2457.4,1091,2384.5,1103.7,2307.6z"/>
		<path fill="#FFE150" d="M1103.7,1185c-12.7-77-27.6-149.8-44.3-217.6c18.7,3.5,37.1,7.7,55.4,12.4c26.5,70,53.5,151,77.2,240.4
			C1163.5,1206.5,1134.1,1194.8,1103.7,1185L1103.7,1185z"/>
	</g>
	<g>
		<path fill="#46637F" d="M286,893.8h69.1v1705H286V893.8z"/>
		<g>
			<path fill="#FF7680" d="M447.2,2891.4v-279.2c0-9-3.5-17.6-9.8-24.1l-82.4-84.8H286l-82.4,84.8c-6.3,6.5-9.8,15.1-9.8,24.1v279.2
				c0,19.1,15.5,34.6,34.6,34.6h184.3C431.8,2926,447.2,2910.5,447.2,2891.4z"/>
			<path fill="#F44D90" d="M447.2,2891.4v-279.2c0-9-3.5-17.6-9.8-24.1l-82.4-84.8V2926h57.6C431.8,2926,447.2,2910.5,447.2,2891.4
				L447.2,2891.4z"/>
		</g>
		<g>
			<path fill="#FF7680" d="M447.2,601.2v279.2c0,9-3.5,17.6-9.8,24.1l-82.4,84.8H286l-82.4-84.8c-6.3-6.5-9.8-15.1-9.8-24.1V601.2
				c0-19.1,15.5-34.6,34.6-34.6h184.3C431.8,566.6,447.2,582.1,447.2,601.2z"/>
			<path fill="#F44D90" d="M447.2,601.2v279.2c0,9-3.5,17.6-9.8,24.1l-82.4,84.8V566.6h57.6C431.8,566.6,447.2,582.1,447.2,601.2z"
				/>
		</g>
	</g>
	<g>
		<path fill="#46637F" d="M1428.9,893.8h69.1v1705h-69.1V893.8z"/>
		<g>
			<path fill="#FF7680" d="M1590.2,2891.4v-279.2c0-9-3.5-17.6-9.8-24.1l-82.4-84.8h-69.1l-82.4,84.8c-6.3,6.5-9.8,15.1-9.8,24.1
				v279.2c0,19.1,15.5,34.6,34.6,34.6h184.3C1574.7,2926,1590.2,2910.5,1590.2,2891.4z"/>
			<path fill="#F44D90" d="M1590.2,2891.4v-279.2c0-9-3.5-17.6-9.8-24.1l-82.4-84.8V2926h57.6
				C1574.7,2926,1590.2,2910.5,1590.2,2891.4L1590.2,2891.4z"/>
		</g>
		<g>
			<path fill="#FF7680" d="M1590.2,601.2v279.2c0,9-3.5,17.6-9.8,24.1l-82.4,84.8h-69.1l-82.4-84.8c-6.3-6.5-9.8-15.1-9.8-24.1
				V601.2c0-19.1,15.5-34.6,34.6-34.6h184.3C1574.7,566.6,1590.2,582.1,1590.2,601.2z"/>
			<path fill="#F44D90" d="M1590.2,601.2v279.2c0,9-3.5,17.6-9.8,24.1l-82.4,84.8V566.6h57.6
				C1574.7,566.6,1590.2,582.1,1590.2,601.2z"/>
		</g>
	</g>
</g>
<path fill="#FFD33F" d="M1054.1,2716.2c-20,0-40,1.1-60,3.2c-231.7,24.9-452.9,245.2-478.7,477c-34.2,297.4,179.2,566.2,476.6,600.4
	c121.2,14,243.6-13.4,347.3-77.7c52.5-34.2,112.5-55.3,174.9-61.4c15-1.3,30.3-2,45.7-2c14.7,0,29.2,0.5,43.7,1.6
	c63.3,6,124.2,27.2,177.5,62c254.8,157.2,588.7,78.2,746-176.6c63.9-103.6,91.1-225.6,77.2-346.5c-25.7-231.6-247-451.9-478.7-476.8
	c-19.9-2.1-39.8-3.2-59.8-3.2L1054.1,2716.2L1054.1,2716.2z"/>
<circle fill="#EA3836" cx="1812.9" cy="3258.2" r="108.4"/>
<path fill="#FFAC3E" d="M2502.7,2950c-434.9,487.4-1414.5,668.9-1797.1,722.7c178.8,151.2,434.8,169.9,633.7,46.3
	c52.5-34.2,112.5-55.3,174.9-61.4c15.1-1.2,30.4-1.8,45.9-1.8c14.7,0,29.2,0.5,43.7,1.6c63.3,6,124.2,27.2,177.5,62
	c254.8,157.2,588.7,78.2,746-176.6c63.9-103.6,91.1-225.6,77.2-346.5C2592.6,3106.6,2557.6,3021.7,2502.7,2950z"/>
<polygon fill="#383856" points="981.8,3005.3 1126.3,3005.3 1126.3,3186 1307,3186 1307,3330.5 1126.3,3330.5 1126.3,3511.2 
	981.8,3511.2 981.8,3330.5 801.1,3330.5 801.1,3186 981.8,3186 "/>
<g>
	<circle fill="#91CECE" cx="2065.9" cy="3041.4" r="108.4"/>
	<circle fill="#91CECE" cx="2065.9" cy="3475.1" r="108.4"/>
</g>
<circle fill="#EA3836" cx="2319" cy="3258.2" r="108.4"/>
<path fill="#D62121" d="M1869.1,3165.9c10.5,16.9,16,36.3,16.1,56.2c0,59.9-48.5,108.4-108.4,108.4c-19.8-0.1-39.3-5.6-56.2-16.1
	c30.9,51.1,97.4,67.5,148.4,36.6c51.1-30.9,67.5-97.4,36.6-148.4C1896.7,3187.6,1884.1,3175,1869.1,3165.9z"/>
<path fill="#83B2B7" d="M2122,2949.1c10.5,16.9,16,36.3,16.1,56.2c0,59.9-48.5,108.4-108.4,108.4c-19.8-0.1-39.3-5.6-56.2-16.1
	c30.9,51.1,97.4,67.5,148.4,36.6c51.1-30.9,67.5-97.4,36.6-148.4C2149.6,2970.8,2137,2958.2,2122,2949.1z"/>
<path fill="#D62121" d="M2375,3165.9c10.5,16.9,16,36.3,16.1,56.2c0,59.9-48.5,108.4-108.4,108.4c-19.8-0.1-39.3-5.6-56.2-16.1
	c30.9,51.1,97.4,67.5,148.4,36.6c51.1-30.9,67.5-97.4,36.6-148.4C2402.6,3187.6,2390,3175,2375,3165.9z"/>
<path fill="#83B2B7" d="M2122,3382.8c10.5,16.9,16,36.3,16.1,56.2c0,59.9-48.5,108.4-108.4,108.4c-19.8-0.1-39.3-5.6-56.2-16.1
	c30.9,51.1,97.4,67.5,148.4,36.6c51.1-30.9,67.5-97.4,36.6-148.4C2149.6,3404.4,2137,3391.8,2122,3382.8z"/>
<path fill="#202033" d="M801.1,3295.2v35.3h180.7v180.7h144.5v-180.7H1307V3186h-60.3C1104,3285.5,886.3,3295.5,801.1,3295.2z"/>
<g id="Flat">
	<path fill="#4D5E78" d="M2940,1808.3c0.9,121.7-30.2,241.6-90.3,347.5c-7.8,13.8-16,27.2-24.7,40.4c-17.9,27.9-55.1,36-83,18
		c-27.9-17.9-36-55.1-18-83c0.3-0.4,0.5-0.8,0.8-1.2c175.2-266,101.6-623.6-164.3-798.9c-94.5-62.3-205.2-95.3-318.4-95.1
		c-200.3,0.4-377.9,105.5-481.1,262.7c-126.1,191.6-125.9,440,0.6,631.3c18.3,27.7,10.6,65-17.1,83.2c-27.7,18.3-65,10.6-83.2-17.1
		c-211.8-321.4-122.9-753.5,198.4-965.3c110.2-72.6,238.6-112.4,370.5-114.9c4.4-0.1,8.7-0.1,13.1-0.1
		C2626.8,1115,2938.5,1424.8,2940,1808.3z"/>
	<path fill="#348FD9" d="M1931.7,2461.7l-108.9-541.6c-6.5-32.5,14.5-64.2,47-70.7l0,0c32.5-6.5,64.2,14.5,70.7,47l108.9,541.6
		c6.5,32.5-14.5,64.2-47,70.7l0,0C1969.9,2515.2,1938.2,2494.2,1931.7,2461.7z"/>
	<path fill="#4D5E78" d="M1929.6,2449.4l-27.6,5.6c-85.1,17.1-168.9-35-191-119c-0.8-3.1-1.6-6.2-2.2-9.4l-39.6-196.5
		c-17.9-88.8,39.6-175.3,128.5-193.2l27.6-5.6l48.4,240.5L1929.6,2449.4z"/>
	<path fill="#485870" d="M1929.6,2449.4l-27.6,5.6c-85.1,17.1-168.9-35-191-119c58.3-50.5,112.7-105.4,162.7-164.2L1929.6,2449.4z"
		/>
	<path fill="#3B495E" d="M2864,2085.1l-14.2,70.7c-7.8,13.8-16,27.2-24.7,40.4c-17.9,27.9-55.1,36-83,18c-27.9-17.9-36-55.1-18-83
		c0.3-0.4,0.5-0.8,0.8-1.2c40.7-61.6,69.1-130.5,83.7-203C2854.5,1965.6,2875.8,2026.2,2864,2085.1z"/>
	<path fill="#348FD9" d="M2792.7,1383.2l-86.2,86.2c-108.9-147.3-281.4-233.9-464.5-233.4c-200.3,0.4-377.9,105.5-481.1,262.7
		l-87.4-87.4c127.8-181.6,334.7-291.3,556.7-295.3c4.4-0.1,8.7-0.1,13.1-0.1C2457.9,1115.3,2660.7,1214,2792.7,1383.2L2792.7,1383.2
		z"/>
	<path fill="#348FD9" d="M2435.9,2437.4l108.9-541.6c6.5-32.5,38.2-53.6,70.7-47l0,0c32.5,6.5,53.6,38.2,47,70.7l-108.9,541.6
		c-6.5,32.5-38.2,53.6-70.7,47l0,0C2450.5,2501.6,2429.4,2469.9,2435.9,2437.4z"/>
	<path fill="#4D5E78" d="M2817.1,2130l-39.6,196.5c-17.9,88.8-104.4,146.3-193.2,128.5l-27.6-5.6l28.6-142l75.7-376.3l27.6,5.6
		c42.6,8.6,80.1,33.8,104.3,70c3.3,5,6.4,10.2,9.1,15.5C2819.1,2055.4,2824.5,2093.4,2817.1,2130L2817.1,2130z"/>
	<path fill="#485870" d="M2817.1,2130l-39.6,196.5c-17.9,88.8-104.4,146.3-193.2,128.5l-27.6-5.6l28.6-142
		c82.3-87,154.9-182.6,216.7-285.2C2819.1,2055.4,2824.5,2093.4,2817.1,2130L2817.1,2130z"/>
</g>
</svg>
