<?xml version="1.0" encoding="utf-8"?>
<!-- Generator: Adobe Illustrator 17.1.0, SVG Export Plug-In . SVG Version: 6.00 Build 0)  -->
<!DOCTYPE svg PUBLIC "-//W3C//DTD SVG 1.1//EN" "http://www.w3.org/Graphics/SVG/1.1/DTD/svg11.dtd">
<svg version="1.1" id="Calque_1" xmlns="http://www.w3.org/2000/svg" xmlns:xlink="http://www.w3.org/1999/xlink" x="0px" y="0px"
	 viewBox="0 0 3000 4000" enable-background="new 0 0 3000 4000" xml:space="preserve">
<path d="M2025.4,2332.2c-107.7,0-195-87.3-195-195c0-107.7,87.3-195,195-195c107.7,0,195,87.3,195,195
	C2220.3,2244.8,2133.1,2332.1,2025.4,2332.2z M2025.4,2062.2c-41.4,0-75,33.6-75,75c0,41.4,33.6,75,75,75s75-33.6,75-75
	C2100.4,2095.8,2066.8,2062.2,2025.4,2062.2z"/>
<path d="M1048.2,2332.2c-107.7,0-195-87.3-195-195c0-107.7,87.3-195,195-195s195,87.3,195,195
	C1243.1,2244.8,1155.9,2332.1,1048.2,2332.2z M1048.2,2062.2c-41.4,0-75,33.6-75,75c0,41.4,33.6,75,75,75c41.4,0,75-33.6,75-75
	C1123.2,2095.8,1089.7,2062.2,1048.2,2062.2z"/>
<path d="M1536.8,2332.2c-107.7,0-195-87.3-195-195c0-107.7,87.3-195,195-195s195,87.3,195,195
	C1731.7,2244.8,1644.5,2332.1,1536.8,2332.2z M1536.8,2062.2c-41.4,0-75,33.6-75,75c0,41.4,33.6,75,75,75s75-33.6,75-75
	C1611.8,2095.8,1578.2,2062.2,1536.8,2062.2z"/>
<path d="M2025.4,1897.2c-107.7,0-195-87.3-195-195s87.3-195,195-195c107.7,0,195,87.3,195,195
	C2220.3,1809.8,2133.1,1897.1,2025.4,1897.2z M2025.4,1627.2c-41.4,0-75,33.6-75,75c0,41.4,33.6,75,75,75s75-33.6,75-75
	C2100.4,1660.8,2066.8,1627.2,2025.4,1627.2z"/>
<path d="M1048.2,1897.2c-107.7,0-195-87.3-195-195s87.3-195,195-195s195,87.3,195,195C1243.1,1809.8,1155.9,1897.1,1048.2,1897.2z
	 M1048.2,1627.2c-41.4,0-75,33.6-75,75c0,41.4,33.6,75,75,75c41.4,0,75-33.6,75-75C1123.2,1660.8,1089.7,1627.2,1048.2,1627.2z"/>
<path d="M1536.8,1897.2c-107.7,0-195-87.3-195-195s87.3-195,195-195s195,87.3,195,195C1731.7,1809.8,1644.5,1897.1,1536.8,1897.2z
	 M1536.8,1627.2c-41.4,0-75,33.6-75,75c0,41.4,33.6,75,75,75s75-33.6,75-75C1611.8,1660.8,1578.2,1627.2,1536.8,1627.2z"/>
<path d="M2025.4,1457.9c-107.7,0-195-87.3-195-195s87.3-195,195-195c107.7,0,195,87.3,195,195
	C2220.3,1370.6,2133.1,1457.8,2025.4,1457.9z M2025.4,1187.9c-41.4,0-75,33.6-75,75c0,41.4,33.6,75,75,75s75-33.6,75-75
	C2100.4,1221.5,2066.8,1188,2025.4,1187.9z"/>
<path d="M1048.2,1457.9c-107.7,0-195-87.3-195-195s87.3-195,195-195s195,87.3,195,195C1243.1,1370.6,1155.9,1457.8,1048.2,1457.9z
	 M1048.2,1187.9c-41.4,0-75,33.6-75,75c0,41.4,33.6,75,75,75c41.4,0,75-33.6,75-75C1123.2,1221.5,1089.7,1188,1048.2,1187.9z"/>
<path d="M1536.8,1457.9c-107.7,0-195-87.3-195-195s87.3-195,195-195s195,87.3,195,195C1731.7,1370.6,1644.5,1457.8,1536.8,1457.9z
	 M1536.8,1187.9c-41.4,0-75,33.6-75,75c0,41.4,33.6,75,75,75s75-33.6,75-75C1611.8,1221.5,1578.2,1188,1536.8,1187.9z"/>
<path d="M2025.4,2761.7c-107.7,0-195-87.3-195-195c0-107.7,87.3-195,195-195c107.7,0,195,87.3,195,195
	C2220.3,2674.3,2133.1,2761.6,2025.4,2761.7z M2025.4,2491.7c-41.4,0-75,33.6-75,75c0,41.4,33.6,75,75,75s75-33.6,75-75
	C2100.4,2525.3,2066.8,2491.7,2025.4,2491.7z"/>
<path d="M1048.2,2761.7c-107.7,0-195-87.3-195-195c0-107.7,87.3-195,195-195s195,87.3,195,195
	C1243.1,2674.3,1155.9,2761.6,1048.2,2761.7z M1048.2,2491.7c-41.4,0-75,33.6-75,75c0,41.4,33.6,75,75,75c41.4,0,75-33.6,75-75
	C1123.2,2525.3,1089.7,2491.7,1048.2,2491.7z"/>
<path d="M1536.8,2761.7c-107.7,0-195-87.3-195-195c0-107.7,87.3-195,195-195s195,87.3,195,195
	C1731.7,2674.3,1644.5,2761.6,1536.8,2761.7z M1536.8,2491.7c-41.4,0-75,33.6-75,75c0,41.4,33.6,75,75,75s75-33.6,75-75
	C1611.8,2525.3,1578.2,2491.7,1536.8,2491.7z"/>
<path d="M2025.4,3237.4c-107.7,0-195-87.3-195-195c0-107.7,87.3-195,195-195c107.7,0,195,87.3,195,195
	C2220.3,3150.1,2133.1,3237.3,2025.4,3237.4z M2025.4,2967.4c-41.4,0-75,33.6-75,75c0,41.4,33.6,75,75,75s75-33.6,75-75
	C2100.4,3001,2066.8,2967.5,2025.4,2967.4z"/>
<path d="M1048.2,3237.4c-107.7,0-195-87.3-195-195c0-107.7,87.3-195,195-195s195,87.3,195,195
	C1243.1,3150.1,1155.9,3237.3,1048.2,3237.4z M1048.2,2967.4c-41.4,0-75,33.6-75,75c0,41.4,33.6,75,75,75c41.4,0,75-33.6,75-75
	C1123.2,3001,1089.7,2967.5,1048.2,2967.4z"/>
<path d="M1536.8,3237.4c-107.7,0-195-87.3-195-195c0-107.7,87.3-195,195-195s195,87.3,195,195
	C1731.7,3150.1,1644.5,3237.3,1536.8,3237.4z M1536.8,2967.4c-41.4,0-75,33.6-75,75c0,41.4,33.6,75,75,75s75-33.6,75-75
	C1611.8,3001,1578.2,2967.5,1536.8,2967.4z"/>
<path d="M556.5,2332.2c-107.7,0-195-87.3-195-195c0-107.7,87.3-195,195-195s195,87.3,195,195
	C751.4,2244.8,664.1,2332.1,556.5,2332.2z M556.5,2062.2c-41.4,0-75,33.6-75,75c0,41.4,33.6,75,75,75s75-33.6,75-75
	C631.5,2095.8,597.9,2062.2,556.5,2062.2z"/>
<path d="M556.5,1897.2c-107.7,0-195-87.3-195-195s87.3-195,195-195s195,87.3,195,195C751.4,1809.8,664.1,1897.1,556.5,1897.2z
	 M556.5,1627.2c-41.4,0-75,33.6-75,75c0,41.4,33.6,75,75,75s75-33.6,75-75C631.5,1660.8,597.9,1627.2,556.5,1627.2z"/>
<path d="M556.5,1457.9c-107.7,0-195-87.3-195-195s87.3-195,195-195s195,87.3,195,195C751.4,1370.6,664.1,1457.8,556.5,1457.9z
	 M556.5,1187.9c-41.4,0-75,33.6-75,75c0,41.4,33.6,75,75,75s75-33.6,75-75C631.5,1221.5,597.9,1188,556.5,1187.9z"/>
<path d="M556.5,2761.7c-107.7,0-195-87.3-195-195c0-107.7,87.3-195,195-195s195,87.3,195,195
	C751.4,2674.3,664.1,2761.6,556.5,2761.7z M556.5,2491.7c-41.4,0-75,33.6-75,75c0,41.4,33.6,75,75,75s75-33.6,75-75
	C631.5,2525.3,597.9,2491.7,556.5,2491.7z"/>
<path d="M556.5,3237.4c-107.7,0-195-87.3-195-195c0-107.7,87.3-195,195-195s195,87.3,195,195
	C751.4,3150.1,664.1,3237.3,556.5,3237.4z M556.5,2967.4c-41.4,0-75,33.6-75,75c0,41.4,33.6,75,75,75s75-33.6,75-75
	C631.5,3001,597.9,2967.5,556.5,2967.4z"/>
<path d="M2531.5,2332.2c-107.7,0-195-87.3-195-195c0-107.7,87.3-195,195-195s195,87.3,195,195
	C2726.4,2244.8,2639.1,2332.1,2531.5,2332.2z M2531.5,2062.2c-41.4,0-75,33.6-75,75c0,41.4,33.6,75,75,75s75-33.6,75-75
	C2606.5,2095.8,2572.9,2062.2,2531.5,2062.2z"/>
<path d="M2531.5,1897.2c-107.7,0-195-87.3-195-195s87.3-195,195-195s195,87.3,195,195C2726.4,1809.8,2639.1,1897.1,2531.5,1897.2z
	 M2531.5,1627.2c-41.4,0-75,33.6-75,75c0,41.4,33.6,75,75,75s75-33.6,75-75C2606.5,1660.8,2572.9,1627.2,2531.5,1627.2z"/>
<path d="M2531.5,1457.9c-107.7,0-195-87.3-195-195s87.3-195,195-195s195,87.3,195,195C2726.4,1370.6,2639.1,1457.8,2531.5,1457.9z
	 M2531.5,1187.9c-41.4,0-75,33.6-75,75c0,41.4,33.6,75,75,75s75-33.6,75-75C2606.5,1221.5,2572.9,1188,2531.5,1187.9z"/>
<path d="M2531.5,2761.7c-107.7,0-195-87.3-195-195c0-107.7,87.3-195,195-195s195,87.3,195,195
	C2726.4,2674.3,2639.1,2761.6,2531.5,2761.7z M2531.5,2491.7c-41.4,0-75,33.6-75,75c0,41.4,33.6,75,75,75s75-33.6,75-75
	C2606.5,2525.3,2572.9,2491.7,2531.5,2491.7z"/>
<path d="M2531.5,3237.4c-107.7,0-195-87.3-195-195c0-107.7,87.3-195,195-195s195,87.3,195,195
	C2726.4,3150.1,2639.1,3237.3,2531.5,3237.4z M2531.5,2967.4c-41.4,0-75,33.6-75,75c0,41.4,33.6,75,75,75s75-33.6,75-75
	C2606.5,3001,2572.9,2967.5,2531.5,2967.4z"/>
</svg>
