<svg id="Layer_1" enable-background="new 0 0 504.5 504.5" height="512" viewBox="0 0 504.5 504.5" width="512" xmlns="http://www.w3.org/2000/svg"><g><g><g><g><path d="m257.85 68.069c-4.143 0-7.5-3.358-7.5-7.5v-18.936c0-14.686-11.948-26.633-26.633-26.633h-66.327c-14.686 0-26.633 11.947-26.633 26.633v18.936c0 4.142-3.357 7.5-7.5 7.5s-7.5-3.358-7.5-7.5v-18.936c0-22.957 18.677-41.633 41.633-41.633h66.327c22.956 0 41.633 18.676 41.633 41.633v18.936c0 4.142-3.358 7.5-7.5 7.5z" fill="#c2d8ed"/></g><path d="m377.357 90.768v206.919c0 21.48-17.413 38.892-38.892 38.892h-295.823c-21.48 0-38.892-17.413-38.892-38.892v-206.919c0-21.48 17.413-38.892 38.892-38.892h295.822c21.48 0 38.893 17.412 38.893 38.892z" fill="#ff5e57"/><path d="m338.464 51.876h-30c21.48 0 38.892 17.413 38.892 38.892v206.919c0 21.48-17.413 38.892-38.892 38.892h30c21.48 0 38.892-17.413 38.892-38.892v-206.919c.001-21.479-17.412-38.892-38.892-38.892z" fill="#f7372f"/><path d="m263.137 165.867h-44.223v-44.224h-56.721v44.224h-44.224v56.721h44.224v44.224h56.721v-44.224h44.223z" fill="#fff6db"/></g></g><g><g><path d="m423.685 255.161-23.722-20.528c-5.093-4.407-8.02-10.81-8.02-17.545v-7.768h-44.511v7.768c0 6.735-2.927 13.138-8.02 17.546l-23.722 20.528c-4.742 4.104-7.467 10.066-7.467 16.338v120.406c0 11.933 9.673 21.606 21.606 21.606h79.716c11.933 0 21.606-9.673 21.606-21.606v-120.407c.002-6.272-2.723-12.234-7.466-16.338z" fill="#cff5ff"/><path d="m423.685 255.161-23.722-20.528c-5.093-4.407-8.02-10.81-8.02-17.545v-7.768h-30v7.768c0 6.735 2.927 13.138 8.02 17.545l23.722 20.528c4.742 4.104 7.468 10.066 7.468 16.338v120.406c0 11.933-9.673 21.606-21.606 21.606h30c11.933 0 21.606-9.673 21.606-21.606v-120.406c0-6.272-2.725-12.234-7.468-16.338z" fill="#b8f0ff"/><path d="m393.297 368.241h-47.216c-4.424 0-8.011-3.587-8.011-8.011v-61.4c0-4.424 3.586-8.011 8.011-8.011h47.216c4.424 0 8.011 3.587 8.011 8.011v61.4c-.001 4.425-3.587 8.011-8.011 8.011z" fill="#ff8a85"/><path d="m405.592 209.297h-71.807v-25.249c0-5.15 4.175-9.324 9.324-9.324h53.159c5.15 0 9.324 4.175 9.324 9.324z" fill="#ff8a85"/><path d="m396.268 174.723h-30c5.149 0 9.324 4.175 9.324 9.324v25.25h30v-25.25c0-5.149-4.175-9.324-9.324-9.324z" fill="#ff5e57"/></g><g><path d="m497.31 392.691-98.77 98.77c-4.586 4.586-12.022 4.586-16.609 0l-44.607-44.607c-4.586-4.586-4.586-12.022 0-16.609l98.77-98.77c4.586-4.586 12.022-4.586 16.609 0l44.607 44.607c4.587 4.587 4.587 12.023 0 16.609z" fill="#c2d8ed"/><path d="m497.31 376.082-44.607-44.607c-4.586-4.586-12.022-4.586-16.609 0l-6.696 6.696 37.911 37.911c4.586 4.586 4.586 12.022 0 16.609l-92.074 92.074 6.696 6.696c4.586 4.586 12.022 4.586 16.609 0l98.77-98.77c4.587-4.587 4.587-12.022 0-16.609z" fill="#b4cae0"/><g><g><g><path d="m370.799 443.307c9.652 0 9.668-15 0-15-9.652 0-9.668 15 0 15z" fill="#fff6db"/></g><g><path d="m394.418 419.688c9.652 0 9.668-15 0-15-9.652 0-9.668 15 0 15z" fill="#fff6db"/></g><g><path d="m418.037 396.069c9.652 0 9.668-15 0-15-9.652 0-9.667 15 0 15z" fill="#fff6db"/></g><g><path d="m441.656 372.45c9.652 0 9.668-15 0-15-9.651 0-9.667 15 0 15z" fill="#fff6db"/></g></g><g><g><path d="m391.204 463.712c9.652 0 9.668-15 0-15-9.652 0-9.668 15 0 15z" fill="#fff6db"/></g><g><path d="m414.823 440.093c9.652 0 9.668-15 0-15-9.651 0-9.667 15 0 15z" fill="#fff6db"/></g><g><path d="m438.442 416.474c9.652 0 9.668-15 0-15-9.651 0-9.667 15 0 15z" fill="#fff6db"/></g><g><path d="m462.062 392.855c9.652 0 9.668-15 0-15-9.652 0-9.668 15 0 15z" fill="#fff6db"/></g></g></g></g></g><g><path d="m175.869 307.859c-33.491 0-60.641 27.15-60.641 60.641s27.15 60.641 60.641 60.641 60.641-27.15 60.641-60.641-27.15-60.641-60.641-60.641zm0 86.152c-14.067 0-25.511-11.444-25.511-25.511s11.445-25.511 25.511-25.511 25.511 11.444 25.511 25.511-11.444 25.511-25.511 25.511z" fill="#cff5ff"/><g><path d="m235.191 296.496v120.214c0 7.614 16.347 13.786 36.513 13.786 20.165 0 36.513-6.172 36.513-13.786v-120.214z" fill="#ffe354"/><path d="m308.217 420.202c-1.471 40.99-32.351 66.908-55.144 75.363-30.744 11.405-55.879 8.639-55.879 8.639v-120.213s26.373 5.667 55.879-8.639c24.263-11.764 55.144-46.321 55.144-78.856z" fill="#fff6db"/><path d="m278.217 356.834v63.369c-1.47 40.99-32.351 66.908-55.144 75.363-9.327 3.46-18.13 5.61-25.879 6.934v1.705s25.136 2.766 55.879-8.639c22.793-8.455 53.674-34.373 55.144-75.363v-123.707c0 21.66-13.691 44.207-30 60.338z" fill="#ffeebd"/><ellipse cx="271.704" cy="296.496" fill="#ffefc2" rx="36.513" ry="13.786"/></g></g></g></svg>