<?xml version="1.0" encoding="utf-8"?>
<!-- Generator: Adobe Illustrator 17.1.0, SVG Export Plug-In . SVG Version: 6.00 Build 0)  -->
<!DOCTYPE svg PUBLIC "-//W3C//DTD SVG 1.1//EN" "http://www.w3.org/Graphics/SVG/1.1/DTD/svg11.dtd">
<svg version="1.1" id="Capa_1" xmlns="http://www.w3.org/2000/svg" xmlns:xlink="http://www.w3.org/1999/xlink" x="0px" y="0px"
	 viewBox="0 0 3000 4000" enable-background="new 0 0 3000 4000" xml:space="preserve">
<g>
	<g>
		<path d="M1327.2,539c0.8,0.1,1.6,0.1,2.4,0.2c11.7-2.8,23.4-5,35.2-6.8c-20.6-3-41.2-5.6-61.8-7.7c-16.3,0.2-32.6,0.3-48.8,0.5
			c5.2,3.3,10.4,6.6,15.6,9.9C1288.9,536.2,1308.1,537.6,1327.2,539z"/>
		<path d="M1417,546.5c6.1-0.6,12.3-1.2,18.4-1.8c-12-2.5-24.1-4.8-36.2-6.8c-11,1.1-21.9,2.5-32.8,4.2
			C1383.3,543.4,1400.2,544.9,1417,546.5z"/>
		<path d="M1466.5,541.4c5.3-0.6,10.6-1.2,15.9-1.8c-3.6-2.4-7.3-4.8-10.9-7.2c-12.1,0.5-24.2,1.2-36.3,2.1
			C1445.7,536.7,1456.1,539,1466.5,541.4z"/>
		<path d="M1415.6,526.3c13.6-1.3,27.1-2.3,40.7-3c-27.2,0.2-54.4,0.4-81.6,0.6c8.2,1.3,16.4,2.6,24.7,4
			C1404.8,527.3,1410.2,526.8,1415.6,526.3z"/>
		<path d="M1546.4,531.6c-19.2-0.3-38.4-0.2-57.6,0.3c3,2,5.9,4,8.9,6c16.3-1.9,32.6-3.8,49-5.6
			C1546.5,532,1546.4,531.8,1546.4,531.6z"/>
		<path d="M1509.9,546.5c1.5,1.1,3,2.2,4.5,3.3h20.5c6.4,0,6.4,10,0,10h-0.5c1.6,0.5,3.3,1,4.9,1.5c3,0.5,5.9,0.9,8.9,1.4
			c1.8-6.8,2.1-13.9,1-20.8C1536.1,543.5,1523,545,1509.9,546.5z"/>
		<path d="M1488.8,571.1c-59-6.5-118.1-12.4-177.2-16.9c-2.6,0.7-5.2,1.5-7.9,2.2c9.1,5.7,18.3,11.4,27.6,16.8
			c67.8,2.1,135.5,4,203.3,5.1c-1-0.8-2-1.6-3-2.5C1517.4,574.3,1503.1,572.6,1488.8,571.1z"/>
		<path d="M1248.9,533.5c-3.8-2.4-7.6-4.8-11.5-7.1c-12.8,1.1-25.7,2.4-38.5,3.8C1215.6,531.3,1232.2,532.4,1248.9,533.5z"/>
		<path d="M1516.1,608.3c-5.9-1-11.8-2-17.8-2.9c-6.2-0.2-12.5-0.5-18.7-0.7c-5.1,0.1-10.2,0.3-15.3,0.5c17,1.6,33.9,2.8,50.9,3.5
			C1515.6,608.6,1515.8,608.4,1516.1,608.3z"/>
		<path d="M1403.5,608c-0.8,0-1.5,0.1-2.3,0.1l-0.7,1.1c21.7,9.3,44.1,16.7,67.3,20.6c9.2-4.1,18.4-8.2,27.6-12.2
			C1464.7,615.6,1434,612.2,1403.5,608z"/>
		<path d="M1416.6,585.8c25.3,2.2,50.7,5,75.9,8.6c9.2-0.1,18.4-0.2,27.6-0.2c1.9,0,3.2,0.9,4,2.1c1.7,0,3.3,0.1,5,0.1l5.3-8
			C1495.2,587.7,1455.9,586.8,1416.6,585.8z"/>
		<path d="M1486.8,632.2c6,0.5,12,0.7,18,0.7l8.3-12.4C1504.3,624.4,1495.6,628.3,1486.8,632.2z"/>
		<path d="M1351,600.1c-1.3-0.2-2.5-0.4-3.8-0.6c-8.3-1.3-16.5-2.7-24.8-4.1c-28.2-2-56.5-4.2-84.7-6.3c-12.2,0.1-24.4,0.4-36.6,0.9
			c-10.7,3.5-21.5,6.9-32.3,10.1H1351z"/>
		<path d="M1117.6,603c14.6-3.1,29.1-6.9,43.4-11.1c-37.2,2.4-74.3,6.3-111,12.4v1.6c11.8,1,23.6,1.8,35.4,2.4
			C1096,604.9,1106.8,603.2,1117.6,603z"/>
		<path d="M1498.2,642.8c-9.7-0.3-19.4-1.2-29.1-2.8c-24.8,11-49.7,21.8-74.7,32.3c31.7-6.1,63.4-11.6,95.3-16.8L1498.2,642.8z"/>
		<path d="M1452.1,636.7c-7.4-1.7-14.8-3.7-22.1-6c-12-3.8-23.6-8.2-35.1-13.2l-36.5,54.8c-1.1,1.7-2.1,3.4-3,5.2
			c9-3.6,18.1-7.2,27.1-10.9C1405.8,656.9,1429,646.9,1452.1,636.7z"/>
		<path d="M2994.9,3428L1945,1278.1c-14.3-24.8-46.1-33.4-71-19c-7.9,4.6-14.5,11.1-19,19l-94,192.5L1545,1028.1
			c-14.3-24.8-46.1-33.4-71-19c-7.9,4.6-14.5,11.1-19,19l-216.1,442.6l-88.8-182.2V900h350c27.6,0,50-22.4,50-50
			c0-9.9-2.9-19.5-8.4-27.8L1460,700l22.1-33.2c-43.9,7.2-87.8,15.2-131.4,24.4c-2.2,12.5,0.3,25.6,7.6,36.6l0.6,1
			c14.4,7.7,28.3,17,39,29.4c3.8,4.4-0.9,10.3-6.1,7.9c-4.1-1.9-8.2-4-12.2-6.1l26.8,40.2H1150V629.9c-33.3,3.3-66.6,6.6-100,9.4
			v649.1L5.1,3428c-12.1,24.8-1.8,54.8,23,66.8c6.8,3.3,14.3,5.1,21.9,5H2950c27.6,0,50-22.3,50-49.9
			C3000,3442.4,2998.3,3434.9,2994.9,3428z M1500,1163.9l205.4,420.6L1500,2005.3l-205.3-420.7L1500,1163.9z M130.1,3399.9l970-1986
			l344.2,705.3l-107.4,220l-191.5-410.4c-11.7-25-41.4-35.8-66.5-24.1c-10.6,5-19.2,13.5-24.1,24.1L368.2,3399.9H130.1z
			 M478.5,3399.9L1100,2068.2l190.5,408.2c8.2,17.5,25.7,28.7,45,28.8c19.2,0,36.8-10.8,45.3-28L1900,1413.9l970,1986H478.5z"/>
		<path d="M1065.2,592c28.3-4,56.7-7,85.3-9.2c-33.5-2.2-66.9-4.1-100.4-5.6v17C1055.1,593.5,1060.1,592.7,1065.2,592z"/>
		<path d="M1310.9,572.6c-6.7-4.1-13.3-8.2-19.9-12.4c-11.2,3.4-22.3,7-33.4,10.7C1275.3,571.5,1293.1,572.1,1310.9,572.6z"/>
		<path d="M1230.9,569.4c5-1.7,10-3.4,15-5.1c11.3-3.8,22.6-7.6,33.9-11.2c-0.7-0.5-1.5-0.9-2.2-1.4c-40.8-2.7-81.6-4.7-122.5-5.8
			c-12.6,2.9-25.2,4.8-37.9,6c33.8,4.3,67.5,9.6,101,15.3C1222.4,567.9,1226.7,568.7,1230.9,569.4z"/>
		<path d="M1088.6,543.9c-2.7-2.4-2.6-7.9,1.7-8.6c4.6-0.8,9.1-1.5,13.7-2.3c-18-1.5-36.1-3.2-54.1-5.1V544
			C1062.9,544.3,1075.8,544.3,1088.6,543.9z"/>
		<path d="M1050,555.2v10.5c37.3,0.6,74.5,1.5,111.8,2.5C1124.7,562.6,1087.4,557.9,1050,555.2z"/>
		<path d="M1151.6,525.9c-3.7,0-7.3,0-11,0.1c2.2,0.2,4.4,0.3,6.6,0.5C1148.7,526.3,1150.2,526.1,1151.6,525.9z"/>
		<path d="M1085.7,618.8c-1.4,0.2-2.5-0.1-3.5-0.6c-10.7-0.6-21.4-1.3-32.1-2.3v13.5c27.5-2.4,55.1-5,82.5-7.7
			c5.8-0.6,11.6-1.2,17.4-1.7v0c-20.8,0-41.6-0.4-62.3-1.5C1087,618.6,1086.3,618.7,1085.7,618.8z"/>
		<path d="M1441,501.7c1.4-0.1,2.8-0.1,4.2-0.2c-1.7-0.1-3.3-0.2-5-0.3C1440.4,501.4,1440.7,501.6,1441,501.7z"/>
		<path d="M1260.9,510.6c40.4-1.9,80.7-4.3,121.1-6.3c13.5-0.7,27.1-1.3,40.7-1.8c-1.3-0.8-2.7-1.6-4-2.4h-197.1
			c-2.6,0.2-5.1,0.4-7.7,0.7c4.2,2.4,8.3,4.8,12.5,7.3C1237.9,508.8,1249.4,509.6,1260.9,510.6z"/>
		<path d="M1175.4,505.3c9.6,0.4,19.1,0.8,28.7,1.4c-2.5-1.4-5-2.8-7.5-4.1C1189.5,503.4,1182.5,504.3,1175.4,505.3z"/>
		<path d="M1050,513.4v2.8c12.4,0,24.7,0,37.1,0c0.4-1.1,1.2-2.1,2.4-2.7C1076.4,513.3,1063.2,513.3,1050,513.4z"/>
		<path d="M1127.6,503.9c6.4-1.4,12.9-2.6,19.4-3.8h-97v3.4C1075.9,503.2,1101.8,503.4,1127.6,503.9z"/>
	</g>
	<rect x="771.9" y="318" fill="#FFFDFD" width="893.7" height="620.4"/>
	<rect x="325" y="656.1" fill="#FFFDFD" width="893.7" height="620.4"/>
	<rect x="-61" y="3339.7" fill="#FFFDFD" width="3139.6" height="620.4"/>
</g>
</svg>
