<svg id="Capa_1" enable-background="new 0 0 512 512" height="512" viewBox="0 0 512 512" width="512" xmlns="http://www.w3.org/2000/svg"><g><g><g fill="#0f3d4f"><path d="m511.979 195.477c-.38-8.076-7.329-14.289-15.405-14.289h-230.577c-3.905 3.909-6.094 6.101-9.999 10.01v10.01c3.905 3.909 6.094 6.101 9.999 10.01h231.001c8.523 0 15.386-7.118 14.981-15.741z"/><path d="m496.997 331.34c8.524 0 15.387-7.119 14.981-15.741-.38-8.076-7.329-14.289-15.405-14.289h-230.577c-3.905 3.909-6.094 6.101-9.999 10.01v10.01c3.905 3.909 6.094 6.101 9.999 10.01z"/><path d="m496.997 451.462c8.524 0 15.387-7.119 14.981-15.741-.38-8.076-7.329-14.289-15.405-14.289h-230.576c-3.905 3.909-6.094 6.101-9.999 10.01v10.01c3.905 3.909 6.094 6.101 9.999 10.01z"/><path d="m511.979 75.355c-.38-8.076-7.329-14.289-15.405-14.289h-230.577c-3.905 3.909-6.094 6.101-9.999 10.01v10.01c3.905 3.909 6.094 6.101 9.999 10.01h231.001c8.523 0 15.386-7.118 14.981-15.741z"/></g><path d="m14.998 61.066c-8.283 0-14.998 6.722-14.998 15.015s6.715 15.015 14.998 15.015h250.998v-30.03z" fill="#175066"/><path d="m15.048 181.188c-8.283 0-14.998 6.723-14.998 15.015 0 8.293 6.715 15.015 14.998 15.015h250.949v-30.031h-250.949z" fill="#175066"/><path d="m5.05 316.325c0 8.293 6.715 15.015 14.998 15.015h245.949v-30.03h-245.949c-8.283 0-14.998 6.722-14.998 15.015z" fill="#175066"/><path d="m.05 436.447c0 8.293 6.715 15.015 14.998 15.015h250.949v-30.03h-250.949c-8.283 0-14.998 6.722-14.998 15.015z" fill="#175066"/></g><path d="m346.34 241.068c0-9.949-9.512-17.155-19.077-14.449l-165.325 46.768c-6.46 1.827-10.92 7.729-10.92 14.449v135.075c-38.9-13.552-83.027 18.993-74.267 55.628 5.803 24.27 33.259 38.794 62.273 31.628 21.367-5.274 37.042-21.048 40.997-38.919 1.399-3.677.993 2.581.993-93.706l135.329-36.168v51.708c-38.712-13.471-83.172 18.276-74.253 54.953 4.855 19.961 24.792 33 47.632 33 31.463 0 58.9-24.088 56.438-52.308.267-1.814.18 11.319.18-187.659z" fill="#fc7c54"/><path d="m346.163 428.729c2.467 28.392-25.175 52.303-56.444 52.303-22.838 0-42.776-13.033-47.625-32.994-8.887-36.487 35.381-68.471 74.252-54.956v-51.712l-75.402 20.15v-110.481l86.321-24.425c9.613-2.704 19.078 4.553 19.078 14.455 0 199.126.088 185.731-.18 187.66z" fill="#f35743"/><path d="m105.039 136.142c0-8.293-6.715-15.015-14.998-15.015s-14.998 6.723-14.998 15.015v136.604c-38.893-13.35-82.638 18.934-73.893 55.055 4.67 19.287 23.58 33.029 47.303 33.029 26.493-.005 49.585-16.899 55.264-38.9 1.905-4.246 1.322 8.189 1.322-185.788z" fill="#ffaf78"/><path d="m105.039 136.142c0 194.082.57 181.554-1.32 185.789-2.15 8.328-6.899 16.146-13.599 22.553v-223.357c8.239.04 14.919 6.757 14.919 15.015z" fill="#ff9b57"/><path d="m511.264 10.384c-2.557-7.887-11.014-12.206-18.895-9.647l-44.627 14.499c-6.182 2.008-10.369 7.775-10.369 14.282v124.05c-38.927-13.362-82.63 18.958-73.892 55.054 5.869 24.246 33.424 38.217 62.006 31.247 26.642-6.497 44.404-29.213 41.567-51.961.471-2.266.317 7.737.317-147.477l34.258-11.13c7.877-2.56 12.191-11.029 9.635-18.917z" fill="#ff9b57"/><path d="m501.627 29.303-34.256 11.131c0 155.252.156 145.224-.32 147.47 1.71 13.684-4.03 27.348-14.678 37.488v-211.654l39.996-13.003c7.879-2.553 16.338 1.762 18.898 9.65 2.549 7.887-1.761 16.356-9.64 18.918z" fill="#fc7c54"/></g></svg>