<?xml version="1.0" encoding="utf-8"?>
<!-- Generator: Adobe Illustrator 17.1.0, SVG Export Plug-In . SVG Version: 6.00 Build 0)  -->
<!DOCTYPE svg PUBLIC "-//W3C//DTD SVG 1.1//EN" "http://www.w3.org/Graphics/SVG/1.1/DTD/svg11.dtd">
<svg version="1.1" id="Calque_1" xmlns="http://www.w3.org/2000/svg" xmlns:xlink="http://www.w3.org/1999/xlink" x="0px" y="0px"
	 viewBox="0 0 512 512" enable-background="new 0 0 512 512" xml:space="preserve">
<path fill="#1A9172" d="M273.7,194.2c0-9.8-14.3-27.6-8.8-35V44.1C264.8,19.9,245,0,220.7,0c-24.3,0-44.1,19.9-44.1,44.1v79.8
	c5.5,7.4,0,33.7,0,43.5V256c8.1-10.8,38.5-18,53-18c14.5,0,27.3,7.2,35.3,18L273.7,194.2z"/>
<path fill="#BE7C6D" d="M220.7,229.5c-4.9,0-8.8-4-8.8-8.8V79.4c0-4.9,4-8.8,8.8-8.8c4.9,0,8.8,4,8.8,8.8v141.2
	C229.5,225.6,225.6,229.5,220.7,229.5z"/>
<path fill="#BE7C6D" d="M220.7,229.5c-2.3,0-4.5-0.9-6.2-2.6c-3.5-3.4-3.5-9,0-12.5l17.7-17.7c3.4-3.5,9-3.5,12.5,0s3.5,9,0,12.5
	l-17.7,17.7C225.2,228.7,222.9,229.5,220.7,229.5z"/>
<path fill="#BE7C6D" d="M220.7,150.1c-2.3,0-4.5-0.9-6.2-2.6c-3.5-3.5-3.5-9,0-12.5l17.7-17.7c3.4-3.4,9-3.4,12.5,0
	c3.5,3.5,3.5,9,0,12.5l-17.7,17.7C225.2,149.2,222.9,150.1,220.7,150.1z"/>
<path fill="#BE7C6D" d="M220.7,185.4c-2.3,0-4.5-0.9-6.2-2.6l-17.7-17.7c-3.5-3.4-3.5-9,0-12.5c3.5-3.5,9-3.5,12.5,0l17.7,17.7
	c3.5,3.4,3.5,9,0,12.5C225.2,184.5,222.9,185.4,220.7,185.4z"/>
<path fill="#3D6F44" d="M88.3,35.3c-24.3,0-44.1,19.9-44.1,44.1v114.8c0,0.3,0.1,0.6,0.1,0.9c2.8-0.6,5.7,87.4,8.7,87.4
	c24,0,43.6-41.5,44.1-17.7c0,0,0.1-27.4,0.1-27.4l35.3,53.9V79.4C132.4,55.2,112.6,35.3,88.3,35.3z"/>
<path fill="#61B872" d="M423.7,35.3c-24.3,0-44.1,19.9-44.1,44.1v27.4l8.8,193.3c0,0,0.1,0,0.1,0c0.5-23.9,46.6-61.8,70.5-61.8
	c3,0,5.9-43.8,8.7-43.2c0-0.3,0.1-0.6,0.1-0.9V79.4C467.9,55.2,448,35.3,423.7,35.3z"/>
<path fill="#3D6F44" d="M326.6,353.1V150.3c-7.4-5.6-16.5-9.1-26.5-9.1c-24.3,0-44.1,19.9-44.1,44.1v53.3c5.5,7.4-8.8,16.3-8.8,26.2
	v88.3c0,6.8,16,13.1,13.2,18.8c7.1,14.9,22.2,25.3,39.7,25.3c14.5,0,27.3-7.1,35.3-18C330,371.9,326.6,362.9,326.6,353.1z"/>
<path fill="#61B872" d="M53,397.2c-24.3,0-44.1-19.9-44.1-44.1V238.3c0-24.3,19.9-44.1,44.1-44.1c24.3,0,44.1,19.9,44.1,44.1v114.8
	C97.1,377.4,77.2,397.2,53,397.2z"/>
<path fill="#BE7C6D" d="M53,335.4c-2.3,0-4.5-0.9-6.2-2.6c-3.4-3.5-3.4-9,0-12.5l17.7-17.7c3.5-3.4,9-3.4,12.5,0
	c3.4,3.5,3.4,9,0,12.5l-17.7,17.7C57.5,334.6,55.2,335.4,53,335.4z"/>
<path fill="#BE7C6D" d="M53,370.8c-2.3,0-4.5-0.9-6.2-2.6l-17.7-17.7c-3.5-3.4-3.5-9,0-12.5c3.4-3.5,9-3.5,12.5,0l17.7,17.7
	c3.5,3.4,3.5,9,0,12.5C57.5,369.9,55.2,370.8,53,370.8z"/>
<path fill="#BE7C6D" d="M141.2,335.4c-2.3,0-4.5-0.9-6.2-2.6c-3.5-3.5-3.5-9,0-12.5l17.7-17.7c3.4-3.4,9-3.4,12.5,0
	c3.5,3.5,3.5,9,0,12.5l-17.7,17.7C145.8,334.6,143.5,335.4,141.2,335.4z"/>
<path fill="#BE7C6D" d="M141.2,370.8c-2.3,0-4.5-0.9-6.2-2.6l-17.7-17.7c-3.4-3.4-3.4-9,0-12.5c3.5-3.5,9-3.5,12.5,0l17.7,17.7
	c3.4,3.4,3.4,9,0,12.5C145.8,369.9,143.5,370.8,141.2,370.8z"/>
<path fill="#BE7C6D" d="M141.2,256c-2.3,0-4.5-0.9-6.2-2.6c-3.5-3.5-3.5-9,0-12.5l17.7-17.7c3.4-3.5,9-3.5,12.5,0
	c3.5,3.4,3.5,9,0,12.5l-17.7,17.7C145.8,255.1,143.5,256,141.2,256z"/>
<path fill="#BE7C6D" d="M141.2,291.3c-2.3,0-4.5-0.9-6.2-2.6l-17.7-17.7c-3.4-3.5-3.4-9,0-12.5c3.5-3.4,9-3.4,12.5,0l17.7,17.7
	c3.4,3.4,3.4,9,0,12.5C145.8,290.4,143.5,291.3,141.2,291.3z"/>
<path fill="#61B872" d="M220.7,397.2c-24.3,0-44.1-19.9-44.1-44.1v-88.3c0-24.3,19.9-44.1,44.1-44.1c24.3,0,44.1,19.9,44.1,44.1
	v88.3C264.8,377.4,245,397.2,220.7,397.2z"/>
<path fill="#BE7C6D" d="M220.7,361.9c-2.3,0-4.5-0.9-6.2-2.6c-3.5-3.4-3.5-9,0-12.5l17.7-17.7c3.4-3.5,9-3.5,12.5,0s3.5,9,0,12.5
	l-17.7,17.7C225.2,361.1,222.9,361.9,220.7,361.9z"/>
<path fill="#BE7C6D" d="M53,436.3c-4.9,0-8.8-4-8.8-8.8V273.7c0-4.9,4-8.8,8.8-8.8c4.9,0,8.8,4,8.8,8.8v153.9
	C61.8,432.4,57.8,436.3,53,436.3z"/>
<path fill="#1A9172" d="M459,397.2c24.3,0,44.1-19.9,44.1-44.1V238.3c0-24.3-19.9-44.1-44.1-44.1c-24.3,0-44.1,19.9-44.1,44.1v114.8
	C414.9,377.4,434.8,397.2,459,397.2z"/>
<path fill="#BE7C6D" d="M459,335.4c-2.3,0-4.5-0.9-6.2-2.6l-17.7-17.7c-3.4-3.5-3.4-9,0-12.5c3.5-3.4,9-3.4,12.5,0l17.7,17.7
	c3.4,3.5,3.4,9,0,12.5C463.6,334.6,461.3,335.4,459,335.4z"/>
<path fill="#BE7C6D" d="M459,370.8c-2.3,0-4.5-0.9-6.2-2.6c-3.5-3.5-3.5-9,0-12.5l17.7-17.7c3.4-3.5,9-3.5,12.5,0
	c3.5,3.5,3.5,9,0,12.5l-17.7,17.7C463.6,369.9,461.3,370.8,459,370.8z"/>
<path fill="#23A24D" d="M370.8,397.2c24.3,0,44.1-19.9,44.1-44.1v-203c0-24.3-19.9-44.1-44.1-44.1c-24.3,0-44.1,19.9-44.1,44.1v203
	C326.6,377.4,346.5,397.2,370.8,397.2z"/>
<g>
	<path fill="#BE7C6D" d="M370.8,476.7c-4.9,0-8.8-4-8.8-8.8V185.4c0-4.9,4-8.8,8.8-8.8c4.9,0,8.8,4,8.8,8.8v282.5
		C379.6,472.7,375.6,476.7,370.8,476.7z"/>
	<path fill="#BE7C6D" d="M370.8,335.4c-2.3,0-4.5-0.9-6.2-2.6l-17.7-17.7c-3.5-3.5-3.5-9,0-12.5c3.4-3.4,9-3.4,12.5,0l17.7,17.7
		c3.5,3.5,3.5,9,0,12.5C375.3,334.6,373,335.4,370.8,335.4z"/>
	<path fill="#BE7C6D" d="M370.8,370.8c-2.3,0-4.5-0.9-6.2-2.6c-3.4-3.5-3.4-9,0-12.5l17.7-17.7c3.5-3.5,9-3.5,12.5,0
		c3.4,3.5,3.4,9,0,12.5L377,368.2C375.3,369.9,373,370.8,370.8,370.8z"/>
	<path fill="#BE7C6D" d="M370.8,256c-2.3,0-4.5-0.9-6.2-2.6l-17.7-17.7c-3.5-3.4-3.5-9,0-12.5c3.4-3.5,9-3.5,12.5,0l17.7,17.7
		c3.5,3.5,3.5,9,0,12.5C375.3,255.1,373,256,370.8,256z"/>
	<path fill="#BE7C6D" d="M370.8,291.3c-2.3,0-4.5-0.9-6.2-2.6c-3.4-3.4-3.4-9,0-12.5l17.7-17.7c3.5-3.4,9-3.4,12.5,0
		c3.4,3.5,3.4,9,0,12.5L377,288.7C375.3,290.4,373,291.3,370.8,291.3z"/>
	<path fill="#BE7C6D" d="M300.1,432.6c-4.9,0-8.8-4-8.8-8.8V185.4c0-4.9,4-8.8,8.8-8.8c4.9,0,8.8,4,8.8,8.8v238.3
		C309,428.6,305,432.6,300.1,432.6z"/>
	<path fill="#BE7C6D" d="M300.1,335.4c-2.3,0-4.5-0.9-6.2-2.6l-17.7-17.7c-3.5-3.5-3.5-9,0-12.5c3.4-3.4,9-3.4,12.5,0l17.7,17.7
		c3.5,3.5,3.5,9,0,12.5C304.7,334.6,302.4,335.4,300.1,335.4z"/>
	<path fill="#BE7C6D" d="M300.1,256c-2.3,0-4.5-0.9-6.2-2.6l-17.7-17.7c-3.5-3.4-3.5-9,0-12.5c3.4-3.5,9-3.5,12.5,0l17.7,17.7
		c3.5,3.5,3.5,9,0,12.5C304.7,255.1,302.4,256,300.1,256z"/>
	<path fill="#BE7C6D" d="M459,436.3c-4.9,0-8.8-4-8.8-8.8V273.7c0-4.9,4-8.8,8.8-8.8c4.9,0,8.8,4,8.8,8.8v153.9
		C467.9,432.4,463.9,436.3,459,436.3z"/>
</g>
<path fill="#23A24D" d="M176.6,353.1v-88.3c0-9.8,3.4-18.8,8.8-26.2v-88.6c0-24.3-19.9-44.1-44.1-44.1c-24.3,0-44.1,19.9-44.1,44.1
	v203c0,24.3,19.9,44.1,44.1,44.1c17.5,0,32.6-10.4,39.7-25.3C178.2,366.2,176.6,359.9,176.6,353.1z"/>
<path fill="#BE7C6D" d="M141.2,457.3c-4.9,0-8.8-4-8.8-8.8V185.4c0-4.9,4-8.8,8.8-8.8c4.9,0,8.8,4,8.8,8.8v263.1
	C150.1,453.3,146.1,457.3,141.2,457.3z"/>
<path fill="#BE7C6D" d="M220.7,454.3c-4.9,0-8.8-4-8.8-8.8V300.1c0-4.9,4-8.8,8.8-8.8c4.9,0,8.8,4,8.8,8.8v145.3
	C229.5,450.3,225.6,454.3,220.7,454.3z"/>
<path fill="#61B872" d="M396.4,448.4c2.6,0,5,0.8,7.3,1.9c8-19.3,21.9-26.5,37.6-26.5s29.6,7.2,37.6,26.5c2.3-1.1,4.7-1.9,7.3-1.9
	c14.2,0,25.7,6,25.7,28.3H370.8C370.8,454.4,382.3,448.4,396.4,448.4z"/>
<path fill="#61B872" d="M140.4,448.4c2.6,0,5,0.8,7.3,1.9c8-19.3,21.9-26.5,37.6-26.5s29.6,7.2,37.6,26.5c2.3-1.1,4.7-1.9,7.3-1.9
	c14.2,0,25.7,6,25.7,28.3H114.8C114.8,454.4,126.3,448.4,140.4,448.4z"/>
<path fill="#23A24D" d="M128,450.6c-3.7-1.6-7.9-2.3-12.4-2.3c-2.6,0-5,0.8-7.3,1.9c-8-19.3-21.9-26.5-37.6-26.5S41,430.9,33,450.2
	c-2.3-1.1-4.7-1.9-7.3-1.9c-14.2,0-25.7,6-25.7,28.3h114.8C114.8,461.5,120.1,454,128,450.6z"/>
<path fill="#3D6F44" d="M345.1,448.4c-2.6,0-5,0.8-7.3,1.9c-8-19.3-21.9-26.5-37.7-26.5c-15.8,0-29.6,7.2-37.6,26.5
	c-2.3-1.1-4.7-1.9-7.3-1.9c-4.5,0-8.7,0.7-12.4,2.3c7.9,3.3,13.2,10.9,13.2,26h114.8C370.8,454.4,359.3,448.4,345.1,448.4z"/>
<path fill="#E24C4B" d="M507.8,329.8v0.8c-6.5,24.3-30.8,38.1-55.2,31.6l-8.9-2.4l2.4,8.9c6.5,24.3-8.1,48.7-31.6,55.2h-0.8
	c-24.3,6.5-48.7-8.1-55.2-31.6l-2.4-8.9l-6.5,6.5c-17.8,17.8-46.2,17.8-63.3,0l-0.8-0.8c-17.8-17.8-17.8-46.2,0-64.1l6.5-6.5
	l-8.9-2.4c-24.3-6.5-38.1-30.8-31.6-55.2V260c6.5-23.5,30.8-37.3,55.2-30.8l8.1,2.4l-1.6-8.9c-6.5-24.3,8.1-48.7,31.6-55.2h0.8
	c24.3-6.5,48.7,8.1,55.2,31.6l2.4,8.9l6.5-6.5c17.8-17.8,46.2-17.8,64.1,0l0.8,0.8c17.8,17.8,17.8,46.2,0,63.3l-6.5,6.5l8.9,2.4
	C500.5,281.1,514.2,305.5,507.8,329.8z"/>
<circle fill="#F4C533" cx="379.6" cy="295.7" r="48.7"/>
<circle fill="#FED93D" cx="379.6" cy="295.7" r="33.3"/>
</svg>
