<?xml version="1.0" encoding="utf-8"?>
<!-- Generator: Adobe Illustrator 17.1.0, SVG Export Plug-In . SVG Version: 6.00 Build 0)  -->
<!DOCTYPE svg PUBLIC "-//W3C//DTD SVG 1.1//EN" "http://www.w3.org/Graphics/SVG/1.1/DTD/svg11.dtd">
<svg version="1.1" id="Calque_1" xmlns="http://www.w3.org/2000/svg" xmlns:xlink="http://www.w3.org/1999/xlink" x="0px" y="0px"
	 viewBox="0 0 3000 4000" enable-background="new 0 0 3000 4000" xml:space="preserve">
<title>charts</title>
<path d="M615,2255c-107.7,0-195-87.3-195-195s87.3-195,195-195s195,87.3,195,195C809.9,2167.6,722.6,2254.9,615,2255z M615,1985
	c-41.4,0-75,33.6-75,75c0,41.4,33.6,75,75,75s75-33.6,75-75C690,2018.6,656.4,1985,615,1985z"/>
<path d="M1305,1565c-107.7,0-195-87.3-195-195s87.3-195,195-195s195,87.3,195,195C1499.9,1477.6,1412.6,1564.9,1305,1565z
	 M1305,1295c-41.4,0-75,33.6-75,75s33.6,75,75,75s75-33.6,75-75C1380,1328.6,1346.4,1295,1305,1295z"/>
<path d="M2115,1235c-107.7,0-195-87.3-195-195s87.3-195,195-195s195,87.3,195,195C2309.9,1147.6,2222.6,1234.9,2115,1235z M2115,965
	c-41.4,0-75,33.6-75,75s33.6,75,75,75s75-33.6,75-75C2190,998.6,2156.4,965,2115,965z"/>
<path d="M2595,845c-107.7,0-195-87.3-195-195s87.3-195,195-195s195,87.3,195,195C2789.9,757.6,2702.6,844.9,2595,845z M2595,575
	c-41.4,0-75,33.6-75,75s33.6,75,75,75s75-33.6,75-75C2670,608.6,2636.4,575,2595,575z"/>
<path d="M1545,1145c-107.7,0-195-87.3-195-195s87.3-195,195-195s195,87.3,195,195C1739.9,1057.6,1652.6,1144.9,1545,1145z M1545,875
	c-41.4,0-75,33.6-75,75s33.6,75,75,75s75-33.6,75-75C1620,908.6,1586.4,875,1545,875z"/>
<path d="M2115,755c-107.7,0-195-87.3-195-195s87.3-195,195-195s195,87.3,195,195C2309.9,667.6,2222.6,754.9,2115,755z M2115,485
	c-41.4,0-75,33.6-75,75s33.6,75,75,75s75-33.6,75-75C2190,518.6,2156.4,485,2115,485z"/>
<path d="M675,1745c-107.7,0-195-87.3-195-195s87.3-195,195-195s195,87.3,195,195C869.9,1657.6,782.6,1744.9,675,1745z M675,1475
	c-41.4,0-75,33.6-75,75s33.6,75,75,75s75-33.6,75-75C750,1508.6,716.4,1475,675,1475z"/>
<path d="M1095,1985c-107.7,0-195-87.3-195-195s87.3-195,195-195s195,87.3,195,195C1289.9,1897.6,1202.6,1984.9,1095,1985z
	 M1095,1715c-41.4,0-75,33.6-75,75s33.6,75,75,75s75-33.6,75-75C1170,1748.6,1136.4,1715,1095,1715z"/>
<path d="M1995,2225c-107.7,0-195-87.3-195-195s87.3-195,195-195s195,87.3,195,195C2189.9,2137.6,2102.6,2224.9,1995,2225z
	 M1995,1955c-41.4,0-75,33.6-75,75c0,41.4,33.6,75,75,75s75-33.6,75-75C2070,1988.6,2036.4,1955,1995,1955z"/>
<path d="M1035,2465c-107.7,0-195-87.3-195-195s87.3-195,195-195s195,87.3,195,195C1229.9,2377.6,1142.6,2464.9,1035,2465z
	 M1035,2195c-41.4,0-75,33.6-75,75s33.6,75,75,75c41.4,0,75-33.6,75-75C1110,2228.6,1076.4,2195,1035,2195z"/>
<path d="M1545,1955c-107.7,0-195-87.3-195-195s87.3-195,195-195s195,87.3,195,195C1739.9,1867.6,1652.6,1954.9,1545,1955z
	 M1545,1685c-41.4,0-75,33.6-75,75s33.6,75,75,75s75-33.6,75-75C1620,1718.6,1586.4,1685,1545,1685z"/>
<path d="M1785,1505c-107.7,0-195-87.3-195-195s87.3-195,195-195s195,87.3,195,195C1979.9,1417.6,1892.6,1504.9,1785,1505z
	 M1785,1235c-41.4,0-75,33.6-75,75s33.6,75,75,75s75-33.6,75-75C1860,1268.6,1826.4,1235,1785,1235z"/>
<path d="M405,2825c-107.7,0-195-87.3-195-195s87.3-195,195-195s195,87.3,195,195C599.9,2737.6,512.6,2824.9,405,2825z M405,2555
	c-41.4,0-75,33.6-75,75s33.6,75,75,75s75-33.6,75-75C480,2588.6,446.4,2555,405,2555z"/>
</svg>
