<?xml version="1.0" encoding="utf-8"?>
<!-- Generator: Adobe Illustrator 17.1.0, SVG Export Plug-In . SVG Version: 6.00 Build 0)  -->
<!DOCTYPE svg PUBLIC "-//W3C//DTD SVG 1.1//EN" "http://www.w3.org/Graphics/SVG/1.1/DTD/svg11.dtd">
<svg version="1.1" id="Capa_1" xmlns="http://www.w3.org/2000/svg" xmlns:xlink="http://www.w3.org/1999/xlink" x="0px" y="0px"
	 viewBox="0 0 512 512" enable-background="new 0 0 512 512" xml:space="preserve">
<g>
	<g>
		<path fill="#AA6A51" d="M252,240.9l-105,0.1c-25.3,0-45.9-20.5-45.9-45.8V98.4c0-54.3,44-98.3,98.3-98.3c54.3,0,98.4,44,98.4,98.3
			V195C297.8,220.4,277.3,240.9,252,240.9z"/>
		<path fill="#98D5B9" d="M352.7,367v-52.7c0-36.5-25.8-68-61.5-75.1L244.8,226c-9.2-2.6-15.6-11.1-15.6-20.8v-26.5h-59.5v26.5
			c0,9.7-6.4,18.2-15.6,20.8l-46.3,13.1c-35.8,7.2-61.5,38.6-61.5,75.1V367"/>
		<g>
			<g>
				<path fill="#57BE92" d="M296,374.6c-4.2,0-7.6-3.4-7.6-7.6v-22.7c0-4.2,3.4-7.6,7.6-7.6s7.6,3.4,7.6,7.6V367
					C303.6,371.2,300.2,374.6,296,374.6L296,374.6z"/>
			</g>
			<g>
				<path fill="#57BE92" d="M102.9,374.6c-4.2,0-7.6-3.4-7.6-7.6v-22.7c0-4.2,3.4-7.6,7.6-7.6s7.6,3.4,7.6,7.6V367
					C110.5,371.2,107.1,374.6,102.9,374.6L102.9,374.6z"/>
			</g>
		</g>
		<path fill="#FFCEBF" d="M154.1,226c6.6,4.2,24.4,14.1,48.8,13.1c20.4-0.8,35.2-8.8,41.9-13.1c-9.2-2.6-15.6-11.1-15.6-20.8v-26.5
			h-59.5v26.5C169.7,214.9,163.3,223.4,154.1,226L154.1,226z"/>
		<g>
			<path fill="#FFB09E" d="M239.1,226.2c1.7,0,3.5-0.1,5.2-0.4c-8.9-2.8-15-11.1-15-20.6v-26.5h-59.5v26.5c0,1.9-0.3,3.7-0.7,5.5
				l4,4c7.3,7.3,17.1,11.4,27.4,11.4L239.1,226.2L239.1,226.2z"/>
			<path fill="#FFCEBF" d="M267.3,99.4v46.8v6.5c0,13.1-5.2,25.7-14.4,34.9l-6.7,6.8c-7.3,7.3-17.1,11.4-27.4,11.4h-38.7
				c-10.3,0-20.2-4.1-27.4-11.4l-6.7-6.8c-9.2-9.3-14.4-21.8-14.4-34.9v-6.5V99.4c8.8,2.2,29,5.9,52.7-1.4
				c20.9-6.4,34.5-18.2,40.9-24.6c1.6,3.6,6.2,12.5,16.3,19.1C252.6,99.6,263.5,99.6,267.3,99.4z"/>
			<g>
				<path fill="#FFB09E" d="M131.6,106.3h-17.3c-7.3,0-13.2,5.9-13.2,13.2v20.6c0,7.3,5.9,13.2,13.2,13.2h17.3V106.3z"/>
				<path fill="#FFB09E" d="M267.3,106.3h17.3c7.3,0,13.2,5.9,13.2,13.2v20.6c0,7.3-5.9,13.2-13.2,13.2h-17.3V106.3z"/>
			</g>
		</g>
	</g>
	<g>
		<g>
			<g>
				<path fill="#A79BA7" d="M11.4,389.8c-4.2,0-7.6-3.4-7.6-7.6v-99c0-21.6,2.4-31.3,9.7-38.6l15.8-15.8c3-3,7.8-3,10.8,0
					s3,7.8,0,10.8l-15.8,15.8c-2.7,2.7-5.2,6.9-5.2,27.8v99C19,386.4,15.6,389.8,11.4,389.8z"/>
			</g>
			<path fill="#7A6D79" d="M34.6,234.2c5.9,5.9,15.6,5.9,21.5,0l22.4-22.4c5.9-5.9,5.9-15.6,0-21.5c-5.9-5.9-15.6-5.9-21.5,0
				l-22.4,22.4C28.7,218.7,28.7,228.3,34.6,234.2z"/>
		</g>
	</g>
	<g>
		<path fill="#A79BA7" d="M387.5,389.8c-4.2,0-7.6-3.4-7.6-7.6v-99c0-20.9-2.5-25-5.2-27.8l-15.8-15.8c-3-3-3-7.8,0-10.8
			c3-3,7.8-3,10.8,0l15.8,15.8c7.2,7.2,9.7,17,9.7,38.6v99C395.1,386.4,391.7,389.8,387.5,389.8L387.5,389.8z"/>
	</g>
	<path fill="#7A6D79" d="M364.3,234.2c-5.9,5.9-15.6,5.9-21.5,0l-22.4-22.4c-5.9-5.9-5.9-15.6,0-21.5c5.9-5.9,15.6-5.9,21.5,0
		l22.4,22.4C370.2,218.7,370.2,228.3,364.3,234.2z"/>
	<g>
		<path fill="#918291" d="M37.3,501.9v-90.2h324.3v90.2c0,5.6-4.5,10.1-10.1,10.1h-304C41.9,512,37.3,507.5,37.3,501.9L37.3,501.9z"
			/>
		<path fill="#7A6D79" d="M37.3,450.5v-38.9h324.3v70.3L37.3,450.5z"/>
		<path fill="#918291" d="M379.9,442.1H19c-8.4,0-15.2-6.8-15.2-15.2v-44.6c0-8.4,6.8-15.2,15.2-15.2h360.9
			c8.4,0,15.2,6.8,15.2,15.2v44.6C395.1,435.2,388.3,442.1,379.9,442.1z"/>
	</g>
	<path fill="#E2DEE2" d="M361,0h116.7c16.8,0,30.4,13.6,30.4,30.4V71c0,16.8-13.6,30.4-30.4,30.4h-69.4c-2.6,0-5.1,1.1-6.9,3
		l-19.8,21.6c-2.5,2.7-7.1,1-7.1-2.7l0-12.6c0-5.2-4.2-9.3-9.3-9.3H361c-16.8,0-30.4-13.6-30.4-30.4V30.4C330.6,13.6,344.2,0,361,0z
		"/>
	<g>
		<path fill="#A79BA7" d="M449,43.6h-53.1c-4.2,0-7.6-3.4-7.6-7.6s3.4-7.6,7.6-7.6H449c4.2,0,7.6,3.4,7.6,7.6S453.2,43.6,449,43.6z"
			/>
	</g>
	<g>
		<path fill="#A79BA7" d="M449,74.1h-53.1c-4.2,0-7.6-3.4-7.6-7.6s3.4-7.6,7.6-7.6H449c4.2,0,7.6,3.4,7.6,7.6S453.2,74.1,449,74.1z"
			/>
	</g>
</g>
<g>
	<path fill="#FF9F00" d="M318.9,238.3v35.3h129.6v-35.3H318.9z"/>
	<path fill="#FF7816" d="M383.7,238.3h64.8v35.3h-64.8V238.3z"/>
	<path fill="#FF4B00" d="M449,186.9l-9.5,18.6H327.8l-9.5-18.6c14-19.4,38.4-31.1,65.4-31.1S435,167.5,449,186.9z"/>
	<path fill="#CC1E0D" d="M449,186.9l-9.5,18.6h-55.8v-49.7C410.6,155.8,435,167.5,449,186.9z"/>
	<path fill="#FDBF00" d="M470.5,175.1l-22,74.9H318.9l-22-74.9l14.8-5.7c6.7,12.8,19.6,20.4,30,21.7h6.1
		c13.5-2.1,23.7-22.8,27.8-42.6h16c4.1,19.8,14.3,40.5,27.8,42.6h6.1c10.5-1.3,23.3-8.8,30-21.7L470.5,175.1z"/>
	<path fill="#FF9F00" d="M470.5,175.1l-22,74.9h-64.8V148.5h8c4.1,19.8,14.3,40.5,27.8,42.6h6.1c10.5-1.3,23.3-8.8,30-21.7
		L470.5,175.1z"/>
	<path fill="#FF9F00" d="M301.2,179.4c-9.7,0-18.1-7.9-18.1-17.7s8.3-17.7,18.1-17.7s17.7,7.9,17.7,17.7S311,179.4,301.2,179.4z"/>
	<path fill="#FF7816" d="M466.1,179.4c-9.7,0-17.7-7.9-17.7-17.7s7.9-17.7,17.7-17.7s18.1,7.9,18.1,17.7S475.9,179.4,466.1,179.4z"
		/>
	<path fill="#FF9F00" d="M383.7,120.5c-9.8,0-17.7,7.9-17.7,17.7c0,9.8,7.9,17.7,17.7,17.7s17.7-7.9,17.7-17.7
		C401.3,128.4,393.4,120.5,383.7,120.5z"/>
	<path fill="#FF4B00" d="M383.7,188.7l-20.1,20.1l20.1,20.1l20.1-20.1L383.7,188.7z"/>
	<path fill="#CC1E0D" d="M419,212.3l8.3,8.3l-8.3,8.3l-8.3-8.3L419,212.3z"/>
	<path fill="#FF4B00" d="M348.3,212.3l8.3,8.3l-8.3,8.3l-8.3-8.3L348.3,212.3z"/>
	<path fill="#FF7816" d="M383.7,155.8v-35.3c9.8,0,17.7,7.9,17.7,17.7C401.3,147.9,393.4,155.8,383.7,155.8z"/>
	<path fill="#CC1E0D" d="M403.8,208.8L383.7,229v-40.3L403.8,208.8z"/>
</g>
</svg>
