<svg height="512pt" viewBox="-67 0 512 512" width="512pt" xmlns="http://www.w3.org/2000/svg"><path d="m33.589844 15h270.820312c10.222656 0 18.589844 8.367188 18.589844 18.589844v270.820312c0 10.222656-8.367188 18.589844-18.589844 18.589844h-270.820312c-10.222656 0-18.589844-8.367188-18.589844-18.589844v-270.816406c0-10.226562 8.367188-18.59375 18.589844-18.59375zm0 0" fill="#f5f0eb" fill-rule="evenodd"/><path d="m304.410156 15h-135.472656v308h135.472656c10.222656 0 18.589844-8.367188 18.589844-18.589844v-270.820312c0-10.222656-8.367188-18.589844-18.589844-18.589844zm0 0" fill="#ebe1dc" fill-rule="evenodd"/><path d="m304.410156 338h-270.820312c-18.519532 0-33.589844-15.070312-33.589844-33.589844v-270.820312c0-18.519532 15.070312-33.589844 33.589844-33.589844h270.820312c18.519532 0 33.589844 15.070312 33.589844 33.589844v270.820312c0 18.523438-15.070312 33.589844-33.589844 33.589844zm-270.820312-308c-1.945313 0-3.589844 1.644531-3.589844 3.589844v270.820312c0 1.945313 1.644531 3.589844 3.589844 3.589844h270.820312c1.945313 0 3.589844-1.644531 3.589844-3.589844v-270.820312c0-1.945313-1.644531-3.589844-3.589844-3.589844zm0 0" fill="#ff1f3e"/><path d="m304.410156 0h-135.472656v30h135.472656c1.945313 0 3.589844 1.644531 3.589844 3.589844v270.820312c0 1.945313-1.644531 3.589844-3.589844 3.589844h-135.472656v30h135.472656c18.519532 0 33.589844-15.070312 33.589844-33.589844v-270.820312c0-18.519532-15.070312-33.589844-33.589844-33.589844zm0 0" fill="#d10050"/><path d="m169 245.167969c-42 0-76.167969-34.167969-76.167969-76.167969 0-41.996094 34.167969-76.164062 76.167969-76.164062s76.167969 34.167968 76.167969 76.164062c0 42-34.167969 76.167969-76.167969 76.167969zm0 0" fill="#ff1f3e"/><path d="m169 92.835938c-.019531 0-.042969 0-.0625 0v152.332031h.0625c42 0 76.167969-34.167969 76.167969-76.167969 0-41.996094-34.167969-76.164062-76.167969-76.164062zm0 0" fill="#d10050"/><path d="m191.261719 512h156.675781c16.566406 0 29.996094-13.425781 30-29.988281l.0625-195.105469c0-16.570312-13.429688-30-30-30-16.566406 0-30 13.429688-30 30 0-16.570312-13.429688-30-30-30-16.566406 0-30 13.429688-30 30 0-16.570312-13.429688-30-30-30-16.566406 0-30 13.429688-30 30v-97.082031c0-16.570313-13.429688-30-30-30-16.566406 0-30 13.429687-30 30v139.894531l-15.128906-26.203125c-8.171875-14.15625-26.179688-19.714844-40.554688-11.933594-14.917968 8.074219-20.140625 26.800781-11.71875 41.390625l94.679688 164.023438c5.359375 9.285156 15.265625 15.003906 25.984375 15.003906zm0 0" fill="#fdd1a3"/><path d="m348 256.90625c-16.566406 0-30 13.429688-30 30 0-16.570312-13.429688-30-30-30-16.566406 0-30 13.429688-30 30v225.09375h89.9375c16.566406 0 29.996094-13.425781 30-29.992188l.0625-195.101562c0-16.566406-13.429688-30-30-30zm0 0" fill="#ffbb85"/></svg>