<?xml version="1.0" encoding="utf-8"?>
<!-- Generator: Adobe Illustrator 17.1.0, SVG Export Plug-In . SVG Version: 6.00 Build 0)  -->
<!DOCTYPE svg PUBLIC "-//W3C//DTD SVG 1.1//EN" "http://www.w3.org/Graphics/SVG/1.1/DTD/svg11.dtd">
<svg version="1.1" id="Capa_1" xmlns="http://www.w3.org/2000/svg" xmlns:xlink="http://www.w3.org/1999/xlink" x="0px" y="0px"
	 viewBox="0 0 405.1 405.1" enable-background="new 0 0 405.1 405.1" xml:space="preserve">
<g>
	<g>
		<g>
			<path d="M132,196.6h183.9L285.4,227c-3.4,3.4-3.4,8.9,0,12.3c3.4,3.4,8.9,3.4,12.3,0l45.4-45.2c0,0,0,0,0,0
				c3.4-3.4,3.4-8.9,0-12.3c0,0,0,0,0,0l-45.4-45.2c-3.4-3.4-8.9-3.4-12.3,0c-3.4,3.4-3.4,8.9,0,12.3l30.5,30.3H132
				c-4.8,0-8.7,3.9-8.7,8.7C123.3,192.8,127.2,196.6,132,196.6z"/>
		</g>
	</g>
	<rect x="62.9" y="34.9" stroke="#000000" stroke-width="6" stroke-miterlimit="10" width="75.3" height="306.1"/>
</g>
</svg>
