<?xml version="1.0" encoding="utf-8"?>
<!-- Generator: Adobe Illustrator 17.1.0, SVG Export Plug-In . SVG Version: 6.00 Build 0)  -->
<!DOCTYPE svg PUBLIC "-//W3C//DTD SVG 1.1//EN" "http://www.w3.org/Graphics/SVG/1.1/DTD/svg11.dtd">
<svg version="1.1" id="Capa_1" xmlns="http://www.w3.org/2000/svg" xmlns:xlink="http://www.w3.org/1999/xlink" x="0px" y="0px"
	 viewBox="0 0 512 512" enable-background="new 0 0 512 512" xml:space="preserve">
<g>
	<path fill="#A2847D" d="M511,74.3H1c-0.6,0-1,0.5-1,1v357.7c0,0.6,0.5,1,1,1h510c0.6,0,1-0.5,1-1V75.3
		C512,74.8,511.5,74.3,511,74.3z"/>
	<path fill="#665E66" d="M480.1,105.2H31.9c-0.6,0-1,0.5-1,1v295.9c0,0.6,0.5,1,1,1h277.4v-16.6c0-0.6,0.5-1.1,1.1-1.1h143.8
		c0.6,0,1.1,0.5,1.1,1.1v16.6h24.7c0.6,0,1-0.5,1-1V106.3C481.1,105.7,480.6,105.2,480.1,105.2L480.1,105.2z"/>
	<path fill="#544F57" d="M480.1,105.2h-40.2v137.7c0,77.1-62.5,139.7-139.7,139.7H30.9v19.6c0,0.6,0.5,1,1,1h448.2c0.6,0,1-0.5,1-1
		V106.3C481.1,105.7,480.6,105.2,480.1,105.2z"/>
	<g>
		<path fill="#F9F6F6" d="M146.2,199.8c4.3,0,7.7-3.5,7.7-7.7s-3.5-7.7-7.7-7.7H97.4c-6.5,0-11.9,5.3-11.9,11.9v80.2
			c0,6.5,5.3,11.9,11.9,11.9h48.7c4.3,0,7.7-3.5,7.7-7.7s-3.5-7.7-7.7-7.7H101v-28.8h45.2c4.3,0,7.7-3.5,7.7-7.7s-3.5-7.7-7.7-7.7
			H101v-28.8L146.2,199.8L146.2,199.8z"/>
		<path fill="#F9F6F6" d="M263.8,253v27.6c0,4.3,3.5,7.7,7.7,7.7s7.7-3.5,7.7-7.7V253c0-6.7,5.4-12.1,12.1-12.1s12.1,5.4,12.1,12.1
			v27.6c0,4.3,3.5,7.7,7.7,7.7s7.7-3.5,7.7-7.7V253c0-15.2-12.4-27.6-27.6-27.6c-7.8,0-14.8,3.2-19.9,8.5c-5-5.2-12.1-8.5-19.9-8.5
			c-4.9,0-9.4,1.3-13.4,3.5c-1.4-2.1-3.8-3.5-6.5-3.5c-4.3,0-7.7,3.5-7.7,7.7V253v27.6c0,4.3,3.5,7.7,7.7,7.7c4.3,0,7.7-3.5,7.7-7.7
			V253c0-6.7,5.4-12.1,12.1-12.1C258.3,240.8,263.8,246.3,263.8,253L263.8,253z"/>
		<path fill="#F9F6F6" d="M360.1,288.3c8.6,0,16.9-4.1,22.1-11c2.6-3.4,1.9-8.3-1.5-10.8c-3.4-2.6-8.3-1.9-10.8,1.5
			c-2.3,3.1-5.9,4.9-9.7,4.9c-6.7,0-12.1-5.4-12.1-12.1V253c0-6.7,5.4-12.1,12.1-12.1c3.9,0,7.4,1.8,9.7,4.9
			c2.6,3.4,7.4,4.1,10.8,1.5c3.4-2.6,4.1-7.4,1.5-10.8c-5.2-6.9-13.4-11-22.1-11c-15.2,0-27.6,12.4-27.6,27.6v7.7
			C332.5,275.9,344.9,288.3,360.1,288.3z"/>
		<path fill="#F9F6F6" d="M418.7,205.9h-18v-5.2c0-2.8,2.3-5.2,5.2-5.2c11.4,0,20.6-9.2,20.6-20.6s-9.2-20.6-20.6-20.6H393
			c-4.3,0-7.7,3.5-7.7,7.7s3.5,7.7,7.7,7.7h12.9c2.8,0,5.2,2.3,5.2,5.2s-2.3,5.2-5.2,5.2c-11.4,0-20.6,9.2-20.6,20.6v12.9
			c0,4.3,3.5,7.7,7.7,7.7h25.8c4.3,0,7.7-3.5,7.7-7.7S423,205.9,418.7,205.9L418.7,205.9z"/>
		<path fill="#F9F6F6" d="M206,235.3h-30.4c-4.3,0-7.7,3.5-7.7,7.7s3.5,7.7,7.7,7.7H206c4.3,0,7.7-3.5,7.7-7.7
			S210.3,235.3,206,235.3z"/>
		<path fill="#F9F6F6" d="M206,261.1h-30.4c-4.3,0-7.7,3.5-7.7,7.7s3.5,7.7,7.7,7.7H206c4.3,0,7.7-3.5,7.7-7.7
			S210.3,261.1,206,261.1z"/>
		<path fill="#F9F6F6" d="M413.5,298.2c-54.9,0-108.8,9.9-160.2,29.3c-4,1.5-6,6-4.5,10c1.2,3.1,4.1,5,7.2,5c0.9,0,1.8-0.2,2.7-0.5
			c49.6-18.8,101.7-28.3,154.8-28.3c4.3,0,7.7-3.5,7.7-7.7C421.2,301.7,417.8,298.2,413.5,298.2L413.5,298.2z"/>
	</g>
	<path fill="#CBA59D" d="M454.2,385.5H310.4c-0.6,0-1.1,0.5-1.1,1.1v49.9c0,0.6,0.5,1.1,1.1,1.1h143.8c0.6,0,1.1-0.5,1.1-1.1v-49.9
		C455.3,386,454.8,385.5,454.2,385.5L454.2,385.5z"/>
</g>
<g>
	<path fill="#C9FFF7" d="M468.8,341.7v-51.7h-64.3v51.7c-27.7,12.3-47,40.1-47,72.3c0,43.7,35.4,79.1,79.1,79.1s79.1-35.4,79.1-79.1
		C515.8,381.8,496.5,354,468.8,341.7z"/>
	<path fill="#F7D360" d="M499.7,414.1c0,34.8-28.3,63.1-63.1,63.1c-11.5,0-22.2-3.1-31.5-8.4c-18.9-10.9-31.7-31.3-31.7-54.7
		c0-17.5,7.2-33.8,19.4-45.5h87.5C492.5,380.3,499.7,396.6,499.7,414.1z"/>
	<path fill="#72CEC0" d="M418.9,341.7v-14.3c0-7.7,6.3-14,14-14h35.8v-15.3L456,286.5l-12-3.2l-39.6,14.8v43.6
		c-27.7,12.3-47,40.1-47,72.3c0,43.5,35.1,78.8,78.6,79.1c-23.8-0.5-43-35.8-43-79.1C393.1,381.8,403.7,354,418.9,341.7z"/>
	<path fill="#E58E13" d="M405.2,468.8c-18.9-10.9-31.7-31.3-31.7-54.7c0-17.5,7.2-33.8,19.4-45.5h8.1c-5,12.9-7.9,28.6-7.9,45.5
		C393.1,435.3,397.7,454.5,405.2,468.8z"/>
	<path fill="#E6E6E6" d="M409.5,458.8l-51.4-89v-46.1h-48.8v46.1l-51.4,89c-8.8,15.3,2.2,34.4,19.9,34.4h111.9
		C407.3,493.2,418.3,474.1,409.5,458.8z"/>
	<path fill="#CCCCCC" d="M358.1,323.7l-15-8.4l-28.7,0.3l-5.2,8.1v46.1l-51.4,89c-8.8,15.3,2.2,34.4,19.9,34.4h30.5
		c-8,0-13-19.1-9-34.4l23.3-89v-23.6c0-4.9,3.9-8.8,8.8-8.8h26.7V323.7z"/>
	<path fill="#CCCCCC" d="M375.8,313.3c0,5.7-4.7,10.4-10.4,10.4h-63.4c-2.9,0-5.5-1.2-7.4-3c-1.9-1.9-3-4.5-3-7.4
		c0-5.7,4.7-10.4,10.4-10.4h63.4c2.9,0,5.5,1.2,7.4,3C374.6,307.8,375.8,310.4,375.8,313.3z"/>
	<path fill="#E6E6E6" d="M375.8,313.3c0,5.7-4.7,10.4-10.4,10.4h-38.2c-2.9,0-5.5-1.2-7.4-3c-1.9-1.9-3-4.5-3-7.4
		c0-5.7,4.7-10.4,10.4-10.4h38.2c2.9,0,5.5,1.2,7.4,3C374.6,307.8,375.8,310.4,375.8,313.3z"/>
	<path fill="#72CEC0" d="M486.7,287.7c0,5.7-4.7,10.4-10.4,10.4h-78.5c-2.9,0-5.5-1.2-7.4-3c-1.9-1.9-3-4.5-3-7.4
		c0-5.7,4.7-10.4,10.4-10.4h78.5c2.9,0,5.5,1.2,7.4,3C485.5,282.2,486.7,284.8,486.7,287.7z"/>
	<path fill="#C9FFF7" d="M486.7,287.7c0,5.7-4.7,10.4-10.4,10.4h-54.2c-2.9,0-5.5-1.2-7.4-3c-1.9-1.9-3-4.5-3-7.4
		c0-5.7,4.7-10.4,10.4-10.4h54.2c2.9,0,5.5,1.2,7.4,3C485.5,282.2,486.7,284.8,486.7,287.7z"/>
	<path fill="#FC5F61" d="M395.6,473.7c-0.7,1.3-2.5,3.5-6,3.5H277.7c-3.5,0-5.3-2.2-6-3.5c-0.7-1.3-1.7-3.9,0-6.9l37.8-65.4h48.4
		l37.8,65.4C397.3,469.8,396.4,472.4,395.6,473.7z"/>
	<g>
		<path fill="#E83842" d="M299.2,458.8c-1.6,6-1.8,12.6-0.9,18.4h-20.6c-3.5,0-5.3-2.2-6-3.5c-0.7-1.3-1.7-3.9,0-6.9l37.8-65.4h4.8
			L299.2,458.8z"/>
		<path fill="#E83842" d="M342.3,447c-3.6,0-5.4-4.7-2.6-7c2.8-2.4,7.1,0,6.6,3.6C345.9,445.5,344.2,447,342.3,447z"/>
		<path fill="#E83842" d="M324.6,282.9c-3.5,0-5.3-4.4-2.8-6.8c1.3-1.3,3.5-1.5,5.1-0.5c1.4,0.9,2.1,2.6,1.7,4.2
			C328.1,281.6,326.4,282.9,324.6,282.9z"/>
		<path fill="#E83842" d="M340.5,267.6c-3.6,0-5.4-4.7-2.6-7.1c1.3-1.1,3.3-1.3,4.7-0.3c1.4,0.9,2.1,2.7,1.8,4.3
			C344,266.3,342.4,267.6,340.5,267.6z"/>
		<path fill="#E83842" d="M331.9,244.4c-1.7,0-3.3-1.2-3.8-2.8c-0.5-1.7,0.2-3.5,1.6-4.5c3-2,7,0.8,6.1,4.3
			C335.3,243.2,333.7,244.4,331.9,244.4z"/>
	</g>
	<path fill="#FFFFFF" d="M471.8,393.4c-3.6,0-5.3-4.5-2.7-7c2.5-2.3,6.7-0.5,6.7,2.9C475.8,391.5,474,393.4,471.8,393.4z"/>
	<path fill="#FFFFFF" d="M474.6,420.1c-3.5,0-5.3-4.4-2.8-6.8c1.2-1.2,3.2-1.5,4.7-0.7c1.5,0.8,2.3,2.5,2.1,4.1
		C478.2,418.6,476.5,420.1,474.6,420.1z"/>
	<path fill="#FFFFFF" d="M422.3,450.2c-1.7,0-3.3-1.1-3.8-2.7c-0.6-1.7,0.1-3.7,1.6-4.6c3-1.9,7,1,6,4.4
		C425.7,449,424.1,450.2,422.3,450.2z"/>
	<path fill="#FFFFFF" d="M403.9,416.6c-3.6,0-5.4-4.7-2.6-7c1.3-1.1,3.3-1.3,4.7-0.4c1.4,0.9,2.1,2.6,1.8,4.2
		C407.5,415.2,405.8,416.6,403.9,416.6z"/>
	<path fill="#FFFFFF" d="M452.8,407c-3.6,0-5.4-4.6-2.7-7c1.3-1.2,3.3-1.4,4.8-0.4c1.4,0.9,2.1,2.6,1.8,4.2
		C456.3,405.6,454.7,407,452.8,407z"/>
	<path fill="#E83842" d="M314.2,455.3c-1.6,0-3.1-1-3.7-2.5c-0.7-1.6-0.2-3.6,1.2-4.7c2.9-2.2,7.1,0.3,6.4,3.9
		C317.8,453.9,316.1,455.3,314.2,455.3z"/>
	<path fill="#E83842" d="M324.7,429.4c-1.7,0-3.2-1.1-3.8-2.7c-0.6-1.7,0-3.6,1.5-4.6c2.8-2,6.8,0.5,6.2,4
		C328.3,428,326.6,429.4,324.7,429.4z"/>
</g>
</svg>
