<?xml version="1.0" encoding="iso-8859-1"?>
<!-- Generator: Adobe Illustrator 19.0.0, SVG Export Plug-In . SVG Version: 6.00 Build 0)  -->
<svg version="1.1" id="Capa_1" xmlns="http://www.w3.org/2000/svg" xmlns:xlink="http://www.w3.org/1999/xlink" x="0px" y="0px"
	 viewBox="0 0 511.999 511.999" style="enable-background:new 0 0 511.999 511.999;" xml:space="preserve">
<path style="fill:#F96982;" d="M387.331,290.233c-0.802,3.219-1.985,5.924-3.579,7.673c-3.97,4.351-12.157,8.053-21.804,11.139
	c-14.101,4.495-31.338,7.652-43.228,9.493c-7.457,1.152-14.193-4.618-14.193-12.167V248.61c0-7.457,6.582-13.206,13.967-12.198
	c12.558,1.728,31.215,4.865,45.686,9.781c8.907,3.014,16.219,6.696,19.572,11.139C388.432,263.543,389.954,279.67,387.331,290.233z"
	/>
<g>
	<path style="fill:#ED3565;" d="M365.541,285.218c-0.584,0-1.177-0.067-1.77-0.206l-22.895-5.367
		c-4.154-0.974-6.733-5.131-5.759-9.286c0.974-4.154,5.134-6.73,9.286-5.759l22.895,5.367c4.154,0.974,6.733,5.131,5.759,9.286
		C372.223,282.815,369.048,285.218,365.541,285.218z"/>
	<path style="fill:#ED3565;" d="M383.752,257.331c4.68,6.212,6.202,22.339,3.579,32.902c-0.802,3.219-1.985,5.924-3.579,7.673
		c-3.97,4.351-12.157,8.053-21.804,11.139c-0.658-0.617-1.265-1.296-1.841-2.006c-1.934-2.417-3.312-5.286-3.98-8.3
		c-1.316-5.873-2.057-12.681-2.17-19.696c-0.113-7.014,0.432-13.844,1.553-19.747c0.915-4.772,3.507-9.082,7.313-12.116
		c0.432-0.35,0.884-0.679,1.358-0.987C373.086,249.206,380.399,252.888,383.752,257.331z"/>
	<path style="fill:#ED3565;" d="M387.331,290.233c-0.802,3.219-1.985,5.924-3.579,7.673c-9.771,10.707-44.997,17.526-65.032,20.632
		c-7.457,1.152-14.193-4.618-14.193-12.167v-16.137"/>
</g>
<path style="fill:#F96982;" d="M478.261,248.609v57.761c0,7.549-6.737,13.319-14.193,12.167c-11.9-1.841-29.148-4.999-43.249-9.503
	c0,0,0,0-0.01,0c-9.637-3.075-17.803-6.788-21.773-11.128c-1.594-1.748-2.777-4.453-3.579-7.673
	c-2.623-10.563-1.1-26.69,3.579-32.902c3.374-4.464,10.748-8.166,19.716-11.19c14.45-4.885,33.025-8.012,45.542-9.73
	C471.679,235.403,478.261,241.152,478.261,248.609z"/>
<g>
	<path style="fill:#ED3565;" d="M417.246,285.218c-3.507,0-6.681-2.403-7.516-5.965c-0.974-4.155,1.605-8.312,5.759-9.286
		l22.895-5.367c4.155-0.976,8.312,1.605,9.286,5.759c0.974,4.155-1.605,8.312-5.759,9.286l-22.895,5.367
		C418.423,285.151,417.829,285.218,417.246,285.218z"/>
	<path style="fill:#ED3565;" d="M427.278,297.638c-0.843,4.402-3.116,8.403-6.459,11.396c0,0,0,0-0.01,0
		c-9.637-3.075-17.803-6.788-21.773-11.128c-1.594-1.748-2.777-4.453-3.579-7.673c-2.623-10.563-1.1-26.69,3.579-32.902
		c3.374-4.464,10.748-8.166,19.716-11.19c1.46,1.059,2.777,2.324,3.929,3.754c1.934,2.417,3.312,5.286,3.98,8.3
		c1.316,5.873,2.057,12.681,2.17,19.696C428.944,284.905,428.399,291.734,427.278,297.638z"/>
	<path style="fill:#ED3565;" d="M478.261,290.233v16.137c0,7.549-6.737,13.319-14.193,12.167
		c-20.035-3.106-55.261-9.925-65.032-20.632c-1.594-1.748-2.777-4.453-3.579-7.673h82.804V290.233z"/>
</g>
<path style="fill:#C6F4F2;" d="M415.461,278.096c0.01,1.008,0.01,2.016,0,3.003c-0.072,5.05-0.525,9.874-1.317,14.029
	c-0.319,1.646-1.214,3.137-2.53,4.186c-0.833,0.668-1.81,1.142-2.859,1.378c-4.947,1.1-10.902,1.748-16.991,1.841
	c-0.524,0.01-1.049,0.01-1.574,0.01c-5.544,0-10.933-0.463-15.479-1.337c-1.646-0.309-3.116-1.214-4.165-2.52
	c-0.669-0.833-1.142-1.81-1.378-2.859c-0.967-4.33-1.584-9.431-1.779-14.728c-0.031-0.751-0.051-1.502-0.062-2.263
	c-0.093-6.12,0.37-12.054,1.316-17.032c0.319-1.646,1.214-3.137,2.53-4.186c0.833-0.668,1.81-1.142,2.859-1.378
	c4.947-1.1,10.902-1.748,16.991-1.841c0.525-0.01,1.049-0.01,1.574-0.01c5.544,0,10.933,0.463,15.479,1.337
	c1.646,0.309,3.116,1.214,4.165,2.52c0.669,0.833,1.142,1.81,1.378,2.859C414.72,266.053,415.368,272.008,415.461,278.096z"/>
<path style="fill:#A0E0E8;" d="M415.461,281.1c-0.072,5.05-0.525,9.874-1.317,14.029c-0.319,1.646-1.214,3.137-2.53,4.186
	c-0.833,0.668-1.81,1.142-2.859,1.378c-4.947,1.1-10.902,1.748-16.991,1.841c-0.524,0.01-1.049,0.01-1.574,0.01
	c-5.544,0-10.933-0.463-15.479-1.337c-1.646-0.309-3.116-1.214-4.165-2.52c-0.669-0.833-1.142-1.81-1.378-2.859
	c-0.967-4.33-1.584-9.431-1.779-14.728H415.461z"/>
<path style="fill:#C6F4F2;" d="M500.976,336.476V491.55c0,2.143-1.741,3.884-3.884,3.884H285.698c-2.143,0-3.884-1.741-3.884-3.884
	V336.476H500.976z"/>
<g>
	<path style="fill:#A0E0E8;" d="M327.596,352.186c-0.113,5.625-3.06,10.714-7.881,13.629l-0.258,0.155
		c-9.436,5.676-20.305,8.674-31.441,8.674c-2.071,0-4.141-0.103-6.202-0.309v-37.859h35.809c0.855,0.587,1.72,1.164,2.586,1.731
		C324.938,341.318,327.699,346.541,327.596,352.186z"/>
	<path style="fill:#A0E0E8;" d="M309.67,430.697v64.737h-23.972c-2.143,0-3.884-1.741-3.884-3.884v-72.999h15.721
		C304.241,418.551,309.67,423.99,309.67,430.697z"/>
	<rect x="281.819" y="336.478" style="fill:#A0E0E8;" width="219.15" height="26.751"/>
	<rect x="342.789" y="336.478" style="fill:#A0E0E8;" width="97.21" height="158.96"/>
</g>
<path style="fill:#72F2EB;" d="M511.999,307.486v38.477c0,2.153-1.741,3.894-3.884,3.894h-233.45c-2.132,0-3.874-1.741-3.874-3.894
	v-38.477c0-2.143,1.741-3.884,3.874-3.884h233.451C510.258,303.603,511.999,305.343,511.999,307.486z"/>
<g>
	<path style="fill:#14C4BB;" d="M327.472,349.858h-52.807c-2.132,0-3.874-1.741-3.874-3.894v-38.477
		c0-2.143,1.741-3.884,3.874-3.884h1.978c13.743,12.991,28.33,24.601,43.567,34.604
		C324.278,340.885,326.895,345.129,327.472,349.858z"/>
	<path style="fill:#14C4BB;" d="M440.001,304.611v45.244h-97.214v-45.244c0-0.339,0.01-0.679,0.031-1.008h97.152
		C439.99,303.932,440.001,304.272,440.001,304.611z"/>
</g>
<path style="fill:#F96982;" d="M426.632,304.611v190.818h-70.473V304.611c0-5.595,4.546-10.141,10.141-10.141h50.191
	C422.086,294.47,426.632,299.016,426.632,304.611z"/>
<path style="fill:#F9B767;" d="M179.043,366.588v128.845h-35.644c-4.552,0-8.242-3.69-8.242-8.241V366.588H179.043z"/>
<g>
	<path style="fill:#F99830;" d="M135.157,366.588h43.886v39.806c-7.077,2.462-14.608,3.76-22.293,3.76
		c-7.438,0-14.721-1.216-21.593-3.534V366.588z"/>
	<path style="fill:#F99830;" d="M164.744,418.551h14.299v76.883h-26.445v-64.737C152.598,423.99,158.037,418.551,164.744,418.551z"
		/>
</g>
<path style="fill:#14C4BB;" d="M312.802,354.35c-0.082,0.041-0.165,0.093-0.258,0.144c-15.607,9.406-34.903,8.746-50.675-0.402
	c-7.263-4.213-15.69-6.624-24.694-6.624c-14.227,0-27.042,13.444-36.046,26.29c-5.068,7.222-11.744,12.98-19.367,16.926
	c-7.623,3.935-16.184,6.078-25.013,6.078c-17.657,0-34.243-8.551-44.38-23.004c-9.004-12.847-21.819-26.29-36.046-26.29
	c-9.035,0-17.513,2.441-24.807,6.686c-15.298,8.932-34.058,9.663-49.449,0.876c-0.093-0.052-0.185-0.113-0.278-0.165
	c-2.328-1.329-2.39-4.636-0.154-6.109c10.704-7.088,20.841-14.732,30.411-22.819c16.916-14.278,32.059-29.927,45.503-46.338
	c5.656-6.882,11.002-13.897,16.061-21.005c5.975-8.386,11.538-16.895,16.689-25.446h92.913c5.151,8.55,10.714,17.06,16.689,25.446
	c24.117,33.914,54.93,65.819,92.964,90.811C314.667,350.589,314.646,353.227,312.802,354.35z"/>
<g>
	<path style="fill:#00A094;" d="M88.798,304.18c0,17.956-14.608,32.554-32.554,32.554c-9.601,0-18.234-4.172-24.199-10.796
		c16.916-14.278,32.059-29.927,45.503-46.338C84.44,285.564,88.798,294.372,88.798,304.18z"/>
	<path style="fill:#00A094;" d="M179.49,312.818c-17.95,0-32.553-14.603-32.553-32.552s14.603-32.554,32.553-32.554
		s32.553,14.604,32.553,32.554S197.439,312.818,179.49,312.818z"/>
	<path style="fill:#00A094;" d="M219.9,258.594c-3.431,0.247-9.612,4.296-17.122,15.01c-10.467,14.927-27.64,23.839-45.957,23.839
		c-18.306,0-35.49-8.911-45.957-23.839c-7.613-10.868-13.866-14.876-17.256-15.01c5.975-8.386,11.538-16.895,16.689-25.446h92.913
		C208.362,241.699,213.925,250.208,219.9,258.594z"/>
</g>
<path style="fill:#14C4BB;" d="M279.846,250.61c-0.072,0.041-0.134,0.082-0.196,0.124c-12.311,7.407-27.527,6.892-39.951-0.319
	c-5.728-3.317-12.373-5.223-19.47-5.223c-11.219,0-21.325,10.601-28.413,20.727c-7.994,11.394-21.067,18.131-34.995,18.131
	c-13.918,0-26.991-6.737-34.985-18.131c-7.098-10.127-17.204-20.727-28.413-20.727c-7.129,0-13.815,1.926-19.553,5.275
	c-12.074,7.036-26.857,7.613-38.982,0.69c-0.082-0.052-0.155-0.093-0.227-0.134c-1.834-1.051-1.885-3.647-0.124-4.821
	c30.391-20.13,54.909-45.874,73.967-73.143c5.12-7.304,9.838-14.721,14.175-22.17h68.291c4.316,7.417,9.014,14.804,14.103,22.077
	c19.234,27.537,44.02,53.518,74.812,73.751C281.32,247.653,281.299,249.734,279.846,250.61z"/>
<g>
	<path style="fill:#00A094;" d="M146.835,220.665c-17.95,0-32.553-14.603-32.553-32.552s14.603-32.553,32.553-32.553
		c17.949,0,32.552,14.603,32.552,32.553S164.784,220.665,146.835,220.665z"/>
	<path style="fill:#00A094;" d="M205.075,172.964c-1.494-0.597-3.08-0.906-4.729-0.917c-0.865,0.216-4.121,2.132-8.551,8.468
		c-7.943,11.332-20.985,18.1-34.882,18.1s-26.939-6.768-34.882-18.1c-4.44-6.336-7.685-8.252-8.551-8.468
		c-1.72,0.01-3.41,0.361-4.976,1.01c5.12-7.304,9.838-14.721,14.175-22.17h68.291C195.289,158.305,199.986,165.691,205.075,172.964z
		"/>
</g>
<path style="fill:#14C4BB;" d="M241.008,162.364c-0.051,0.031-0.093,0.051-0.144,0.082c-8.406,5.069-18.811,4.708-27.3-0.216
	c-3.915-2.266-8.458-3.564-13.31-3.564c-7.665,0-14.577,7.242-19.429,14.155c-5.46,7.798-14.402,12.404-23.911,12.404
	c-4.759,0-9.375-1.154-13.485-3.276s-7.706-5.233-10.436-9.127c-4.852-6.913-11.754-14.155-19.419-14.155
	c-4.873,0-9.447,1.308-13.372,3.595c-8.252,4.811-18.358,5.213-26.651,0.474c-0.052-0.031-0.103-0.062-0.144-0.093
	c-1.257-0.711-1.298-2.493-0.093-3.286c31.74-21.026,54.116-50.994,68.147-79.963c4.234-8.736,7.706-17.39,10.446-25.672
	c1.597-4.811,8.417-4.811,10.003,0c2.761,8.324,6.253,17.019,10.518,25.796c14.114,29.103,36.633,59.184,68.61,80.19
	C242.008,160.345,241.997,161.766,241.008,162.364z"/>
<path style="fill:#00A094;" d="M172.429,79.516c-4.718,1.988-9.9,3.08-15.329,3.08c-5.553,0-10.838-1.143-15.638-3.204
	c4.234-8.736,7.706-17.39,10.446-25.672c1.597-4.811,8.417-4.811,10.003,0C164.671,62.044,168.164,70.739,172.429,79.516z"/>
<circle style="fill:#F96982;" cx="179.489" cy="280.268" r="19.16"/>
<circle style="fill:#F9B767;" cx="146.839" cy="188.118" r="19.16"/>
<g>
	<circle style="fill:#F96982;" cx="56.239" cy="304.188" r="19.16"/>
	<circle style="fill:#F96982;" cx="157.099" cy="42.881" r="26.319"/>
</g>
<g>
	<path style="fill:#00A094;" d="M221.404,314.2c-4.267,0-7.726-3.459-7.726-7.726v-0.507c0-4.268,3.459-7.726,7.726-7.726
		s7.726,3.459,7.726,7.726v0.507C229.13,310.742,225.671,314.2,221.404,314.2z"/>
	<path style="fill:#00A094;" d="M175.861,352.467c-4.267,0-7.726-3.459-7.726-7.726v-0.507c0-4.268,3.459-7.726,7.726-7.726
		s7.726,3.459,7.726,7.726v0.507C183.587,349.008,180.128,352.467,175.861,352.467z"/>
	<path style="fill:#00A094;" d="M160.329,338.692c-4.267,0-7.726-3.459-7.726-7.726v-0.507c0-4.268,3.459-7.726,7.726-7.726
		s7.726,3.459,7.726,7.726v0.507C168.055,335.233,164.596,338.692,160.329,338.692z"/>
	<path style="fill:#00A094;" d="M194.937,222.323c-4.267,0-7.726-3.459-7.726-7.726v-0.507c0-4.268,3.459-7.726,7.726-7.726
		s7.726,3.459,7.726,7.726v0.507C202.664,218.864,199.204,222.323,194.937,222.323z"/>
	<path style="fill:#00A094;" d="M177.92,237.888c-4.267,0-7.726-3.459-7.726-7.726v-0.506c0-4.268,3.459-7.726,7.726-7.726
		s7.726,3.459,7.726,7.726v0.506C185.646,234.429,182.187,237.888,177.92,237.888z"/>
	<path style="fill:#00A094;" d="M146.132,141.651c-4.267,0-7.726-3.459-7.726-7.726v-0.507c0-4.268,3.459-7.726,7.726-7.726
		s7.726,3.459,7.726,7.726v0.507C153.858,138.192,150.399,141.651,146.132,141.651z"/>
</g>
<path style="fill:#14C4BB;" d="M296.278,440.185v47.007c0,4.553-3.688,8.242-8.242,8.242H174.232c-4.543,0-8.242-3.688-8.242-8.242
	v-47.007c0-4.543,3.698-8.241,8.242-8.241h113.805C292.59,431.944,296.278,435.642,296.278,440.185z"/>
<g>
	<polygon style="fill:#F96982;" points="296.278,455.967 296.278,471.42 266.825,471.42 266.825,495.434 251.372,495.434 
		251.372,471.42 165.99,471.42 165.99,455.967 251.372,455.967 251.372,431.944 266.825,431.944 266.825,455.967 	"/>
	<path style="fill:#F96982;" d="M96.453,419.766v65.17c0,4.552-3.69,8.242-8.241,8.242H31.283c-4.552,0-8.241-3.69-8.241-8.242
		v-65.17H96.453z"/>
</g>
<rect x="23.039" y="419.768" style="fill:#ED3565;" width="73.41" height="30.555"/>
<path style="fill:#F96982;" d="M100.677,436.928h-81.86c-4.552,0-8.241-3.69-8.241-8.242v-8.307c0-4.552,3.69-8.241,8.241-8.241
	h81.861c4.552,0,8.241,3.69,8.241,8.241v8.307C108.919,433.238,105.229,436.928,100.677,436.928z"/>
<rect x="46.109" y="412.138" style="fill:#C6F4F2;" width="28.401" height="24.79"/>
<g>
</g>
<g>
</g>
<g>
</g>
<g>
</g>
<g>
</g>
<g>
</g>
<g>
</g>
<g>
</g>
<g>
</g>
<g>
</g>
<g>
</g>
<g>
</g>
<g>
</g>
<g>
</g>
<g>
</g>
</svg>
