<?xml version="1.0" encoding="utf-8"?>
<!-- Generator: Adobe Illustrator 17.1.0, SVG Export Plug-In . SVG Version: 6.00 Build 0)  -->
<!DOCTYPE svg PUBLIC "-//W3C//DTD SVG 1.1//EN" "http://www.w3.org/Graphics/SVG/1.1/DTD/svg11.dtd">
<svg version="1.1" id="Capa_1" xmlns="http://www.w3.org/2000/svg" xmlns:xlink="http://www.w3.org/1999/xlink" x="0px" y="0px"
	 viewBox="0 0 405.1 405.1" enable-background="new 0 0 405.1 405.1" xml:space="preserve">
<g>
	<g>
		<path d="M154.5,310.6V126.7l30.3,30.5c3.4,3.4,8.9,3.4,12.3,0c3.4-3.4,3.4-8.9,0-12.3L152,99.6c0,0,0,0,0,0
			c-3.4-3.4-8.9-3.4-12.3,0c0,0,0,0,0,0l-45.2,45.4c-3.4,3.4-3.4,8.9,0,12.3c3.4,3.4,8.9,3.4,12.3,0l30.3-30.5v183.9
			c0,4.8,3.9,8.7,8.7,8.7C150.6,319.3,154.5,315.4,154.5,310.6z"/>
	</g>
</g>
<rect x="227.5" y="83.6" fill="none" stroke="#000000" stroke-width="6" stroke-miterlimit="10" width="79.2" height="250.1"/>
</svg>
