<?xml version="1.0" encoding="utf-8"?>
<!-- Generator: Adobe Illustrator 17.1.0, SVG Export Plug-In . SVG Version: 6.00 Build 0)  -->
<!DOCTYPE svg PUBLIC "-//W3C//DTD SVG 1.1//EN" "http://www.w3.org/Graphics/SVG/1.1/DTD/svg11.dtd">
<svg version="1.1" id="Capa_1" xmlns="http://www.w3.org/2000/svg" xmlns:xlink="http://www.w3.org/1999/xlink" x="0px" y="0px"
	 viewBox="0 0 405.1 405.1" enable-background="new 0 0 405.1 405.1" xml:space="preserve">
<g>
	<g>
		<path d="M50,146.8h113.2l-18.8,30.3c-2.1,3.4-2.1,8.9,0,12.3c2.1,3.4,5.5,3.4,7.6,0l27.9-45.2c0,0,0,0,0,0c2.1-3.4,2.1-8.9,0-12.3
			c0,0,0,0,0,0L152,86.8c-2.1-3.4-5.5-3.4-7.6,0c-2.1,3.4-2.1,8.9,0,12.3l18.8,30.3H50c-3,0-5.3,3.9-5.3,8.7
			C44.7,143,47.1,146.8,50,146.8z"/>
	</g>
</g>
<rect x="189" y="164.2" fill="none" stroke="#000000" stroke-width="6" stroke-miterlimit="10" width="47.1" height="212.1"/>
<g>
	<g>
		<path d="M378.1,138.2c0-4.8-2.4-8.7-5.3-8.7h-113l18.7-30.3c2.1-3.4,2.1-8.9,0-12.3c-2.1-3.4-5.5-3.4-7.5,0L243.1,132c0,0,0,0,0,0
			c-2.1,3.4-2.1,8.9,0,12.3c0,0,0,0,0,0l27.9,45.2c2.1,3.4,5.5,3.4,7.5,0c2.1-3.4,2.1-8.9,0-12.3l-18.7-30.3h113
			C375.7,146.8,378.1,143,378.1,138.2z"/>
	</g>
</g>
</svg>
