<?xml version="1.0" encoding="iso-8859-1"?>
<!-- Generator: Adobe Illustrator 19.0.0, SVG Export Plug-In . SVG Version: 6.00 Build 0)  -->
<svg version="1.1" id="Capa_1" xmlns="http://www.w3.org/2000/svg" xmlns:xlink="http://www.w3.org/1999/xlink" x="0px" y="0px"
	 viewBox="0 0 512 512" style="enable-background:new 0 0 512 512;" xml:space="preserve">
<path style="fill:#FEDCA9;" d="M435.401,310.466c-33.376-70.308-37.064-151.087-10.232-224.143l7.283-19.83L256,24.491
	L79.548,66.493l7.283,19.83c26.832,73.056,23.144,153.835-10.232,224.143l0,0c-9.427,19.859-14.318,41.566-14.318,63.549V512H241
	v-94.514h30V512h178.719V374.015C449.719,352.033,444.828,330.325,435.401,310.466z"/>
<g>
	<path style="fill:#FEC674;" d="M435.401,310.466c-33.376-70.308-37.064-151.087-10.232-224.143l7.283-19.83L256,24.491v410.161h15
		V512h178.719V374.015C449.719,352.033,444.828,330.325,435.401,310.466z"/>
	<path style="fill:#FEC674;" d="M442.009,0v37.223c0,28.338-22.972,51.31-51.31,51.31H307.31c-28.338,0-51.31-22.972-51.31-51.31
		v-4.928v4.928c0,28.338-22.972,51.31-51.31,51.31h-83.389c-28.338,0-51.31-22.972-51.31-51.31V0H442.009z"/>
</g>
<path style="fill:#FFB94F;" d="M442.009,0v37.223c0,28.338-22.972,51.31-51.31,51.31H307.31c-28.338,0-51.31-22.972-51.31-51.31
	v-4.928v4.928C256,65.56,255.991,0,255.991,0H442.009z"/>
<g>
	
		<rect x="197.011" y="115.33" transform="matrix(-0.1104 -0.9939 0.9939 -0.1104 90.4328 372.6946)" style="fill:#FEC674;" width="30" height="61.091"/>
	
		<rect x="197.011" y="192.446" transform="matrix(-0.1104 -0.9939 0.9939 -0.1104 13.7886 458.3246)" style="fill:#FEC674;" width="30" height="61.091"/>
</g>
<g>
	
		<rect x="269.451" y="130.868" transform="matrix(-0.9939 -0.1104 0.1104 -0.9939 582.0544 323.9644)" style="fill:#FFB94F;" width="61.091" height="30"/>
	
		<rect x="269.454" y="207.991" transform="matrix(-0.9939 -0.1104 0.1104 -0.9939 573.5461 477.7385)" style="fill:#FFB94F;" width="61.091" height="30"/>
	<circle style="fill:#FFB94F;" cx="256" cy="279.44" r="15"/>
</g>
<path style="fill:#FFA900;" d="M271,279.44c0,8.284-6.716,15-15,15v-30C264.284,264.44,271,271.156,271,279.44z"/>
<path style="fill:#08B7FC;" d="M435.401,310.466L435.401,310.466c-0.939-1.978-1.847-3.968-2.739-5.962l-44.62,12.51
	C344.86,329.12,300.43,335.174,256,335.174s-88.86-6.053-132.042-18.16l-44.62-12.51c-0.892,1.995-1.8,3.984-2.739,5.962l0,0
	c-9.427,19.859-14.318,41.566-14.318,63.549v62.367l6.27,2.894c49.75,22.961,104.737,32.195,159.258,26.743L241,464.7v-17.693
	c4.677,1.716,9.729,2.653,15,2.653l0,0c5.271,0,10.323-0.937,15-2.653V464.7l13.191,1.319
	c54.521,5.452,109.508-3.781,159.258-26.743l6.27-2.894v-62.367C449.719,352.033,444.828,330.325,435.401,310.466z"/>
<path style="fill:#006DFF;" d="M435.401,310.466L435.401,310.466c-0.939-1.978-1.847-3.968-2.739-5.962l-44.62,12.51
	C344.86,329.12,300.43,335.174,256,335.174c0,24.664,0,100.324,0,114.486l0,0c5.271,0,10.323-0.937,15-2.653V464.7l13.191,1.319
	c54.521,5.452,109.508-3.781,159.258-26.743l6.27-2.894v-62.367C449.719,352.033,444.828,330.325,435.401,310.466z"/>
<g>
</g>
<g>
</g>
<g>
</g>
<g>
</g>
<g>
</g>
<g>
</g>
<g>
</g>
<g>
</g>
<g>
</g>
<g>
</g>
<g>
</g>
<g>
</g>
<g>
</g>
<g>
</g>
<g>
</g>
</svg>
