<?xml version="1.0" encoding="utf-8"?>
<!-- Generator: Adobe Illustrator 17.1.0, SVG Export Plug-In . SVG Version: 6.00 Build 0)  -->
<!DOCTYPE svg PUBLIC "-//W3C//DTD SVG 1.1//EN" "http://www.w3.org/Graphics/SVG/1.1/DTD/svg11.dtd">
<svg version="1.1" id="Capa_1" xmlns="http://www.w3.org/2000/svg" xmlns:xlink="http://www.w3.org/1999/xlink" x="0px" y="0px"
	 viewBox="0 0 405.1 405.1" enable-background="new 0 0 405.1 405.1" xml:space="preserve">
<g>
	<g>
		<g>
			<path d="M212.9,260.2V76.3l30.3,30.5c3.4,3.4,8.9,3.4,12.3,0c3.4-3.4,3.4-8.9,0-12.3l-45.2-45.4c0,0,0,0,0,0
				c-3.4-3.4-8.9-3.4-12.3,0c0,0,0,0,0,0l-45.2,45.4c-3.4,3.4-3.4,8.9,0,12.3c3.4,3.4,8.9,3.4,12.3,0l30.3-30.5v183.9
				c0,4.8,3.9,8.7,8.7,8.7S212.9,265,212.9,260.2z"/>
		</g>
	</g>
	<rect x="51.2" y="254" stroke="#000000" stroke-width="6" stroke-miterlimit="10" width="306.1" height="75.3"/>
</g>
</svg>
